<?xml version="1.0" encoding="UTF-8"?>
<svg version="1.1" xmlns="http://www.w3.org/2000/svg" width="736" height="552">
<path d="M0 0 C242.88 0 485.76 0 736 0 C736 182.16 736 364.32 736 552 C493.12 552 250.24 552 0 552 C0 369.84 0 187.68 0 0 Z " fill="#FEFEFE" transform="translate(0,0)"/>
<path d="M0 0 C3.8898442 2.48843458 6.73772564 4.72392566 9.59375 8.3671875 C11.73709419 10.85584825 14.22537145 12.89523684 16.7421875 14.99609375 C17.85980469 15.98802734 17.85980469 15.98802734 19 17 C19.57249985 17.39681976 20.14499969 17.79363953 20.73484802 18.20248413 C24.08347196 20.86246164 25.79113985 22.85741179 26.57330322 27.13630676 C26.68273218 30.36218918 26.68130479 33.55611379 26.55852318 36.78145409 C26.47900782 38.95795752 26.44876451 41.13034414 26.43147278 43.30818176 C26.37416295 49.49188653 26.23380255 55.67253945 26.05200195 61.85375977 C24.47167464 80.77747056 24.47167464 80.77747056 31.15339661 97.37678528 C33.59721963 99.53557899 36.24265574 101.26851852 39 103 C41.29370117 105.39916992 41.29370117 105.39916992 43 107.5 C45.24560336 110.16665399 47.50724163 112.50724163 50 115 C50.33 93.88 50.66 72.76 51 51 C54.78299314 52.89149657 56.67345111 54.43923342 59.58984375 57.39453125 C60.45673828 58.26787109 61.32363281 59.14121094 62.21679688 60.04101562 C63.56354492 61.41290039 63.56354492 61.41290039 64.9375 62.8125 C66.27844727 64.16698242 66.27844727 64.16698242 67.64648438 65.54882812 C69.31993023 67.23966688 70.99130905 68.93255578 72.65991211 70.62817383 C73.81825562 71.80222778 73.81825562 71.80222778 75 73 C75.88212158 73.90000732 76.76424316 74.80001465 77.6730957 75.72729492 C79.80413068 77.98815561 79.80413068 77.98815561 81.953125 79.15625 C85.51864731 78.88407272 87.45725848 75.99938658 89.75 73.5 C90.82356374 72.37573207 91.8990819 71.25332712 92.9765625 70.1328125 C93.49637695 69.58786133 94.01619141 69.04291016 94.55175781 68.48144531 C96.32300806 66.6695865 98.1900277 65.00985414 100.125 63.375 C104.3294988 59.8078147 108.14668292 55.88484848 111.99609375 51.94140625 C114 50 114 50 115 50 C114.99254257 50.74200653 114.98508514 51.48401306 114.97740173 52.24850464 C114.91478765 59.28017022 114.89593174 66.31032479 114.92484188 73.3421154 C114.93819577 76.95653829 114.93529816 80.56935143 114.89379883 84.18359375 C114.85428317 87.67926993 114.8593657 91.17242463 114.89392281 94.66812515 C114.90215415 96.63439612 114.86553506 98.60069254 114.8278656 100.56661987 C114.93481404 107.31559252 115.60030274 111.35091762 120.16259766 116.48071289 C121.74996963 118.01356315 123.3610379 119.5224402 125 121 C126.13317914 122.16132447 127.25971596 123.32920247 128.37670898 124.50610352 C129.41388487 125.54964737 130.45368635 126.59058819 131.49609375 127.62890625 C132.05571304 128.18948227 132.61533234 128.75005829 133.19190979 129.32762146 C134.35254496 130.48892698 135.51440262 131.64901202 136.67749023 132.80786133 C138.46262422 134.58754755 140.24223712 136.37263355 142.02148438 138.15820312 C143.15853296 139.29459232 144.29589095 140.43067203 145.43359375 141.56640625 C145.96375595 142.09859268 146.49391815 142.63077911 147.04014587 143.17909241 C149.76226933 145.93127636 149.76226933 145.93127636 153 148 C153 148.66 153 149.32 153 150 C141.81215722 150.11609742 130.62445889 150.20481864 119.43613529 150.25906086 C114.24032807 150.2851009 109.04493446 150.32039663 103.84936523 150.37719727 C98.83077901 150.43171666 93.81258941 150.46146257 88.79372978 150.47438622 C86.88362832 150.48359039 84.97354738 150.50156404 83.0636158 150.52865028 C63.8021286 150.79082922 63.8021286 150.79082922 57 145 C56.47026077 144.55961395 55.94052155 144.11922791 55.39472961 143.66549683 C53.94754115 142.36745658 52.59547563 140.96569574 51.25 139.5625 C50.78319824 139.08022949 50.31639648 138.59795898 49.83544922 138.10107422 C46.72235534 134.85676458 43.82691463 131.49207101 41 128 C37.71773725 124.65814564 34.36252533 121.39068783 31.01344299 118.11604309 C28.37984422 115.53647931 25.75726238 112.94582729 23.13500977 110.35473633 C21.75871554 108.99854582 20.37885106 107.64596852 18.99536133 106.29711914 C16.97802342 104.32883796 14.97436535 102.34744013 12.97265625 100.36328125 C12.36309586 99.774366 11.75353546 99.18545074 11.12550354 98.57868958 C9.32746612 96.7815823 7.65052988 94.93327551 6 93 C5.4235675 92.33609253 4.84713501 91.67218506 4.25323486 90.98815918 C-1.77038316 82.77674386 -0.75991769 73.57937601 -0.5859375 63.8671875 C-0.57472923 62.02061347 -0.56619676 60.17402144 -0.56021118 58.3274231 C-0.53744095 53.49700559 -0.47862159 48.66769247 -0.4119873 43.83770752 C-0.35030813 38.89716527 -0.32314172 33.95644234 -0.29296875 29.015625 C-0.2288652 19.34326815 -0.12663111 9.67172636 0 0 Z " fill="#030303" transform="translate(90,213)"/>
<path d="M0 0 C10.55326381 -0.06963992 21.10647257 -0.12288226 31.65991974 -0.15543652 C36.56079754 -0.17106426 41.46151763 -0.19224959 46.36230469 -0.22631836 C51.0955713 -0.25901508 55.82868662 -0.27687475 60.5620575 -0.28463173 C62.36409383 -0.29015676 64.16612228 -0.30094572 65.96809387 -0.31719017 C68.5003929 -0.33910179 71.03207392 -0.34196124 73.56445312 -0.34057617 C74.67145065 -0.35675491 74.67145065 -0.35675491 75.80081177 -0.3732605 C82.77407968 -0.3322342 88.99607399 1.48244073 94.1875 6.375 C94.8475 6.98988281 95.5075 7.60476562 96.1875 8.23828125 C96.785625 8.81964844 97.38375 9.40101563 98 10 C98.886875 10.845625 99.77375 11.69125 100.6875 12.5625 C103 15 103 15 105.3125 17.875 C107.30623313 20.32497927 109.46619862 22.33285625 111.875 24.375 C115.38401081 27.35733002 118.3086133 30.58011458 121.27734375 34.08984375 C123.45588412 36.50550416 125.8690849 38.50238243 128.375 40.56640625 C130.90780013 42.80087175 132.87713717 45.37435387 135 48 C136.6459651 49.68711423 138.31237149 51.3545622 140 53 C148.88352005 61.67200766 148.88352005 61.67200766 149.12025452 68.43583679 C149.12315505 69.88259771 149.12049202 71.329376 149.11352539 72.77612305 C149.11367142 73.56660034 149.11381744 74.35707764 149.1139679 75.17150879 C149.11327109 77.78494 149.10548955 80.39829999 149.09765625 83.01171875 C149.09579124 84.82347067 149.09436773 86.6352231 149.09336853 88.44697571 C149.08954985 93.21617016 149.07972508 97.98533418 149.06866455 102.7545166 C149.05843649 107.62084542 149.05386792 112.48717916 149.04882812 117.35351562 C149.03810226 126.90235713 149.0210336 136.45117603 149 146 C148.03908447 145.16154541 147.07816895 144.32309082 146.08813477 143.45922852 C143.28124388 141.03064983 140.38549116 138.81243199 137.39428711 136.61694336 C131.10390659 131.63740182 125.12123358 126.56675343 123.14434814 118.51495361 C122.73399569 114.55356556 122.60027443 110.66728243 122.69140625 106.69140625 C122.70694927 106.00385632 122.72249229 105.31630638 122.73850632 104.6079216 C122.90968391 98.85712407 123.30626718 93.12457588 123.71899414 87.38696289 C124.06955072 82.40637146 124.33364158 77.43353499 124.44140625 72.44140625 C124.45690144 71.75854176 124.47239662 71.07567726 124.48836136 70.3721199 C124.56106737 60.91357149 122.81629992 55.11271652 116.3122406 48.18138123 C113.03817459 45.1453212 109.68070282 42.31681068 106.07579041 39.6815033 C103.96367859 37.97057768 102.52955423 36.23509429 101 34 C95.96366568 34.38741033 94.15190069 36.57448653 90.9375 40.3125 C89.97788927 41.40725784 89.01555511 42.49963328 88.05078125 43.58984375 C87.55400879 44.15300293 87.05723633 44.71616211 86.54541016 45.29638672 C83.54767945 48.60099412 80.34306225 51.70124552 77.14819336 54.8137207 C73.85616666 58.04921251 70.90352479 61.42074581 68 65 C64.53242222 64.42333499 62.9533644 63.28994833 60.5625 60.75 C59.72912109 59.87601563 59.72912109 59.87601563 58.87890625 58.984375 C58.25886719 58.32953125 57.63882813 57.6746875 57 57 C53.56311774 53.50573765 50.02056258 50.17479665 46.38671875 46.88671875 C37.22579968 38.50601472 28.55394094 29.62540382 19.8125 20.8125 C16.48853573 17.461987 13.16128292 14.11478945 9.83203125 10.76953125 C9.07380569 10.00300735 8.31558014 9.23648346 7.53437805 8.44673157 C6.83572128 7.74477158 6.13706451 7.04281158 5.41723633 6.31958008 C4.80358719 5.70069412 4.18993805 5.08180817 3.55769348 4.44416809 C2.04335641 2.90494909 2.04335641 2.90494909 0 2 C0 1.34 0 0.68 0 0 Z " fill="#030303" transform="translate(106,193)"/>
<path d="M0 0 C5.93807242 4.700974 10.20745399 10.51690828 11.6875 18.0625 C12.56387942 29.46979928 11.35506641 37.89953366 4.0625 46.875 C-1.37907418 52.61098771 -8.31777931 56.55219868 -16.3125 57.0625 C-16.96476562 57.11277344 -17.61703125 57.16304688 -18.2890625 57.21484375 C-27.21416353 57.60906199 -34.77363493 55.81463244 -41.6875 50 C-49.67050434 42.20736937 -52.30073879 33.83425075 -52.75 22.875 C-52.65525366 14.55627101 -49.74546854 8.75248223 -44.12109375 2.70703125 C-30.94205638 -9.53542478 -14.54595816 -10.34795185 0 0 Z " fill="#090909" transform="translate(389.3125,199.9375)"/>
<path d="M0 0 C3.928468 -0.10024553 7.85642234 -0.17210244 11.78588867 -0.21972656 C13.76572908 -0.24930134 15.74521501 -0.30017533 17.72460938 -0.3515625 C28.7128457 -0.46283578 38.08206678 1.15511264 46.27734375 8.9296875 C53.2476414 17.30668922 54.81939577 26.40723144 54 37 C52.3013727 45.2659316 48.42459039 51.56581429 42 57 C33.14642639 62.20220118 24.80815406 62.64103267 14.75 62.3125 C13.40759447 62.28734004 12.06514255 62.26454067 10.72265625 62.24414062 C7.48054876 62.18582934 4.24090707 62.10403939 1 62 C1.16200394 61.28352295 1.32400787 60.5670459 1.49092102 59.82885742 C1.98862767 57.06319394 2.13334545 54.54474769 2.14526367 51.73828125 C2.15164352 50.71371826 2.15802338 49.68915527 2.16459656 48.63354492 C2.16570938 47.5376001 2.1668222 46.44165527 2.16796875 45.3125 C2.17129715 44.17723877 2.17462555 43.04197754 2.17805481 41.87231445 C2.18311113 39.47510177 2.18546354 37.07788207 2.18530273 34.68066406 C2.18749191 31.01355431 2.20566898 27.34674416 2.22460938 23.6796875 C2.22754301 21.34895936 2.22952801 19.0182298 2.23046875 16.6875 C2.23765427 15.59155518 2.24483978 14.49561035 2.25224304 13.36645508 C2.24916641 12.34189209 2.24608978 11.3173291 2.24291992 10.26171875 C2.24505745 8.91533325 2.24505745 8.91533325 2.24723816 7.54174805 C1.97334192 4.72593985 1.16385232 2.56584526 0 0 Z " fill="#090909" transform="translate(540,269)"/>
<path d="M0 0 C4.98041064 -0.09948577 9.96023252 -0.17175686 14.94140625 -0.21972656 C16.63291511 -0.2397406 18.32435567 -0.26696073 20.015625 -0.30175781 C22.45850554 -0.35073065 24.90046511 -0.37307033 27.34375 -0.390625 C28.08991577 -0.41127014 28.83608154 -0.43191528 29.6048584 -0.45318604 C36.38326883 -0.45602981 41.57728258 1.69841845 46.5 6.375 C48.85403074 12.06390762 48.78802145 17.93010507 48 24 C46.47265625 26.93359375 46.47265625 26.93359375 45 29 C45.928125 30.0828125 45.928125 30.0828125 46.875 31.1875 C50.9336387 36.55922769 51.86511313 41.37855717 51 48 C49.05582646 54.65694863 44.56105957 59.06044034 39 63 C35.24151826 64.25282725 31.74509081 64.12381835 27.83203125 64.09765625 C26.63981209 64.09553383 26.63981209 64.09553383 25.42350769 64.09336853 C22.88646675 64.08777378 20.34951425 64.07522228 17.8125 64.0625 C16.09179815 64.05748432 14.37109492 64.05292153 12.65039062 64.04882812 C8.4335597 64.03780607 4.21679484 64.02054506 0 64 C1.875 59.125 1.875 59.125 3 58 C3.10910257 56.36962541 3.14906146 54.73456236 3.16113281 53.10058594 C3.17554413 51.53325714 3.17554413 51.53325714 3.19024658 49.93426514 C3.19449646 48.79580139 3.19874634 47.65733765 3.203125 46.484375 C3.20882507 45.32125793 3.21452515 44.15814087 3.22039795 42.95977783 C3.22986666 40.49158645 3.23638932 38.02338233 3.24023438 35.55517578 C3.24992288 31.78004796 3.28092243 28.00546824 3.3125 24.23046875 C3.31903137 21.83594074 3.32428131 19.44140883 3.328125 17.046875 C3.3466452 15.35132477 3.3466452 15.35132477 3.36553955 13.621521 C3.36253845 12.56402649 3.35953735 11.50653198 3.35644531 10.41699219 C3.36191376 9.02586212 3.36191376 9.02586212 3.36749268 7.60662842 C2.92863176 4.49378448 1.75987998 2.57414521 0 0 Z " fill="#060606" transform="translate(404,193)"/>
<path d="M0 0 C0.66 0 1.32 0 2 0 C2 22.44 2 44.88 2 68 C-4 66 -4 66 -12 62 C-12 53.09 -12 44.18 -12 35 C-14.96130321 37.96130321 -17.77648567 40.79646579 -20.5 43.9375 C-21.08910156 44.61683594 -21.67820312 45.29617187 -22.28515625 45.99609375 C-24.55005324 48.64277292 -26.78317551 51.31294001 -29 54 C-32.93739898 52.46432511 -34.85296408 50.028822 -37.4375 46.75 C-38.17871094 45.81671875 -38.91992188 44.8834375 -39.68359375 43.921875 C-40.44800781 42.95765625 -41.21242188 41.9934375 -42 41 C-43.65601216 38.99082085 -45.32675692 36.99490709 -47 35 C-46.98316162 35.79172607 -46.96632324 36.58345215 -46.94897461 37.39916992 C-46.8986217 40.9963715 -46.91734098 44.59003133 -46.9375 48.1875 C-46.90978516 49.43337891 -46.88207031 50.67925781 -46.85351562 51.96289062 C-46.97398238 60.94971043 -46.97398238 60.94971043 -49.89892578 63.94384766 C-53.91214066 66.25625158 -57.42281058 67.08456212 -62 68 C-62 45.89 -62 23.78 -62 1 C-57.93721418 3.03139291 -55.62241198 5.30627616 -52.6875 8.625 C-52.20039551 9.16697021 -51.71329102 9.70894043 -51.21142578 10.26733398 C-49.80154792 11.83960248 -48.40005606 13.41898787 -47 15 C-46.35417969 15.72058594 -45.70835937 16.44117188 -45.04296875 17.18359375 C-40.19239073 22.64759382 -35.60033735 28.32520744 -31 34 C-27.28213657 32.76071219 -26.44896275 31.32529278 -24.0625 28.25 C-20.50007063 23.77517028 -16.79351926 19.54007502 -12.875 15.375 C-8.71393819 10.950472 -4.865529 6.44552152 -1.3046875 1.51171875 C-0.87414062 1.01285156 -0.44359375 0.51398438 0 0 Z " fill="#0C0C0C" transform="translate(329,189)"/>
<path d="M0 0 C16.83 0 33.66 0 51 0 C51 4.95 51 9.9 51 15 C49.68 14.67 48.36 14.34 47 14 C44.61166853 13.85139192 42.22009126 13.75221573 39.828125 13.68359375 C39.1457074 13.66281265 38.46328979 13.64203156 37.76019287 13.62062073 C35.59022644 13.55547948 33.42014376 13.49640596 31.25 13.4375 C29.77472779 13.39428103 28.29946713 13.35066568 26.82421875 13.30664062 C23.21626834 13.19983482 19.60818867 13.09846847 16 13 C16 16.63 16 20.26 16 24 C24.58 24 33.16 24 42 24 C42 28.62 42 33.24 42 38 C33.42 38 24.84 38 16 38 C16 42.29 16 46.58 16 51 C20.05763739 50.92589957 24.11360639 50.84298913 28.17041016 50.73754883 C29.54952667 50.70435807 30.92877711 50.67630783 32.30810547 50.65356445 C34.29422306 50.61991358 36.27996559 50.56605271 38.265625 50.51171875 C40.05661621 50.47244263 40.05661621 50.47244263 41.88378906 50.43237305 C45.22800247 49.96836475 46.49411405 49.15872382 49 47 C49.66 47 50.32 47 51 47 C51 52.61 51 58.22 51 64 C34.17 64 17.34 64 0 64 C0.99 61.03 0.99 61.03 2 58 C2.29690949 55.19727744 2.29690949 55.19727744 2.25878906 52.31762695 C2.26509338 51.22662186 2.27139771 50.13561676 2.27789307 49.0115509 C2.2738446 47.84887192 2.26979614 46.68619293 2.265625 45.48828125 C2.26753845 44.28310349 2.2694519 43.07792572 2.27142334 41.83622742 C2.27278159 39.29535716 2.26911033 36.75447988 2.26074219 34.21362305 C2.25000987 30.31608614 2.26066437 26.41900724 2.2734375 22.52148438 C2.27211639 20.05208231 2.26955501 17.58268054 2.265625 15.11328125 C2.26967346 13.94452957 2.27372192 12.77577789 2.27789307 11.5716095 C2.27158875 10.49006088 2.26528442 9.40851227 2.25878906 8.29418945 C2.25719788 7.34187943 2.25560669 6.3895694 2.25396729 5.40840149 C2.16087283 2.73822526 2.16087283 2.73822526 0 0 Z " fill="#060606" transform="translate(531,193)"/>
<path d="M0 0 C16.17 0 32.34 0 49 0 C49 4.95 49 9.9 49 15 C47.68 14.34 46.36 13.68 45 13 C41.70779448 12.63305379 41.70779448 12.63305379 38.046875 12.5859375 C37.05654266 12.55688828 37.05654266 12.55688828 36.04620361 12.5272522 C33.94759847 12.46770651 31.84893772 12.42117278 29.75 12.375 C28.3228934 12.33679706 26.89580928 12.29774398 25.46875 12.2578125 C21.97928695 12.16043214 18.49004915 12.08067024 15 12 C15 16.29 15 20.58 15 25 C23.25 25 31.5 25 40 25 C40 29.29 40 33.58 40 38 C31.75 38 23.5 38 15 38 C15 41.63 15 45.26 15 49 C19.03887005 48.90608167 23.07721776 48.79990508 27.11547852 48.68261719 C28.48778581 48.64445712 29.86018871 48.60958204 31.23266602 48.578125 C33.2113229 48.53219318 35.18966442 48.47326363 37.16796875 48.4140625 C38.35672607 48.3826416 39.5454834 48.3512207 40.77026367 48.31884766 C44.39096672 48.11270999 44.39096672 48.11270999 49 46 C49 51.28 49 56.56 49 62 C32.83 62 16.66 62 0 62 C0.33 60.35 0.66 58.7 1 57 C1.08803316 55.17593008 1.12784749 53.34914157 1.12939453 51.52294922 C1.13254669 50.45188934 1.13569885 49.38082947 1.13894653 48.27731323 C1.1369223 47.13134674 1.13489807 45.98538025 1.1328125 44.8046875 C1.13376923 43.62029083 1.13472595 42.43589417 1.13571167 41.21560669 C1.13639135 38.71584012 1.13455184 36.21607176 1.13037109 33.71630859 C1.12501041 29.8824469 1.13032817 26.04870185 1.13671875 22.21484375 C1.13605812 19.78645807 1.13477726 17.35807247 1.1328125 14.9296875 C1.13483673 13.77967255 1.13686096 12.62965759 1.13894653 11.4447937 C1.13579437 10.38003815 1.13264221 9.31528259 1.12939453 8.21826172 C1.12859894 7.28070038 1.12780334 6.34313904 1.12698364 5.37716675 C1.09735261 2.85010302 1.09735261 2.85010302 0 0 Z " fill="#060606" transform="translate(316,269)"/>
<path d="M0 0 C16.5 0 33 0 50 0 C50 5.28 50 10.56 50 16 C46 14 46 14 45 13 C42.78312006 12.84126045 40.56144702 12.74866163 38.33984375 12.68359375 C37.67537735 12.66281265 37.01091095 12.64203156 36.3263092 12.62062073 C34.19681457 12.55506342 32.06719332 12.49621215 29.9375 12.4375 C28.49673153 12.39432061 27.05597601 12.35070651 25.61523438 12.30664062 C22.0769596 12.19937607 18.53854131 12.09812629 15 12 C15 16.29 15 20.58 15 25 C23.25 25 31.5 25 40 25 C40 29.29 40 33.58 40 38 C32.08 38 24.16 38 16 38 C16 41.63 16 45.26 16 49 C20.56273224 48.8609223 25.12511691 48.71256366 29.6875 48.5625 C30.98107422 48.52318359 32.27464844 48.48386719 33.60742188 48.44335938 C34.85458984 48.40146484 36.10175781 48.35957031 37.38671875 48.31640625 C39.10701294 48.26141968 39.10701294 48.26141968 40.86206055 48.20532227 C44.33409273 48.04729807 44.33409273 48.04729807 49 47 C49 51.95 49 56.9 49 62 C33.16 62 17.32 62 1 62 C1.33 60.35 1.66 58.7 2 57 C2.10977578 55.16044845 2.17511609 53.31791831 2.20532227 51.4753418 C2.22526749 50.39459885 2.24521271 49.3138559 2.26576233 48.20036316 C2.28247482 47.0449855 2.29918732 45.88960785 2.31640625 44.69921875 C2.33718735 43.50770706 2.35796844 42.31619537 2.37937927 41.08857727 C2.44468179 37.28827597 2.50367018 33.48790648 2.5625 29.6875 C2.60570356 27.10871695 2.64931844 24.52994076 2.69335938 21.95117188 C2.80034345 15.63418634 2.90214555 9.3171332 3 3 C2.01 2.67 1.02 2.34 0 2 C0 1.34 0 0.68 0 0 Z " fill="#040404" transform="translate(430,269)"/>
<path d="M0 0 C3.44401787 1.62084653 5.60671518 3.42536245 8.25 6.1875 C11.0587808 9.06501117 13.87666256 11.82989001 16.9375 14.4375 C21.12514441 18.01970185 24.95449897 21.92038905 28.80078125 25.86328125 C31.00578065 28.1352713 31.00578065 28.1352713 34 30 C34.05805933 25.75005737 34.09361654 21.50021676 34.125 17.25 C34.14175781 16.0434375 34.15851562 14.836875 34.17578125 13.59375 C34.18222656 12.43359375 34.18867187 11.2734375 34.1953125 10.078125 C34.20578613 9.00981445 34.21625977 7.94150391 34.22705078 6.84082031 C34.15303472 3.68184822 34.15303472 3.68184822 32 0 C37.94 0 43.88 0 50 0 C50 0.99 50 1.98 50 3 C49.34 3 48.68 3 48 3 C48 22.47 48 41.94 48 62 C43.16536912 60.79134228 41.0586765 58.35604841 37.75 54.875 C36.58648129 53.6804909 35.42112546 52.4877684 34.25390625 51.296875 C33.6933252 50.72388672 33.13274414 50.15089844 32.55517578 49.56054688 C29.52808039 46.52299683 26.28121184 43.75621795 23 41 C21.49547059 39.73453226 19.99543158 38.463706 18.5 37.1875 C17.8296875 36.62417969 17.159375 36.06085938 16.46875 35.48046875 C15 34 15 34 15 32 C14.34 32 13.68 32 13 32 C13.10988136 36.25053264 13.24051204 40.50018035 13.375 44.75 C13.4059375 45.9565625 13.436875 47.163125 13.46875 48.40625 C13.50742187 49.56640625 13.54609375 50.7265625 13.5859375 51.921875 C13.63306885 53.52434082 13.63306885 53.52434082 13.68115234 55.15917969 C13.87006341 58.31456161 13.87006341 58.31456161 16 62 C9.73 62 3.46 62 -3 62 C-2.34 60.68 -1.68 59.36 -1 58 C-0.67412437 55.25340875 -0.67412437 55.25340875 -0.68115234 52.22167969 C-0.66128265 51.0607782 -0.64141296 49.89987671 -0.62094116 48.70379639 C-0.60938995 47.45576233 -0.59783875 46.20772827 -0.5859375 44.921875 C-0.56657135 43.64016418 -0.5472052 42.35845337 -0.5272522 41.03790283 C-0.47599373 37.63825635 -0.43633471 34.23857035 -0.39910889 30.83874512 C-0.35902959 27.36635613 -0.30795522 23.89413067 -0.2578125 20.421875 C-0.16112787 13.61470291 -0.07669935 6.8074258 0 0 Z " fill="#050505" transform="translate(486,269)"/>
<path d="M0 0 C1.65515625 -0.02126953 1.65515625 -0.02126953 3.34375 -0.04296875 C6.50572157 0.18791779 8.6059667 0.97717916 11.5 2.1875 C15.31945277 1.85246028 18.77885507 1.11778623 22.5 0.1875 C22.5 6.4575 22.5 12.7275 22.5 19.1875 C18.5 17.1875 18.5 17.1875 16.703125 16.1171875 C9.36331201 12.15368848 1.61421302 12.59825358 -6.5 13.1875 C-8.46822886 15.15572886 -8.16248381 18.53558709 -8.5 21.1875 C-7.89414062 21.36925781 -7.28828125 21.55101562 -6.6640625 21.73828125 C-4.89453797 22.26913861 -3.12640742 22.80465536 -1.359375 23.34375 C0.45358662 23.87872228 2.27621577 24.38271594 4.109375 24.84375 C12.43081997 27.01456173 18.54377696 31.05053883 23.5 38.1875 C25.5075215 42.20254299 25.11032914 46.83303633 24.5 51.1875 C22.13178797 56.38065066 18.95333281 59.49396894 13.6027832 61.62060547 C9.4160558 62.74931568 5.18081092 62.57538184 0.875 62.5 C-0.053125 62.50322266 -0.98125 62.50644531 -1.9375 62.50976562 C-6.62811821 62.47280517 -10.19389815 62.2090669 -14.5 60.1875 C-17.72457063 60.50995706 -20.42734147 61.16328049 -23.5 62.1875 C-23.5 55.9175 -23.5 49.6475 -23.5 43.1875 C-21.72625 44.1775 -19.9525 45.1675 -18.125 46.1875 C-9.75656338 50.09522812 -1.5938731 50.16655052 7.5 49.1875 C8.49 48.5275 9.48 47.8675 10.5 47.1875 C10.17 45.5375 9.84 43.8875 9.5 42.1875 C8.89414062 42.01734375 8.28828125 41.8471875 7.6640625 41.671875 C-13.64801616 35.5077661 -13.64801616 35.5077661 -20.5 27.1875 C-22.92977168 22.08497947 -23.21403059 16.7370542 -22.5 11.1875 C-19.97583865 5.73531149 -16.75399327 3.67623365 -11.5 1.1875 C-7.64487436 0.19933963 -3.9723308 0.02320287 0 0 Z " fill="#0A0A0A" transform="translate(622.5,268.8125)"/>
<path d="M0 0 C4.40586014 2.22208598 8.33052942 5.14913614 12.24609375 8.1328125 C11.68962095 11.54486939 10.77502297 12.96590364 7.99609375 15.0078125 C4.67075693 17.21567361 4.67075693 17.21567361 1.68359375 16.6328125 C-0.00533847 15.5934696 -1.69273684 14.55163166 -3.37890625 13.5078125 C-8.69687205 11.34123384 -14.36290581 11.02949066 -19.87890625 12.82421875 C-25.13591668 15.53203231 -27.92295747 19.63996615 -29.75390625 25.1328125 C-30.29099935 31.47051108 -29.44105728 35.8718775 -25.75390625 41.1328125 C-21.28614521 45.73734173 -17.86781322 47.31892942 -11.50390625 47.5078125 C-5.87898727 47.49591361 -5.87898727 47.49591361 -0.94140625 45.1328125 C2.06447191 41.01046531 1.9738755 39.14642014 1.24609375 34.1328125 C-0.12896724 32.25390816 -0.12896724 32.25390816 -1.75390625 31.1328125 C-1.75390625 30.4728125 -1.75390625 29.8128125 -1.75390625 29.1328125 C3.52609375 29.1328125 8.80609375 29.1328125 14.24609375 29.1328125 C14.24609375 39.3628125 14.24609375 49.5928125 14.24609375 60.1328125 C12.59609375 59.4728125 10.94609375 58.8128125 9.24609375 58.1328125 C4.90916448 56.60902654 2.27390666 57.62201653 -1.7890625 59.34375 C-9.84907014 62.58057215 -17.83710987 61.17422924 -25.75390625 58.1328125 C-32.65997794 54.17146173 -38.18946571 48.26169358 -41.75390625 41.1328125 C-44.02409329 29.89300532 -43.72704513 19.62549919 -37.28125 9.9140625 C-28.41473458 -1.32104924 -13.32342909 -5.03601173 0 0 Z " fill="#090909" transform="translate(411.75390625,270.8671875)"/>
<path d="M0 0 C6.6 0 13.2 0 20 0 C19.34 1.32 18.68 2.64 18 4 C17.67675168 6.29911665 17.67675168 6.29911665 17.68115234 8.76855469 C17.66128265 9.70922791 17.64141296 10.64990112 17.62094116 11.61907959 C17.60361435 13.13021332 17.60361435 13.13021332 17.5859375 14.671875 C17.56657135 15.70942932 17.5472052 16.74698364 17.5272522 17.815979 C17.46751158 21.12723592 17.4210927 24.43852771 17.375 27.75 C17.33681518 29.99610884 17.29776315 32.24220312 17.2578125 34.48828125 C17.16181458 39.99205815 17.07675084 45.49592288 17 51 C20.91751068 50.91909294 24.83346816 50.80625068 28.75 50.6875 C29.86117188 50.66494141 30.97234375 50.64238281 32.1171875 50.61914062 C33.18710937 50.58369141 34.25703125 50.54824219 35.359375 50.51171875 C36.83615723 50.47244263 36.83615723 50.47244263 38.34277344 50.43237305 C41.36114301 49.94123629 42.67958412 48.92185409 45 47 C45.66 47 46.32 47 47 47 C47 52.61 47 58.22 47 64 C32.15 64 17.3 64 2 64 C1.93941406 59.71515625 1.87882812 55.4303125 1.81640625 51.015625 C1.76543035 47.59687956 1.7135125 44.17815132 1.66095734 40.75942993 C1.60575697 37.15182438 1.55221247 33.54421172 1.50268555 29.93652344 C1.45491019 26.46108835 1.40256304 22.98574933 1.34705925 19.51042938 C1.31679173 17.54071081 1.29124654 15.57092152 1.26576233 13.60113525 C1.24581711 12.40019226 1.22587189 11.19924927 1.20532227 9.96191406 C1.18977798 8.90490295 1.1742337 7.84789185 1.15821838 6.7588501 C1.07235819 3.76075559 1.07235819 3.76075559 0 0 Z " fill="#0B0B0B" transform="translate(481,193)"/>
<path d="M0 0 C0 18.81 0 37.62 0 57 C15.86742837 57.22831735 15.86742837 57.22831735 31 54 C31 59.28 31 64.56 31 70 C16.15 70 1.3 70 -14 70 C-14.25217117 61.90950839 -14.49233387 53.8333167 -14.6210022 45.74230194 C-14.68424779 41.97467679 -14.76862847 38.21031849 -14.90527344 34.44458008 C-15.03620765 30.81326428 -15.1075068 27.18510175 -15.13852692 23.55160713 C-15.16061058 22.1697171 -15.20374908 20.78799012 -15.26876068 19.40745354 C-15.46694844 15.02224749 -15.44452782 11.16645178 -14 7 C-10.24510247 3.56741365 -5.29109447 0 0 0 Z " fill="#121212" transform="translate(281,262)"/>
<path d="M0 0 C6.21709947 0.42876548 10.76374609 1.91408668 15.0625 6.5625 C17.54231051 9.78826977 18.46280338 12.11398627 18.625 16.25 C18.72039062 17.0028125 18.81578125 17.755625 18.9140625 18.53125 C19.35023535 23.76532425 18.68237867 26.90202907 15.5625 31.1875 C10.62795971 36.75114503 6.02605365 38.36997415 -1.3125 38.8125 C-6.66879494 38.67172128 -9.75137062 37.49697267 -13.75390625 33.96875 C-18.24855896 29.20333507 -20.07609347 25.35862794 -20.6875 19 C-20.15751342 12.64016106 -17.67034353 8.14111107 -13 3.8125 C-8.7912322 0.50816953 -5.22189724 0.3868072 0 0 Z " fill="#F5F5F5" transform="translate(369.375,205.75)"/>
<path d="M0 0 C6.93 0 13.86 0 21 0 C20.01 1.65 19.02 3.3 18 5 C17.55269681 7.59528904 17.55269681 7.59528904 17.61181641 10.33764648 C17.60235992 11.37900253 17.59290344 12.42035858 17.5831604 13.49327087 C17.59226944 15.1652932 17.59226944 15.1652932 17.6015625 16.87109375 C17.59869232 18.02617935 17.59582214 19.18126495 17.59286499 20.37135315 C17.59082566 22.81145722 17.59634632 25.25157769 17.60888672 27.69165039 C17.62492669 31.42045806 17.60904013 35.14817936 17.58984375 38.87695312 C17.59182649 41.25000239 17.5956708 43.62305097 17.6015625 45.99609375 C17.59548981 47.10875107 17.58941711 48.22140839 17.5831604 49.36778259 C17.59261688 50.4122908 17.60207336 51.45679901 17.61181641 52.53295898 C17.61420319 53.4460936 17.61658997 54.35922821 17.61904907 55.30003357 C17.95296462 58.7005949 17.95296462 58.7005949 21 64 C14.07 64 7.14 64 0 64 C2 59 2 59 3 58 C3.10910257 56.36962541 3.14906146 54.73456236 3.16113281 53.10058594 C3.17554413 51.53325714 3.17554413 51.53325714 3.19024658 49.93426514 C3.19449646 48.79580139 3.19874634 47.65733765 3.203125 46.484375 C3.20882507 45.32125793 3.21452515 44.15814087 3.22039795 42.95977783 C3.22986666 40.49158645 3.23638932 38.02338233 3.24023438 35.55517578 C3.24992288 31.78004796 3.28092243 28.00546824 3.3125 24.23046875 C3.31903137 21.83594074 3.32428131 19.44140883 3.328125 17.046875 C3.3466452 15.35132477 3.3466452 15.35132477 3.36553955 13.621521 C3.36253845 12.56402649 3.35953735 11.50653198 3.35644531 10.41699219 C3.36191376 9.02586212 3.36191376 9.02586212 3.36749268 7.60662842 C3.09005692 4.4139029 3.09005692 4.4139029 0 0 Z " fill="#030303" transform="translate(457,193)"/>
<path d="M0 0 C16.28205128 0 16.28205128 0 21 4 C25.58389184 9.40664166 25.65702164 14.64674665 25.45703125 21.609375 C24.66661882 27.47328946 22.16376646 31.02715411 17.875 34.9375 C11.75242115 38.40696135 8.32218244 37 0 37 C0 24.79 0 12.58 0 0 Z " fill="#FAFAFA" transform="translate(556,282)"/>
<path d="M0 0 C3.40594571 1.70297286 4.98470637 2.74113299 7.54345703 5.33227539 C8.21740509 6.0096022 8.89135315 6.68692902 9.58572388 7.38478088 C10.30251312 8.11502975 11.01930237 8.84527863 11.7578125 9.59765625 C12.87420609 10.72185219 12.87420609 10.72185219 14.01315308 11.86875916 C16.38856426 14.26197634 18.75718009 16.66177368 21.125 19.0625 C23.50082216 21.46591452 25.87807489 23.86786869 28.25827026 26.26695251 C29.73899433 27.7599602 31.21703744 29.25563236 32.69216919 30.75416565 C33.35981293 31.4283403 34.02745667 32.10251495 34.71533203 32.79711914 C35.59658249 33.69074913 35.59658249 33.69074913 36.49563599 34.60243225 C37.96693889 36.10060453 37.96693889 36.10060453 40 37 C40 37.66 40 38.32 40 39 C26.8 39 13.6 39 0 39 C0 26.13 0 13.26 0 0 Z " fill="#0F0F0F" transform="translate(89,324)"/>
<path d="M0 0 C12.54 0 25.08 0 38 0 C38 12.54 38 25.08 38 38 C34.59608046 36.86536015 33.6261039 35.41554647 31.453125 32.6796875 C29.41630597 30.32529992 27.08448011 28.42330165 24.6953125 26.4375 C22.3226152 24.42562763 20.16990732 22.22701015 18 20 C17.21625 19.236875 16.4325 18.47375 15.625 17.6875 C13.50136456 15.51330181 11.53314401 13.30846869 9.5625 11 C7.37189105 8.4538975 5.18872593 6.21854803 2.5625 4.125 C1.716875 3.42375 0.87125 2.7225 0 2 C0 1.34 0 0.68 0 0 Z " fill="#050505" transform="translate(217,193)"/>
<path d="M0 0 C0.94101562 0.00322266 1.88203125 0.00644531 2.8515625 0.00976562 C3.83640625 0.01814453 4.82125 0.02652344 5.8359375 0.03515625 C6.82851563 0.03966797 7.82109375 0.04417969 8.84375 0.04882812 C11.2995391 0.0606348 13.75520854 0.07710225 16.2109375 0.09765625 C16.2109375 0.42765625 16.2109375 0.75765625 16.2109375 1.09765625 C9.6109375 1.09765625 3.0109375 1.09765625 -3.7890625 1.09765625 C-3.1290625 2.41765625 -2.4690625 3.73765625 -1.7890625 5.09765625 C-1.54855347 7.85650635 -1.54855347 7.85650635 -1.56201172 11.05957031 C-1.56216278 12.26051331 -1.56231384 13.4614563 -1.56246948 14.6987915 C-1.57279205 15.99057312 -1.58311462 17.28235474 -1.59375 18.61328125 C-1.59748216 19.95277698 -1.60032818 21.29227546 -1.60232544 22.6317749 C-1.60994593 26.1499389 -1.62958063 29.66793665 -1.6517334 33.18603516 C-1.67222607 36.77894848 -1.68133446 40.37188878 -1.69140625 43.96484375 C-1.71282816 51.00918242 -1.74694485 58.05340846 -1.7890625 65.09765625 C-2.7790625 65.59265625 -2.7790625 65.59265625 -3.7890625 66.09765625 C-4.2840625 65.10765625 -4.2840625 65.10765625 -4.7890625 64.09765625 C-5.1190625 64.75765625 -5.4490625 65.41765625 -5.7890625 66.09765625 C-13.3790625 66.09765625 -20.9690625 66.09765625 -28.7890625 66.09765625 C-28.2940625 65.10765625 -28.2940625 65.10765625 -27.7890625 64.09765625 C-21.1890625 64.09765625 -14.5890625 64.09765625 -7.7890625 64.09765625 C-9.2740625 61.62265625 -9.2740625 61.62265625 -10.7890625 59.09765625 C-11.17674255 56.51794434 -11.17674255 56.51794434 -11.19311523 53.74414062 C-11.20579941 52.69955688 -11.21848358 51.65497314 -11.23155212 50.57873535 C-11.22861649 49.46091675 -11.22568085 48.34309814 -11.22265625 47.19140625 C-11.2278981 46.03394897 -11.23313995 44.8764917 -11.23854065 43.68395996 C-11.24495683 41.23967287 -11.24362912 38.79535488 -11.23510742 36.35107422 C-11.22659309 32.61109509 -11.25537422 28.87264097 -11.28710938 25.1328125 C-11.28872137 22.75651087 -11.28814389 20.38020654 -11.28515625 18.00390625 C-11.29639023 16.88608765 -11.30762421 15.76826904 -11.31919861 14.61657715 C-11.24959778 6.86641451 -11.24959778 6.86641451 -8.88305664 2.91601562 C-5.75197876 0.19708499 -4.06170624 -0.02446811 0 0 Z " fill="#F4F4F4" transform="translate(484.7890625,191.90234375)"/>
<path d="M0 0 C13.33597682 -0.3704438 13.33597682 -0.3704438 16.4296875 1.35546875 C18 3 18 3 18.375 5.5 C18 8 18 8 16 11 C16.99 11.33 17.98 11.66 19 12 C19.375 14.75 19.375 14.75 19 18 C15.96059777 21.29992242 14.19312794 21.91224919 9.70703125 22.2421875 C6.47035494 22.24924677 3.23399126 22.13199964 0 22 C0 14.74 0 7.48 0 0 Z " fill="#131313" transform="translate(447,341)"/>
<path d="M0 0 C14.46428571 -0.26785714 14.46428571 -0.26785714 18 2 C18.25 7.625 18.25 7.625 16 11 C16.66 11 17.32 11 18 11 C18.75 13.75 18.75 13.75 19 17 C17.15858081 19.34939689 15.6600106 20.6699947 13 22 C8.66396021 22.1393329 4.33919329 22.04254111 0 22 C0 14.74 0 7.48 0 0 Z " fill="#171717" transform="translate(268,341)"/>
<path d="M0 0 C2.31 0 4.62 0 7 0 C8.99609375 2.1875 8.99609375 2.1875 10.4375 5 C11.17806641 6.3921875 11.17806641 6.3921875 11.93359375 7.8125 C12.28550781 8.534375 12.63742187 9.25625 13 10 C13.33 6.7 13.66 3.4 14 0 C15.98 0 17.96 0 20 0 C20 7.26 20 14.52 20 22 C17.36 22 14.72 22 12 22 C10.35 18.7 8.7 15.4 7 12 C6.67 15.3 6.34 18.6 6 22 C4.02 22 2.04 22 0 22 C0 14.74 0 7.48 0 0 Z " fill="#212121" transform="translate(340,341)"/>
<path d="M0 0 C2.51625 -0.103125 5.0325 -0.20625 7.625 -0.3125 C8.79603271 -0.38078003 8.79603271 -0.38078003 9.99072266 -0.45043945 C13.90291991 -0.52741211 16.35226425 -0.15360605 19.48046875 2.30078125 C22 5 22 5 22.6875 8.5 C21.80895636 12.97258578 20.60504802 14.24237236 17 17 C14.0263566 17.59204744 11.20393596 17.47557399 8.1875 17.3125 C4.1346875 17.1578125 4.1346875 17.1578125 0 17 C0 11.39 0 5.78 0 0 Z " fill="#F5F5F5" transform="translate(420,228)"/>
<path d="M0 0 C2.31 0 4.62 0 7 0 C8.99609375 2.1875 8.99609375 2.1875 10.4375 5 C11.17806641 6.3921875 11.17806641 6.3921875 11.93359375 7.8125 C12.28550781 8.534375 12.63742187 9.25625 13 10 C13.33 6.7 13.66 3.4 14 0 C15.65 0 17.3 0 19 0 C19 6.93 19 13.86 19 21 C16.69 21 14.38 21 12 21 C10.35 18.03 8.7 15.06 7 12 C6.67 15.3 6.34 18.6 6 22 C4.02 22 2.04 22 0 22 C0 14.74 0 7.48 0 0 Z " fill="#202020" transform="translate(519,341)"/>
<path d="M0 0 C2.64 0 5.28 0 8 0 C15 15.4 15 15.4 15 22 C12.69 22.33 10.38 22.66 8 23 C8 21.02 8 19.04 8 17 C5.36 17 2.72 17 0 17 C-0.33 18.65 -0.66 20.3 -1 22 C-2.98 22 -4.96 22 -7 22 C-5.83107109 14.1140915 -3.26456103 7.25181115 0 0 Z " fill="#212121" transform="translate(488,341)"/>
<path d="M0 0 C2.64 0 5.28 0 8 0 C11.23566518 7.08764753 13.55492286 14.33836462 15 22 C13.02 22 11.04 22 9 22 C8.67 20.35 8.34 18.7 8 17 C5.36 17 2.72 17 0 17 C-0.33 18.65 -0.66 20.3 -1 22 C-2.98 22 -4.96 22 -7 22 C-5.83107109 14.1140915 -3.26456103 7.25181115 0 0 Z " fill="#0C0C0C" transform="translate(309,341)"/>
<path d="M0 0 C3.31539761 0.70610798 5.15318162 1.9397796 7.34765625 4.5 C7.34765625 5.49 7.34765625 6.48 7.34765625 7.5 C4.97265625 7.625 4.97265625 7.625 2.34765625 7.5 C1.68765625 6.84 1.02765625 6.18 0.34765625 5.5 C-2.15234375 5.16666667 -2.15234375 5.16666667 -4.65234375 5.5 C-7.02433332 7.43602047 -7.02433332 7.43602047 -6.90234375 10.9375 C-6.94044022 14.60420618 -6.94044022 14.60420618 -4.65234375 17.5 C-2.06854198 17.75030977 -2.06854198 17.75030977 0.34765625 17.5 C0.67765625 16.84 1.00765625 16.18 1.34765625 15.5 C0.02765625 15.17 -1.29234375 14.84 -2.65234375 14.5 C-2.65234375 13.18 -2.65234375 11.86 -2.65234375 10.5 C0.97765625 10.5 4.60765625 10.5 8.34765625 10.5 C8.11041644 14.5330768 7.65251221 17.03779902 5.41015625 20.4375 C1.64930168 22.97032042 -0.80635548 23.27278411 -5.2734375 23.06640625 C-9.33002881 22.10055118 -10.49902869 19.9730888 -12.65234375 16.5 C-14.25361449 13.29745853 -14.05935982 11.04685436 -13.65234375 7.5 C-10.61039027 1.29585772 -6.76682727 -0.48990605 0 0 Z " fill="#161616" transform="translate(389.65234375,340.5)"/>
<path d="M0 0 C3.31539761 0.70610798 5.15318162 1.9397796 7.34765625 4.5 C7.34765625 5.49 7.34765625 6.48 7.34765625 7.5 C5.36765625 7.5 3.38765625 7.5 1.34765625 7.5 C1.34765625 6.84 1.34765625 6.18 1.34765625 5.5 C-1.56886549 5.33318891 -1.56886549 5.33318891 -4.65234375 5.5 C-6.8093989 7.2564331 -6.8093989 7.2564331 -6.91796875 9.375 C-6.9128125 10.07625 -6.90765625 10.7775 -6.90234375 11.5 C-6.9075 12.20125 -6.91265625 12.9025 -6.91796875 13.625 C-6.8093989 15.7435669 -6.8093989 15.7435669 -4.65234375 17.5 C-2.06880157 17.66687448 -2.06880157 17.66687448 0.34765625 17.5 C0.67765625 16.51 1.00765625 15.52 1.34765625 14.5 C0.02765625 14.5 -1.29234375 14.5 -2.65234375 14.5 C-2.65234375 13.18 -2.65234375 11.86 -2.65234375 10.5 C0.97765625 10.5 4.60765625 10.5 8.34765625 10.5 C7.89492053 15.366909 6.70240561 17.9419325 3.34765625 21.5 C0.14151778 23.10306924 -3.17374372 22.98740461 -6.65234375 22.5 C-10.09186523 20.40637823 -12.4326255 18.38092169 -13.65234375 14.5 C-14.33251516 9.99386439 -13.9003949 7.22291602 -11.27734375 3.5625 C-7.86366759 -0.03767153 -4.82320595 -0.34919138 0 0 Z " fill="#151515" transform="translate(568.65234375,340.5)"/>
<path d="M0 0 C14.72603431 -0.27270434 14.72603431 -0.27270434 18 2 C19.42041821 4.84083641 19.31452272 6.85477278 19 10 C17.46484375 12.1796875 17.46484375 12.1796875 15 14 C12.26317029 14.2911521 9.96059961 14.38322418 7.25 14.25 C6.55261719 14.23195312 5.85523438 14.21390625 5.13671875 14.1953125 C3.42388461 14.14838554 1.71176176 14.07664605 0 14 C0 9.38 0 4.76 0 0 Z " fill="#F5F5F5" transform="translate(420,203)"/>
<path d="M0 0 C4.29238623 1.65091778 6.8793915 4.73754566 10 8 C8.34908222 12.29238623 5.26245434 14.8793915 2 18 C-2.29238623 16.34908222 -4.8793915 13.26245434 -8 10 C-6.34908222 5.70761377 -3.26245434 3.1206085 0 0 Z " fill="#101010" transform="translate(368,216)"/>
<path d="M0 0 C3.96 0 7.92 0 12 0 C12 0.99 12 1.98 12 3 C9.69 3 7.38 3 5 3 C5 4.65 5 6.3 5 8 C6.98 7.67 8.96 7.34 11 7 C11.33 6.01 11.66 5.02 12 4 C12.66 4 13.32 4 14 4 C13.835 4.598125 13.67 5.19625 13.5 5.8125 C12.8885876 8.11344336 12.8885876 8.11344336 13 11 C10.13822943 12.43088528 8.06624227 11.59991697 5 11 C5 12.98 5 14.96 5 17 C8.96 16.505 8.96 16.505 13 16 C12.67 17.32 12.34 18.64 12 20 C8.04 20 4.08 20 0 20 C0 13.4 0 6.8 0 0 Z " fill="#040404" transform="translate(448,342)"/>
<path d="M0 0 C0.99 0.33 1.98 0.66 3 1 C3.25 6.625 3.25 6.625 1 10 C1.66 10 2.32 10 3 10 C3.75 12.75 3.75 12.75 4 16 C2.1875 18.375 2.1875 18.375 0 20 C-0.66 20 -1.32 20 -2 20 C-2 18.68 -2 17.36 -2 16 C-2.33 16.33 -2.66 16.66 -3 17 C-4.99958364 17.04080783 -7.00045254 17.04254356 -9 17 C-9 15.02 -9 13.04 -9 11 C-7.02 10.67 -5.04 10.34 -3 10 C-3 9.34 -3 8.68 -3 8 C-4.98 8 -6.96 8 -9 8 C-9 6.35 -9 4.7 -9 3 C-4.545 2.505 -4.545 2.505 0 2 C0 1.34 0 0.68 0 0 Z M-2 8 C-1.67 8.66 -1.34 9.32 -1 10 C-0.67 9.34 -0.34 8.68 0 8 C-0.66 8 -1.32 8 -2 8 Z M-1 13 C0 15 0 15 0 15 Z " fill="#181818" transform="translate(283,342)"/>
<path d="M0 0 C2.31 0 4.62 0 7 0 C9.09350689 3.4019487 9.17942163 6.05272412 9 10 C6.525 9.01 6.525 9.01 4 8 C4 11.96 4 15.92 4 20 C2.68 20 1.36 20 0 20 C0 13.4 0 6.8 0 0 Z " fill="#050505" transform="translate(520,342)"/>
<path d="M0 0 C0 20.13 0 40.26 0 61 C-0.33 61 -0.66 61 -1 61 C-1.33 42.19 -1.66 23.38 -2 4 C-2.99 5.32 -3.98 6.64 -5 8 C-5.97753644 9.02196992 -6.9805881 10.01979625 -8 11 C-9.051875 12.11375 -9.051875 12.11375 -10.125 13.25 C-13.85231997 16.81526258 -17.88926246 19.89231824 -22 23 C-22.66 22.67 -23.32 22.34 -24 22 C-23.55197021 21.58226318 -23.10394043 21.16452637 -22.64233398 20.73413086 C-20.57285496 18.80320328 -18.50517147 16.87036294 -16.4375 14.9375 C-15.73302734 14.28072266 -15.02855469 13.62394531 -14.30273438 12.94726562 C-10.22300972 9.13074901 -6.22664614 5.25823456 -2.33227539 1.25219727 C-1 0 -1 0 0 0 Z " fill="#252525" transform="translate(205,263)"/>
<path d="M0 0 C0.66 0.66 1.32 1.32 2 2 C5.08347826 2.16681109 5.08347826 2.16681109 8 2 C8 3.32 8 4.64 8 6 C4.37 6 0.74 6 -3 6 C-3 7.32 -3 8.64 -3 10 C-1.35 10 0.3 10 2 10 C1.34 11.32 0.68 12.64 0 14 C-2.3125 14.25 -2.3125 14.25 -5 14 C-7.77334669 11.60918389 -7.98943126 10.100403 -8.375 6.4375 C-8 3 -8 3 -6.8125 1.0625 C-4.37896796 -0.36405327 -2.77457104 -0.35571424 0 0 Z " fill="#E1E1E1" transform="translate(390,345)"/>
<path d="M0 0 C0 0.66 0 1.32 0 2 C1.98 2 3.96 2 6 2 C6.33 1.34 6.66 0.68 7 0 C7 1.65 7 3.3 7 5 C3.37 5 -0.26 5 -4 5 C-4 6.32 -4 7.64 -4 9 C-2.68 9 -1.36 9 0 9 C-0.33 10.32 -0.66 11.64 -1 13 C-3.6664882 13.21620175 -5.44004321 13.30894168 -7.8125 12 C-9.71268416 8.79968983 -9.54198263 5.6207451 -9 2 C-6.78818464 -2.05499484 -4.05480137 -0.99117367 0 0 Z " fill="#C6C6C6" transform="translate(570,346)"/>
<path d="M0 0 C0.66 0 1.32 0 2 0 C2.99 2.31 3.98 4.62 5 7 C6.32 6.67 7.64 6.34 9 6 C9.50615298 7.26839526 10.00469099 8.53983102 10.5 9.8125 C10.7784375 10.52019531 11.056875 11.22789062 11.34375 11.95703125 C12 14 12 14 12 17 C10.02 17 8.04 17 6 17 C5.67 15.35 5.34 13.7 5 12 C2.36 12 -0.28 12 -3 12 C-3 11.67 -3 11.34 -3 11 C-1.02 10.67 0.96 10.34 3 10 C3 9.67 3 9.34 3 9 C1.35 8.67 -0.3 8.34 -2 8 C-1.34 5.36 -0.68 2.72 0 0 Z " fill="#252525" transform="translate(312,346)"/>
<path d="M0 0 C13.75 -0.125 13.75 -0.125 16 1 C14.66666667 3.66666667 13.33333333 6.33333333 12 9 C10.02 9 8.04 9 6 9 C6 7.35 6 5.7 6 4 C7.98 3.67 9.96 3.34 12 3 C12 2.67 12 2.34 12 2 C8.37 1.67 4.74 1.34 1 1 C1 7.6 1 14.2 1 21 C4.96 21 8.92 21 13 21 C13 21.33 13 21.66 13 22 C8.71 22 4.42 22 0 22 C0 14.74 0 7.48 0 0 Z " fill="#5A5A5A" transform="translate(447,341)"/>
<path d="M0 0 C1.32 0.66 2.64 1.32 4 2 C3.34 2.66 2.68 3.32 2 4 C1.66767316 6.71034638 1.66767316 6.71034638 1.68115234 9.91845703 C1.66128265 11.15959259 1.64141296 12.40072815 1.62094116 13.67947388 C1.60906389 15.03891827 1.59740108 16.39836455 1.5859375 17.7578125 C1.56723271 19.14502118 1.54765981 20.5322184 1.5272522 21.91940308 C1.47585188 25.57225804 1.43626875 29.22514994 1.39910889 32.87817383 C1.35911852 36.60507397 1.30800361 40.33181949 1.2578125 44.05859375 C1.16095981 51.37228988 1.07658525 58.6860606 1 66 C0.34 65.67 -0.32 65.34 -1 65 C-0.67 43.55 -0.34 22.1 0 0 Z " fill="#303030" transform="translate(141,264)"/>
<path d="M0 0 C3.63 0 7.26 0 11 0 C10.56802365 4.7517398 9.67230705 6.92000054 6 10 C5.01 9.67 4.02 9.34 3 9 C3.33 7.35 3.66 5.7 4 4 C2.68 4 1.36 4 0 4 C0 2.68 0 1.36 0 0 Z " fill="#0F0F0F" transform="translate(566,351)"/>
<path d="M0 0 C0.99 0.33 1.98 0.66 3 1 C3 2.98 3 4.96 3 7 C2.195625 7.12375 1.39125 7.2475 0.5625 7.375 C-0.7059375 7.684375 -0.7059375 7.684375 -2 8 C-2.33 8.66 -2.66 9.32 -3 10 C-3 9.34 -3 8.68 -3 8 C-4.98 8 -6.96 8 -9 8 C-9 6.35 -9 4.7 -9 3 C-4.545 2.505 -4.545 2.505 0 2 C0 1.34 0 0.68 0 0 Z " fill="#181818" transform="translate(283,342)"/>
<path d="M0 0 C16.5 0 33 0 50 0 C50 5.28 50 10.56 50 16 C49.34 15.67 48.68 15.34 48 15 C48.33 10.38 48.66 5.76 49 1 C46.93335083 1.04543945 46.93335083 1.04543945 44.82495117 1.09179688 C39.72046618 1.20394306 34.61597187 1.31565994 29.51147461 1.42724609 C27.30086006 1.47563119 25.09024806 1.52413323 22.87963867 1.57275391 C19.70492199 1.64255921 16.53019641 1.71194605 13.35546875 1.78125 C12.36475876 1.80312378 11.37404877 1.82499756 10.35331726 1.84753418 C9.43258926 1.86755493 8.51186127 1.88757568 7.56323242 1.90820312 C6.34744759 1.93485046 6.34744759 1.93485046 5.10710144 1.96203613 C3.40496351 1.99270373 1.70241418 2 0 2 C0 1.34 0 0.68 0 0 Z " fill="#3C3C3C" transform="translate(430,269)"/>
<path d="M0 0 C0.99 0 1.98 0 3 0 C3.66 2.97 4.32 5.94 5 9 C4.34 9 3.68 9 3 9 C2.01 10.485 2.01 10.485 1 12 C-1.625 12.1875 -1.625 12.1875 -4 12 C-4.33 11.01 -4.66 10.02 -5 9 C-3.68 9 -2.36 9 -1 9 C-1.20625 7.88625 -1.4125 6.7725 -1.625 5.625 C-1.74875 4.42875 -1.8725 3.2325 -2 2 C-1.34 1.34 -0.68 0.68 0 0 Z " fill="#0D0D0D" transform="translate(495,345)"/>
<path d="M0 0 C0.33 0.66 0.66 1.32 1 2 C1.99 2 2.98 2 4 2 C4.66 4.97 5.32 7.94 6 11 C3.69 11.33 1.38 11.66 -1 12 C-1.14285714 3.42857143 -1.14285714 3.42857143 0 0 Z " fill="#292929" transform="translate(497,352)"/>
<path d="M0 0 C2.64 0 5.28 0 8 0 C11.57142857 7.28571429 11.57142857 7.28571429 10 12 C9.01 12.33 8.02 12.66 7 13 C5.4528781 10.5428064 4.95515598 9.367721 5.3125 6.4375 C5.82767121 4.61098388 6.39986981 2.80039058 7 1 C4.69 1 2.38 1 0 1 C0 0.67 0 0.34 0 0 Z " fill="#1E1E1E" transform="translate(309,341)"/>
<path d="M0 0 C16.17 0 32.34 0 49 0 C49 0.33 49 0.66 49 1 C42.50383484 1.14287256 36.0076587 1.28523716 29.51147461 1.42724609 C27.30086006 1.47563119 25.09024806 1.52413323 22.87963867 1.57275391 C19.70492199 1.64255921 16.53019641 1.71194605 13.35546875 1.78125 C12.36475876 1.80312378 11.37404877 1.82499756 10.35331726 1.84753418 C9.43258926 1.86755493 8.51186127 1.88757568 7.56323242 1.90820312 C6.34744759 1.93485046 6.34744759 1.93485046 5.10710144 1.96203613 C3.40496351 1.99270373 1.70241418 2 0 2 C0 1.34 0 0.68 0 0 Z " fill="#1F1F1F" transform="translate(316,269)"/>
<path d="M0 0 C1.15941038 3.47823115 0.70820884 5.45895578 0 9 C1.65 9 3.3 9 5 9 C4.67 10.32 4.34 11.64 4 13 C1.625 13.125 1.625 13.125 -1 13 C-3 11 -3 11 -3.3125 7.625 C-2.99258956 3.9140389 -2.5224581 2.62756052 0 0 Z " fill="#E2E2E2" transform="translate(565,346)"/>
<path d="M0 0 C3.63 0 7.26 0 11 0 C11 1.32 11 2.64 11 4 C9 5 7 6 5 7 C5 6.01 5 5.02 5 4 C3.35 4 1.7 4 0 4 C0 2.68 0 1.36 0 0 Z " fill="#0D0D0D" transform="translate(387,351)"/>
<path d="M0 0 C0.99 0 1.98 0 3 0 C1.89821095 2.20357811 0.77385435 3.28949759 -1 5 C-1.70125 5.7425 -2.4025 6.485 -3.125 7.25 C-6.85231997 10.81526258 -10.88926246 13.89231824 -15 17 C-15.66 16.67 -16.32 16.34 -17 16 C-16.52054932 15.55084229 -16.04109863 15.10168457 -15.54711914 14.63891602 C-13.38541794 12.6136163 -11.22395592 10.58806149 -9.0625 8.5625 C-7.93038086 7.50192383 -7.93038086 7.50192383 -6.77539062 6.41992188 C-6.05673828 5.74638672 -5.33808594 5.07285156 -4.59765625 4.37890625 C-3.93258057 3.7557251 -3.26750488 3.13254395 -2.58227539 2.49047852 C-1.71180457 1.6705087 -0.8455974 0.8455974 0 0 Z " fill="#1F1F1F" transform="translate(198,269)"/>
<path d="M0 0 C0.99 1.32 1.98 2.64 3 4 C1.02 6.31 -0.96 8.62 -3 11 C-4.32 10.34 -5.64 9.68 -7 9 C-4.89307719 5.83961578 -2.69500782 2.69500782 0 0 Z " fill="#121212" transform="translate(303,232)"/>
<path d="M0 0 C2.31 0 4.62 0 7 0 C7 3 7 3 5.46875 4.60546875 C4.8190625 5.12753906 4.169375 5.64960938 3.5 6.1875 C2.8503125 6.71730469 2.200625 7.24710937 1.53125 7.79296875 C1.0259375 8.19128906 0.520625 8.58960938 0 9 C0 6 0 3 0 0 Z " fill="#F3F3F3" transform="translate(177,280)"/>
<path d="M0 0 C-0.38520564 2.53910197 -0.70097943 3.72751123 -2.62890625 5.484375 C-3.26699219 5.90203125 -3.90507812 6.3196875 -4.5625 6.75 C-5.20316406 7.17796875 -5.84382813 7.6059375 -6.50390625 8.046875 C-7.24447266 8.51867187 -7.24447266 8.51867187 -8 9 C-8.66 7.68 -9.32 6.36 -10 5 C-4.03225806 0 -4.03225806 0 0 0 Z " fill="#141414" transform="translate(424,279)"/>
<path d="M0 0 C2.5625 2.1875 2.5625 2.1875 5 5 C4.8125 7.8125 4.8125 7.8125 4 10 C2.02 10 0.04 10 -2 10 C-1.34 6.7 -0.68 3.4 0 0 Z " fill="#2C2C2C" transform="translate(304,353)"/>
<path d="M0 0 C1.98 0 3.96 0 6 0 C6.38218767 1.65614657 6.71395102 3.32457024 7 5 C6 6 6 6 2.9375 6.0625 C1.4834375 6.0315625 1.4834375 6.0315625 0 6 C0 4.02 0 2.04 0 0 Z " fill="#CCCCCC" transform="translate(453,353)"/>
<path d="M0 0 C1.98 0 3.96 0 6 0 C6.38218767 1.65614657 6.71395102 3.32457024 7 5 C6 6 6 6 2.9375 6.0625 C1.4834375 6.0315625 1.4834375 6.0315625 0 6 C0 4.02 0 2.04 0 0 Z " fill="#C9C9C9" transform="translate(274,353)"/>
<path d="M0 0 C2.31 0.66 4.62 1.32 7 2 C6.34 3.32 5.68 4.64 5 6 C6.32 6.66 7.64 7.32 9 8 C8.01 9.485 8.01 9.485 7 11 C4.03 8.03 1.06 5.06 -2 2 C-1.34 1.34 -0.68 0.68 0 0 Z " fill="#DADADA" transform="translate(211,327)"/>
<path d="M0 0 C0.66 0 1.32 0 2 0 C3.38232443 1.62626404 4.71937515 3.2925002 6 5 C4.68 5 3.36 5 2 5 C1.67 11.93 1.34 18.86 1 26 C0.67 26 0.34 26 0 26 C0 17.42 0 8.84 0 0 Z " fill="#CCCCCC" transform="translate(499,301)"/>
<path d="M0 0 C2.64 0.33 5.28 0.66 8 1 C8 1.99 8 2.98 8 4 C1.375 5.125 1.375 5.125 -2 4 C-1.34 2.68 -0.68 1.36 0 0 Z " fill="#030303" transform="translate(307,353)"/>
<path d="M0 0 C1.32 1.32 2.64 2.64 4 4 C3.01 4 2.02 4 1 4 C1 11.92 1 19.84 1 28 C0.67 28 0.34 28 0 28 C0 18.76 0 9.52 0 0 Z " fill="#DBDBDB" transform="translate(281,223)"/>
<path d="M0 0 C9.57 0 19.14 0 29 0 C29 0.33 29 0.66 29 1 C24.72920293 1.1676046 20.45835675 1.33392359 16.1875 1.5 C14.97255859 1.54769531 13.75761719 1.59539062 12.50585938 1.64453125 C11.34248047 1.68964844 10.17910156 1.73476563 8.98046875 1.78125 C7.90692139 1.82314453 6.83337402 1.86503906 5.72729492 1.90820312 C3.81903204 1.97243254 1.90934351 2 0 2 C0 1.34 0 0.68 0 0 Z " fill="#252525" transform="translate(540,269)"/>
<path d="M0 0 C1.98 0 3.96 0 6 0 C6 1.65 6 3.3 6 5 C4.02 5 2.04 5 0 5 C0 3.35 0 1.7 0 0 Z " fill="#C3C3C3" transform="translate(274,345)"/>
<path d="M0 0 C2.31 0.33 4.62 0.66 7 1 C7.33 2.32 7.66 3.64 8 5 C4.37 5 0.74 5 -3 5 C-2.34 4.67 -1.68 4.34 -1 4 C-0.34786708 1.97536745 -0.34786708 1.97536745 0 0 Z " fill="#BDBDBD" transform="translate(390,346)"/>
<path d="M0 0 C1.65 0.99 3.3 1.98 5 3 C4.34 4.32 3.68 5.64 3 7 C0 6 0 6 -1.1875 3.9375 C-1.5896875 2.9784375 -1.5896875 2.9784375 -2 2 C-1.34 1.34 -0.68 0.68 0 0 Z " fill="#E4E4E4" transform="translate(297,217)"/>
<path d="M0 0 C2.64 0 5.28 0 8 0 C7.01 0.495 7.01 0.495 6 1 C5.34786708 3.02463255 5.34786708 3.02463255 5 5 C4.67 4.34 4.34 3.68 4 3 C2.35 3.33 0.7 3.66 -1 4 C-0.67 2.68 -0.34 1.36 0 0 Z " fill="#F3F3F3" transform="translate(309,358)"/>
<path d="M0 0 C2.34058637 2.12780579 3.70700306 4.11562221 5 7 C4.01 7.33 3.02 7.66 2 8 C0.68 6.68 -0.64 5.36 -2 4 C-1.34 2.68 -0.68 1.36 0 0 Z " fill="#121212" transform="translate(287,224)"/>
<path d="M0 0 C0.99 1.32 1.98 2.64 3 4 C2.67 4.66 2.34 5.32 2 6 C1.34 5.67 0.68 5.34 0 5 C0 3.35 0 1.7 0 0 Z M-2 2 C-0.25372522 4.61941217 0.38722388 6.03824877 1 9 C0.01 9.495 0.01 9.495 -1 10 C-1.73080266 8.02253397 -2.39421747 6.01927511 -3 4 C-2.67 3.34 -2.34 2.68 -2 2 Z " fill="#202020" transform="translate(529,347)"/>
<path d="M0 0 C1.32342458 3.97027374 0.36639254 6.11656858 -1 10 C-1.99 10.495 -1.99 10.495 -3 11 C-3.36923077 4.6 -3.36923077 4.6 -1.5 1.5625 C-1.005 1.046875 -0.51 0.53125 0 0 Z " fill="#F8F8F8" transform="translate(565,346)"/>
<path d="M0 0 C1.98 0 3.96 0 6 0 C6 1.32 6 2.64 6 4 C4.02 4 2.04 4 0 4 C0 2.68 0 1.36 0 0 Z " fill="#D6D6D6" transform="translate(453,346)"/>
<path d="M0 0 C1.98 0.495 1.98 0.495 4 1 C4 1.66 4 2.32 4 3 C4.66 3 5.32 3 6 3 C6.33 3.99 6.66 4.98 7 6 C6.01 6.495 6.01 6.495 5 7 C3.02 5.35 1.04 3.7 -1 2 C-0.67 1.34 -0.34 0.68 0 0 Z " fill="#E2E2E2" transform="translate(496,275)"/>
<path d="M0 0 C2.72426311 2.35277269 3.8141763 4.62496331 5 8 C3.35 7.67 1.7 7.34 0 7 C0 4.69 0 2.38 0 0 Z " fill="#E8E8E8" transform="translate(525,352)"/>
<path d="M0 0 C0.33 0 0.66 0 1 0 C1 3.63 1 7.26 1 11 C-1.52588702 8.63707344 -2.88820837 7.33537489 -4 4 C-3.01 4 -2.02 4 -1 4 C-0.67 2.68 -0.34 1.36 0 0 Z " fill="#E8E8E8" transform="translate(353,341)"/>
<path d="M0 0 C1.5 1.375 1.5 1.375 3 3 C3 3.66 3 4.32 3 5 C1.02 5.99 1.02 5.99 -1 7 C-3 5 -3 5 -4 3 C-2.68 2.01 -1.36 1.02 0 0 Z " fill="#F1F1F1" transform="translate(539,269)"/>
<path d="M0 0 C0.66 0 1.32 0 2 0 C2 0.99 2 1.98 2 3 C2.99 3.33 3.98 3.66 5 4 C4.67 4.99 4.34 5.98 4 7 C2.02 6.01 0.04 5.02 -2 4 C-1.34 2.68 -0.68 1.36 0 0 Z " fill="#EFEFEF" transform="translate(487,265)"/>
<path d="M0 0 C1 3 1 3 0 6 C-0.66 6 -1.32 6 -2 6 C-2.33 6.99 -2.66 7.98 -3 9 C-4.32 8.67 -5.64 8.34 -7 8 C-4.69 5.36 -2.38 2.72 0 0 Z " fill="#D6D6D6" transform="translate(452,246)"/>
<path d="M0 0 C2.00720923 0.28674418 4.0085944 0.61866701 6 1 C6.33 1.99 6.66 2.98 7 4 C5.02 4 3.04 4 1 4 C1 3.34 1 2.68 1 2 C0.34 1.67 -0.32 1.34 -1 1 C-0.67 0.67 -0.34 0.34 0 0 Z " fill="#0B0B0B" transform="translate(563,341)"/>
<path d="M0 0 C0.66 0 1.32 0 2 0 C2.33 2.31 2.66 4.62 3 7 C1.68 7 0.36 7 -1 7 C-0.67 4.69 -0.34 2.38 0 0 Z " fill="#C9C9C9" transform="translate(312,346)"/>
<path d="M0 0 C0.66 0.33 1.32 0.66 2 1 C2.625 4.0625 2.625 4.0625 3 7 C1.68 7 0.36 7 -1 7 C-0.67 4.69 -0.34 2.38 0 0 Z " fill="#D7D7D7" transform="translate(491,346)"/>
<path d="M0 0 C1.32 0.66 2.64 1.32 4 2 C4 2.99 4 3.98 4 5 C1.13275314 4.42655063 0.1385485 4.1385485 -2 2 C-1.34 1.34 -0.68 0.68 0 0 Z " fill="#1D1D1D" transform="translate(368,216)"/>
<path d="M0 0 C2 3.75 2 3.75 2 6 C0.35 6 -1.3 6 -3 6 C-1.125 1.125 -1.125 1.125 0 0 Z " fill="#0A0A0A" transform="translate(484,356)"/>
<path d="M0 0 C2 1 2 1 3 3 C0.33333333 4.33333333 -2.33333333 5.66666667 -5 7 C-3.70700306 4.11562221 -2.34058637 2.12780579 0 0 Z " fill="#282828" transform="translate(561,341)"/>
<path d="M0 0 C2.35171131 0.59861742 4.6859378 1.26924352 7 2 C7.33 2.66 7.66 3.32 8 4 C7.34 4.66 6.68 5.32 6 6 C3.97945196 4.35830472 1.97956942 2.69088222 0 1 C0 0.67 0 0.34 0 0 Z " fill="#CCCCCC" transform="translate(416,273)"/>
<path d="M0 0 C0.66 0.66 1.32 1.32 2 2 C1.34 3.32 0.68 4.64 0 6 C-1.32 4.35 -2.64 2.7 -4 1 C-2.125 0.375 -2.125 0.375 0 0 Z " fill="#E2E2E2" transform="translate(277,194)"/>
<path d="M0 0 C0.99 0.33 1.98 0.66 3 1 C3.33 1.99 3.66 2.98 4 4 C0 4 0 4 -3 2 C-2.01 1.34 -1.02 0.68 0 0 Z " fill="#E0E0E0" transform="translate(445,192)"/>
<path d="M0 0 C0.33 0.99 0.66 1.98 1 3 C-0.32 4.32 -1.64 5.64 -3 7 C-3.99 6.67 -4.98 6.34 -6 6 C-5.195625 5.38125 -4.39125 4.7625 -3.5625 4.125 C-0.96125481 2.25835959 -0.96125481 2.25835959 0 0 Z " fill="#E0E0E0" transform="translate(424,280)"/>
</svg>
