<?xml version="1.0" standalone="no"?>
<!DOCTYPE svg PUBLIC "-//W3C//DTD SVG 20010904//EN"
 "http://www.w3.org/TR/2001/REC-SVG-20010904/DTD/svg10.dtd">
<svg version="1.0" xmlns="http://www.w3.org/2000/svg"
 width="2202.000000pt" height="709.000000pt" viewBox="0 0 2202.000000 709.000000"
 preserveAspectRatio="xMidYMid meet">

<g transform="translate(0.000000,709.000000) scale(0.100000,-0.100000)"
fill="#000000" stroke="none">
<path d="M3558 6058 c58 -90 234 -355 263 -398 28 -40 97 -146 124 -189 6 -9
12 -18 15 -21 15 -15 480 -723 480 -731 0 -4 3 -9 8 -11 4 -1 20 -22 35 -46
45 -70 94 -119 165 -164 81 -52 93 -58 202 -100 l85 -33 903 -3 c738 -2 902
-1 896 10 -14 25 -215 334 -294 453 -26 39 -57 89 -70 113 -13 23 -27 42 -32
42 -4 0 -8 5 -8 10 0 6 -5 16 -10 23 -6 7 -42 62 -81 122 -39 61 -83 130 -100
155 -16 25 -34 54 -41 64 -7 11 -16 25 -20 30 -5 6 -30 45 -56 86 -153 238
-233 351 -290 412 -92 97 -199 155 -362 195 -56 14 -182 16 -953 20 l-887 4
28 -43z"/>
<path d="M7960 3076 l0 -876 210 0 210 0 0 284 0 283 188 6 c163 5 202 9 303
35 162 41 239 80 319 162 88 89 87 88 111 175 18 65 20 98 17 243 -3 161 -4
169 -32 227 -43 88 -169 209 -266 257 -141 68 -148 69 -627 75 l-433 6 0 -877z
m752 474 c70 -22 138 -72 162 -122 45 -89 1 -194 -109 -266 -39 -26 -46 -27
-217 -30 l-178 -4 0 221 0 221 139 0 c110 0 152 -4 203 -20z"/>
<path d="M9560 3075 l0 -875 560 0 560 0 0 195 0 195 -355 0 -355 0 0 155 0
155 343 2 342 3 3 188 2 187 -345 0 -345 0 0 155 0 155 355 0 355 0 0 180 0
180 -560 0 -560 0 0 -875z"/>
<path d="M11050 3075 l0 -875 210 0 210 0 0 345 c0 419 -6 408 120 230 35 -50
70 -97 79 -106 9 -9 23 -26 31 -39 8 -12 67 -93 131 -179 63 -86 130 -177 148
-203 l32 -48 255 0 c292 0 271 -12 180 105 -30 39 -96 126 -147 195 -51 69
-99 130 -105 135 -15 13 -195 256 -201 271 -2 6 8 15 23 18 37 10 135 59 164
82 106 87 138 130 163 219 25 93 27 129 12 223 -31 192 -57 253 -136 334 -66
65 -95 86 -178 122 -85 38 -182 45 -638 45 l-353 1 0 -875z m760 500 c79 -29
110 -75 110 -161 0 -71 -20 -123 -65 -170 -58 -61 -132 -84 -275 -84 l-110 0
0 221 0 221 148 -5 c101 -3 161 -10 192 -22z"/>
<path d="M12530 3760 l0 -190 228 -2 227 -3 3 -682 2 -683 220 0 220 0 0 685
0 685 225 0 225 0 0 190 0 190 -675 0 -675 0 0 -190z"/>
<path d="M14375 3940 c-3 -5 -12 -31 -20 -57 -7 -27 -37 -113 -65 -193 -28
-80 -56 -158 -60 -175 -10 -32 -82 -244 -250 -735 -56 -162 -105 -308 -110
-325 -4 -16 -26 -81 -49 -142 l-40 -113 208 0 208 0 18 43 c10 23 27 62 38 87
11 25 32 74 47 110 l27 65 261 3 260 2 21 -57 c12 -32 26 -66 31 -75 6 -10 10
-23 10 -30 0 -7 12 -43 27 -80 l26 -68 219 0 c155 0 218 3 218 11 0 6 -12 44
-26 83 -15 39 -30 85 -34 101 -5 17 -61 183 -125 370 -64 187 -121 354 -126
370 -8 29 -180 537 -243 720 l-31 90 -217 3 c-138 1 -219 -1 -223 -8z m255
-705 c15 -49 30 -99 33 -110 3 -11 21 -72 41 -135 20 -63 39 -123 42 -132 5
-17 -7 -18 -166 -18 l-170 0 6 28 c3 15 13 45 21 67 15 39 37 101 106 302 42
120 50 136 55 108 2 -11 16 -60 32 -110z"/>
<path d="M15797 3788 c-14 -90 -40 -257 -57 -373 -62 -416 -90 -608 -120 -802
-16 -109 -34 -234 -41 -278 -6 -44 -13 -92 -16 -108 l-6 -27 189 2 189 3 8 55
c5 30 24 145 43 255 19 110 48 277 64 370 16 94 32 196 35 228 4 31 9 57 13
57 8 0 24 -39 88 -215 138 -380 161 -441 214 -580 23 -60 46 -125 51 -142 l10
-33 89 0 88 0 18 48 c9 26 21 51 26 56 4 6 8 16 8 24 0 7 9 32 19 55 10 23 34
80 51 127 18 47 36 89 41 94 5 6 9 16 9 24 0 7 9 32 19 55 10 23 40 96 66 162
25 66 53 135 61 152 8 18 26 61 39 95 14 38 26 57 29 48 7 -20 25 -162 36
-280 4 -52 19 -187 34 -300 14 -113 28 -240 32 -282 l6 -78 204 0 c156 0 204
3 204 13 0 6 -11 89 -24 182 -13 94 -39 280 -56 415 -17 135 -44 342 -60 460
-16 118 -38 287 -50 375 -12 88 -26 193 -32 233 l-10 72 -202 0 -202 0 -13
-37 c-30 -88 -65 -179 -73 -187 -4 -6 -8 -17 -8 -25 0 -8 -13 -48 -29 -90 -16
-42 -57 -152 -91 -246 -34 -93 -75 -204 -90 -245 -16 -41 -32 -88 -37 -104 -8
-26 -15 -11 -67 145 -31 96 -63 188 -70 204 -15 33 -13 29 -120 355 l-74 225
-204 3 -205 2 -26 -162z"/>
<path d="M17800 3075 l0 -875 215 0 215 0 0 875 0 875 -215 0 -215 0 0 -875z"/>
<path d="M20995 3938 c-2 -7 -29 -87 -60 -178 -31 -91 -61 -178 -65 -195 -10
-38 -56 -170 -88 -254 -13 -36 -30 -85 -37 -110 -12 -44 -36 -116 -96 -281
-39 -110 -80 -231 -89 -265 -5 -16 -38 -115 -73 -220 -36 -104 -68 -200 -72
-213 l-6 -22 207 2 207 3 54 130 c30 72 59 140 64 153 l9 22 261 -2 261 -3 20
-50 c18 -46 88 -247 88 -252 0 -2 99 -3 220 -3 169 0 220 3 220 13 0 6 -50
158 -111 337 -61 179 -114 339 -119 355 -4 17 -20 66 -35 110 -16 44 -41 118
-57 165 -15 47 -33 99 -39 115 -6 17 -20 57 -31 90 -11 33 -34 98 -51 144 -16
47 -33 99 -37 115 -5 17 -20 67 -35 111 -16 44 -37 106 -48 138 l-20 57 -219
0 c-166 0 -220 -3 -223 -12z m276 -758 c17 -58 44 -145 59 -195 15 -49 31
-102 34 -117 l6 -28 -170 0 c-93 0 -170 2 -170 4 0 7 52 160 65 191 6 17 21
57 33 90 37 108 55 159 71 198 l16 38 12 -38 c6 -21 26 -85 44 -143z"/>
<path d="M2150 3925 c-295 -53 -390 -130 -630 -515 -29 -47 -63 -101 -75 -120
-94 -148 -165 -262 -188 -300 -15 -25 -50 -80 -77 -123 -28 -43 -50 -83 -50
-88 0 -5 -4 -9 -9 -9 -5 0 -15 -12 -22 -27 -20 -40 -72 -127 -79 -133 -3 -3
-28 -41 -54 -85 -27 -44 -52 -81 -57 -83 -5 -2 -9 -7 -9 -12 0 -7 -87 -156
-103 -175 -9 -11 -83 -128 -124 -195 -15 -25 -51 -82 -80 -127 -29 -46 -53
-85 -53 -88 0 -6 -40 -65 -50 -75 -5 -5 -113 -180 -135 -219 -5 -9 -33 -53
-61 -97 -48 -73 -139 -218 -241 -381 -23 -38 -43 -71 -43 -75 0 -5 400 -8 889
-8 l889 0 84 24 c251 73 351 152 489 386 24 41 47 76 51 78 5 2 8 8 8 13 0 8
34 64 105 174 31 47 193 308 218 350 7 10 35 55 62 100 28 44 64 103 80 130
15 28 31 52 35 55 6 5 59 92 72 120 4 8 37 60 73 115 36 55 81 127 100 160 51
86 59 99 65 105 12 12 70 112 70 121 0 5 5 9 10 9 6 0 10 6 10 14 0 8 4 16 8
18 4 2 29 39 55 83 27 44 72 118 102 165 87 138 120 190 171 275 95 157 195
286 312 400 l56 55 -899 -1 c-700 -1 -917 -4 -975 -14z"/>
<path d="M4955 3924 c-159 -26 -293 -85 -384 -168 -56 -52 -149 -178 -270
-366 -87 -136 -253 -393 -346 -535 -50 -77 -102 -158 -115 -180 -13 -22 -27
-42 -30 -45 -3 -3 -43 -63 -90 -135 -46 -71 -108 -167 -137 -212 -29 -44 -53
-84 -53 -87 0 -4 386 -5 858 -3 934 3 955 5 1080 62 30 14 58 25 62 25 17 0
157 100 191 136 27 29 378 545 479 704 5 8 129 194 275 414 146 219 265 400
265 402 0 2 -384 4 -852 3 -667 -1 -870 -4 -933 -15z"/>
<path d="M18600 3070 l0 -870 205 0 205 0 0 508 0 507 28 -41 c15 -22 33 -47
40 -55 13 -14 87 -119 220 -312 37 -54 75 -108 84 -120 21 -27 112 -155 210
-297 39 -58 78 -111 85 -118 7 -7 20 -26 30 -42 l17 -30 218 0 218 0 0 870 0
870 -192 -2 -193 -3 -3 -529 -2 -528 -57 78 c-31 44 -60 81 -63 84 -4 3 -38
50 -78 105 -82 115 -224 310 -250 342 -9 12 -25 32 -34 45 -9 13 -53 73 -97
133 -45 61 -107 147 -138 192 l-58 83 -197 0 -198 0 0 -870z"/>
</g>
</svg>
