<?xml version="1.0" standalone="no"?>
<!DOCTYPE svg PUBLIC "-//W3C//DTD SVG 20010904//EN"
 "http://www.w3.org/TR/2001/REC-SVG-20010904/DTD/svg10.dtd">
<svg version="1.0" xmlns="http://www.w3.org/2000/svg"
 width="4269.000000pt" height="633.000000pt" viewBox="0 0 4269.000000 633.000000"
 preserveAspectRatio="xMidYMid meet">

<g transform="translate(0.000000,633.000000) scale(0.100000,-0.100000)"
fill="#000000" stroke="none">
<path d="M21435 5942 c-297 -115 -701 -312 -966 -470 -602 -358 -1139 -818
-1614 -1382 l-97 -115 5 -95 c8 -136 35 -408 52 -525 35 -240 46 -300 84 -470
78 -352 208 -766 341 -1085 143 -346 508 -1017 570 -1050 47 -25 461 -116 700
-154 395 -63 658 -80 1087 -73 486 8 846 52 1319 161 268 61 255 55 312 144
186 292 402 709 535 1032 99 240 243 698 301 960 10 41 22 95 27 119 44 195
102 617 119 874 l11 158 -43 52 c-614 749 -1333 1317 -2178 1720 -169 80 -494
217 -512 216 -7 -1 -31 -8 -53 -17z m65 -642 l0 -640 55 0 c128 0 324 -61 467
-146 113 -67 275 -229 342 -342 102 -172 148 -338 148 -537 0 -276 -93 -507
-284 -710 l-88 -93 79 34 c172 75 336 99 604 90 248 -8 417 -18 417 -24 0 -10
-64 -203 -102 -307 -124 -338 -304 -578 -531 -709 -219 -126 -529 -144 -852
-51 -47 14 -103 25 -125 25 l-40 0 0 -325 0 -325 -45 0 -45 0 0 -350 0 -350
-157 0 c-309 0 -719 46 -1089 120 -146 30 -382 86 -421 101 -26 10 -74 79
-185 269 -286 490 -490 971 -642 1510 -50 177 -126 505 -140 605 -3 22 -15 99
-26 170 -21 136 -60 535 -60 614 0 45 4 51 138 206 553 645 1197 1153 1929
1523 258 130 601 281 641 282 9 0 12 -134 12 -640z m2335 -1479 c70 -31 125
-113 125 -186 0 -76 -61 -162 -135 -191 -133 -50 -275 48 -275 189 0 151 150
250 285 188z"/>
<path d="M21285 4640 c-110 -23 -155 -40 -265 -96 -269 -138 -448 -367 -527
-673 -35 -137 -35 -335 0 -472 53 -206 135 -349 282 -494 l91 -91 -65 32
c-199 98 -479 134 -798 105 -72 -7 -161 -13 -197 -13 -36 0 -66 -3 -66 -7 0
-29 132 -390 175 -479 137 -286 318 -478 542 -576 209 -91 495 -90 814 3 36
10 78 16 93 14 l26 -5 0 -324 0 -324 50 0 50 0 0 1710 0 1710 -57 -1 c-32 0
-98 -9 -148 -19z m-35 -2001 c52 -11 105 -23 118 -25 l22 -4 0 -226 c0 -225 0
-225 -22 -222 -17 2 -30 24 -63 104 -79 192 -173 337 -284 435 l-56 49 95 -44
c54 -26 136 -55 190 -67z"/>
<path d="M21928 2705 c-64 -34 -178 -70 -265 -85 l-73 -12 0 -224 c0 -229 2
-239 37 -216 7 4 21 33 32 63 55 162 144 310 255 427 38 39 67 72 65 72 -2 -1
-25 -12 -51 -25z"/>
<path d="M25776 4598 c-3 -18 -118 -751 -256 -1628 -138 -877 -253 -1605 -255
-1617 l-5 -23 414 0 414 0 15 82 c8 46 63 364 123 708 59 344 110 629 114 633
4 4 208 -314 454 -708 l447 -715 519 0 518 0 -540 866 -540 866 89 92 c122
124 1374 1437 1392 1459 13 16 -14 17 -487 17 l-500 0 -654 -674 c-359 -370
-654 -672 -656 -671 -2 2 187 1235 202 1318 l6 27 -404 0 -404 0 -6 -32z"/>
<path d="M30199 4608 c-49 -92 -1736 -3202 -1755 -3235 l-25 -43 440 0 440 0
178 297 179 298 586 3 c552 2 587 1 592 -15 5 -19 126 -572 126 -579 0 -2 205
-4 456 -4 429 0 455 1 450 18 -3 9 -172 742 -376 1627 -204 886 -373 1620
-377 1633 l-5 22 -449 0 -448 0 -12 -22z m425 -1552 c47 -280 85 -511 83 -513
-2 -2 -171 -2 -375 -1 l-371 3 281 518 c155 284 285 514 288 510 4 -5 46 -237
94 -517z"/>
<path d="M32821 4568 c-6 -35 -125 -767 -266 -1628 -140 -861 -257 -1575 -260
-1587 l-5 -23 915 0 c503 0 915 2 915 5 0 8 110 647 115 673 l5 22 -511 0
-511 0 6 33 c3 17 96 592 206 1277 110 685 203 1255 205 1268 l5 22 -404 0
-404 0 -11 -62z"/>
<path d="M34625 4618 c-4 -15 -135 -693 -135 -702 0 -3 171 -6 381 -6 l381 0
-6 -27 c-3 -16 -93 -586 -201 -1268 -107 -682 -198 -1250 -200 -1262 l-5 -23
404 0 404 0 11 63 c6 34 98 607 206 1272 107 666 198 1220 200 1233 l5 22 345
0 344 0 10 38 c6 20 46 180 89 355 l80 317 -1155 0 c-914 0 -1154 -3 -1158
-12z"/>
<path d="M37380 4625 c0 -6 -498 -3233 -504 -3267 l-5 -28 428 0 429 0 6 33
c3 17 118 750 256 1627 138 877 253 1605 255 1618 l5 22 -435 0 c-239 0 -435
-2 -435 -5z"/>
<path d="M39076 3768 c-156 -475 -401 -1216 -544 -1648 l-259 -785 405 -3
c241 -1 408 2 411 7 3 5 139 424 301 930 162 507 297 921 300 921 3 0 108
-404 234 -898 127 -493 234 -912 238 -930 l9 -32 175 2 176 3 525 943 c290
518 528 940 530 938 5 -5 -12 -1194 -23 -1634 l-6 -252 401 0 401 0 0 158 c0
86 7 816 15 1622 8 806 15 1477 15 1493 l0 27 -399 0 -400 0 -497 -870 c-273
-479 -500 -867 -504 -863 -4 4 -89 377 -190 828 -100 451 -186 839 -192 863
l-10 42 -414 0 -413 0 -285 -862z"/>
<path d="M14816 4298 c-26 -167 -143 -909 -259 -1650 l-213 -1348 411 0 411 0
123 713 c68 391 126 715 130 719 3 4 209 -316 456 -712 l450 -720 512 0 c282
0 513 2 513 4 0 3 -241 390 -535 862 -295 472 -534 862 -531 868 3 8 1151
1215 1449 1524 l41 42 -499 0 -500 0 -655 -676 c-451 -465 -656 -670 -657
-657 -2 10 44 314 100 676 l103 657 -401 0 -401 0 -48 -302z"/>
<path d="M531 3108 c-129 -810 -246 -1548 -261 -1640 l-27 -168 412 0 411 0
93 538 c51 295 97 541 101 545 4 5 139 12 301 17 384 12 517 24 669 61 152 36
296 103 392 183 118 98 253 267 333 418 96 181 122 312 111 573 -14 354 -61
507 -200 654 -110 115 -279 212 -464 264 -76 21 -92 22 -857 25 l-781 3 -233
-1473z m1576 737 c166 -142 109 -605 -86 -705 -79 -40 -116 -44 -391 -41 -146
1 -266 4 -268 6 -4 4 115 738 123 763 3 9 71 12 293 12 l288 0 41 -35z"/>
<path d="M7571 3108 c-129 -810 -246 -1548 -261 -1640 l-27 -168 412 0 411 0
93 538 c51 295 97 541 101 545 4 5 139 12 301 17 384 12 517 24 669 61 152 36
296 103 392 183 118 98 253 267 333 418 96 181 122 312 111 573 -14 354 -61
507 -200 654 -110 115 -279 212 -464 264 -76 21 -92 22 -857 25 l-781 3 -233
-1473z m1576 737 c166 -142 109 -605 -86 -705 -79 -40 -116 -44 -391 -41 -146
1 -266 4 -268 6 -4 4 115 738 123 763 3 9 71 12 293 12 l288 0 41 -35z"/>
<path d="M4005 4518 c-22 -74 -333 -2264 -328 -2313 22 -221 55 -360 115 -485
33 -69 56 -101 123 -167 67 -66 100 -90 176 -127 210 -101 464 -146 829 -146
373 0 648 46 881 145 228 98 401 284 563 605 112 222 98 157 296 1388 99 617
180 1129 180 1137 0 13 -53 15 -405 15 -223 0 -405 -3 -405 -8 0 -4 -89 -496
-199 -1094 -195 -1068 -199 -1087 -234 -1151 -81 -144 -195 -261 -297 -305
-119 -51 -303 -66 -430 -36 -97 22 -202 77 -244 125 -19 23 -44 69 -55 103
-26 76 -44 235 -36 301 4 28 72 496 151 1041 79 545 144 998 144 1007 0 16
-33 17 -404 17 l-405 0 -16 -52z"/>
<path d="M11045 4518 c-22 -74 -333 -2264 -328 -2313 22 -221 55 -360 115
-485 33 -69 56 -101 123 -167 67 -66 100 -90 176 -127 210 -101 464 -146 829
-146 373 0 648 46 881 145 228 98 401 284 563 605 112 222 98 157 296 1388 99
617 180 1129 180 1137 0 13 -53 15 -405 15 -223 0 -405 -3 -405 -8 0 -4 -89
-496 -199 -1094 -195 -1068 -199 -1087 -234 -1151 -81 -144 -195 -261 -297
-305 -119 -51 -303 -66 -430 -36 -97 22 -202 77 -244 125 -19 23 -44 69 -55
103 -26 76 -44 235 -36 301 4 28 72 496 151 1041 79 545 144 998 144 1007 0
16 -33 17 -404 17 l-405 0 -16 -52z"/>
</g>
</svg>
