<?xml version="1.0" standalone="no"?>
<!DOCTYPE svg PUBLIC "-//W3C//DTD SVG 20010904//EN"
 "http://www.w3.org/TR/2001/REC-SVG-20010904/DTD/svg10.dtd">
<svg version="1.0" xmlns="http://www.w3.org/2000/svg"
 width="225.000000pt" height="225.000000pt" viewBox="0 0 225.000000 225.000000"
 preserveAspectRatio="xMidYMid meet">

<g transform="translate(0.000000,225.000000) scale(0.100000,-0.100000)"
fill="#000000" stroke="none">
<path d="M975 2239 c-360 -45 -698 -290 -860 -624 -78 -160 -110 -308 -108
-500 2 -308 108 -562 327 -781 219 -219 473 -325 781 -327 192 -2 340 30 500
108 220 107 414 301 520 519 209 432 122 946 -216 1285 -249 248 -590 364
-944 320z m260 -19 c261 -30 483 -136 666 -319 278 -278 386 -671 289 -1049
-105 -411 -443 -727 -863 -807 -102 -19 -302 -19 -404 0 -445 84 -794 433
-878 878 -19 102 -19 302 0 404 91 477 484 841 964 892 110 12 126 12 226 1z"/>
<path d="M1150 2136 c0 -12 -3 -51 -6 -85 -6 -52 -4 -61 9 -61 10 0 17 11 19
33 3 29 6 32 41 35 l37 3 0 -40 c0 -28 4 -41 14 -41 16 0 26 43 26 116 0 41
-4 54 -15 54 -10 0 -15 -11 -15 -35 0 -30 -3 -35 -24 -35 -44 0 -56 10 -56 46
0 24 -5 34 -15 34 -9 0 -15 -9 -15 -24z"/>
<path d="M1005 2138 c-2 -7 -13 -46 -24 -85 -19 -72 -19 -73 0 -73 12 0 19 7
19 19 0 34 65 44 75 11 3 -11 15 -20 25 -20 17 0 15 8 -17 80 -27 58 -41 80
-55 80 -10 0 -20 -6 -23 -12z m43 -60 c11 -26 10 -28 -14 -28 -20 0 -25 4 -20
16 3 9 6 25 6 37 0 24 11 14 28 -25z"/>
<path d="M1338 2049 c-23 -68 -24 -80 -11 -77 9 2 24 25 33 53 l17 50 7 -61
c4 -34 10 -64 13 -68 4 -3 26 15 50 41 l43 48 -15 -44 c-18 -53 -19 -74 -3
-69 10 4 58 127 58 150 0 23 -43 3 -78 -37 l-39 -45 -6 62 c-5 53 -16 77 -37
78 -3 0 -18 -36 -32 -81z"/>
<path d="M773 2095 c-27 -11 -33 -20 -33 -44 0 -36 13 -46 65 -46 33 0 40 -3
40 -20 0 -16 -7 -20 -37 -20 -46 0 -58 -11 -26 -25 19 -9 33 -8 61 4 31 12 37
20 37 44 0 39 -20 54 -67 50 -32 -3 -38 0 -38 17 0 17 6 20 38 18 40 -3 49 10
18 27 -23 12 -19 12 -58 -5z"/>
<path d="M609 2017 c-13 -11 -13 -20 1 -90 15 -77 32 -101 38 -54 4 32 45 55
67 37 8 -7 23 -9 32 -5 16 5 13 10 -17 36 -100 85 -105 87 -121 76z m50 -51
l23 -24 -21 -11 c-12 -7 -21 -10 -21 -9 0 2 -4 18 -9 36 -11 38 -3 41 28 8z"/>
<path d="M1561 1961 c-45 -40 -60 -60 -50 -63 8 -3 21 1 31 9 14 13 19 13 42
-2 14 -9 26 -28 28 -43 6 -52 23 -26 37 56 12 72 12 85 0 93 -20 13 -18 14
-88 -50z m64 -20 c-6 -27 -9 -29 -25 -18 -19 11 -19 12 2 34 26 28 32 24 23
-16z"/>
<path d="M475 1926 c-48 -42 -57 -74 -13 -47 19 12 24 8 65 -38 40 -46 63 -57
63 -30 0 5 -18 29 -40 53 -44 48 -48 60 -22 75 12 7 14 13 7 20 -8 8 -26 -3
-60 -33z"/>
<path d="M1722 1900 c-18 -21 -42 -50 -53 -64 l-20 -25 42 -31 c23 -16 51 -30
62 -30 25 0 87 63 87 89 0 20 -65 102 -79 100 -3 0 -21 -18 -39 -39z m73 -80
c-19 -37 -49 -46 -81 -25 l-25 16 38 44 38 45 22 -26 c21 -23 22 -27 8 -54z"/>
<path d="M960 1915 c-429 -96 -707 -512 -626 -938 52 -272 248 -507 502 -603
470 -177 980 105 1080 597 20 99 15 269 -11 364 -73 269 -300 496 -570 570
-84 23 -292 29 -375 10z m300 -19 c275 -49 505 -243 600 -506 157 -429 -92
-902 -539 -1022 -106 -29 -286 -28 -392 0 -273 73 -488 288 -561 561 -28 106
-29 286 0 392 106 396 494 646 892 575z"/>
<path d="M1114 1874 c-5 -10 -8 -79 -6 -151 3 -107 6 -133 18 -133 11 0 14 17
14 74 0 40 3 100 6 132 4 43 2 64 -9 78 -14 19 -14 19 -23 0z"/>
<path d="M1175 1790 c-13 -21 -19 -200 -7 -200 12 0 18 27 27 117 7 62 -4 108
-20 83z"/>
<path d="M740 1767 c0 -19 38 -87 126 -225 8 -12 19 -20 25 -17 12 8 -108 238
-133 254 -15 10 -18 8 -18 -12z"/>
<path d="M1055 1780 c-6 -10 -3 -56 11 -152 10 -68 24 -40 24 46 0 46 -3 91
-6 100 -7 18 -20 21 -29 6z"/>
<path d="M1478 1763 c-31 -36 -128 -232 -118 -238 5 -3 25 18 43 47 19 29 50
79 70 111 35 54 47 97 29 97 -5 0 -16 -8 -24 -17z"/>
<path d="M831 1718 c1 -27 86 -181 93 -169 8 13 -50 162 -68 173 -17 11 -26
10 -25 -4z"/>
<path d="M1395 1722 c-17 -11 -76 -162 -69 -173 7 -12 94 142 94 166 0 16 -9
19 -25 7z"/>
<path d="M1016 1702 c-4 -11 -4 -33 -1 -49 4 -15 8 -38 11 -50 2 -13 9 -23 15
-23 8 0 9 19 5 63 -8 67 -20 91 -30 59z"/>
<path d="M1218 1714 c-3 -5 -8 -38 -12 -73 -6 -50 -4 -62 6 -59 17 6 32 102
20 124 -5 9 -12 13 -14 8z"/>
<path d="M910 1676 c0 -26 41 -116 52 -116 6 0 7 10 4 23 -4 12 -9 34 -12 49
-4 15 -15 35 -25 44 -18 16 -19 16 -19 0z"/>
<path d="M1323 1678 c-13 -15 -43 -93 -43 -109 0 -24 21 -4 40 38 23 52 25 98
3 71z"/>
<path d="M730 1663 c0 -18 108 -163 121 -163 18 0 8 22 -40 94 -50 74 -81 100
-81 69z"/>
<path d="M1499 1668 c-9 -7 -34 -40 -56 -73 -54 -82 -55 -83 -44 -89 13 -8
123 139 119 159 -2 13 -6 14 -19 3z"/>
<path d="M982 1652 c-10 -7 -9 -16 2 -48 16 -45 30 -28 18 23 -5 23 -11 30
-20 25z"/>
<path d="M1247 1622 c-6 -51 4 -63 19 -21 16 45 16 46 0 52 -10 4 -15 -5 -19
-31z"/>
<path d="M730 1567 c0 -7 20 -32 44 -56 56 -55 71 -37 19 24 -37 44 -63 58
-63 32z"/>
<path d="M1457 1535 c-52 -61 -37 -79 19 -24 24 24 44 49 44 56 0 25 -25 12
-63 -32z"/>
<path d="M1141 1527 c-1 -35 -26 -45 -53 -21 -19 17 -21 17 -15 2 8 -22 -36
-36 -57 -18 -12 9 -17 7 -26 -10 -12 -23 -46 -23 -76 0 -10 8 -2 -7 17 -35 20
-27 39 -57 42 -65 4 -10 6 -11 6 -2 1 7 -4 22 -9 33 -9 16 -7 19 9 19 11 0 31
5 45 11 14 7 33 8 43 4 17 -7 17 -8 -2 -15 -13 -6 -15 -9 -5 -9 8 -1 29 11 45
25 19 16 21 20 6 10 -18 -11 -28 -12 -41 -3 -14 8 -25 8 -46 -1 -32 -15 -38
-11 -29 18 5 16 10 18 20 10 9 -7 31 -8 69 -2 l56 9 0 -37 c0 -37 -17 -60 -53
-73 -15 -6 -17 -3 -12 16 l7 22 -17 -23 c-14 -19 -19 -21 -33 -10 -13 11 -15
10 -9 -4 7 -20 -3 -23 -21 -8 -7 5 -6 3 2 -6 18 -21 78 -10 114 21 22 19 30
21 50 12 13 -6 30 -24 38 -39 8 -15 19 -28 25 -28 18 0 68 -60 63 -75 -6 -15
27 -39 66 -49 17 -5 14 -1 -10 11 -22 12 -36 27 -38 42 -2 14 0 21 7 17 6 -4
28 -4 48 0 21 4 32 9 26 11 -7 3 -13 13 -13 24 0 10 -6 19 -14 19 -22 0 -29
-19 -15 -37 12 -14 10 -15 -21 -8 -41 8 -76 35 -47 35 15 0 15 3 5 13 -7 8
-20 12 -30 9 -19 -5 -48 14 -48 30 0 5 9 7 20 4 11 -3 29 -9 40 -12 15 -4 20
-1 20 14 0 11 -6 24 -12 30 -20 16 -124 53 -107 38 8 -7 35 -21 62 -30 51 -19
68 -50 20 -37 -16 5 -27 14 -25 21 2 10 0 11 -10 2 -10 -8 -20 -8 -38 1 -32
16 -42 83 -13 90 16 4 16 5 1 6 -10 1 -18 12 -21 29 l-4 27 -2 -28z m-170 -85
c-7 -2 -18 1 -23 6 -8 8 -4 9 13 5 13 -4 18 -8 10 -11z m399 -132 c0 -5 -2
-10 -4 -10 -3 0 -8 5 -11 10 -3 6 -1 10 4 10 6 0 11 -4 11 -10z"/>
<path d="M736 1504 c-5 -13 37 -54 55 -54 14 0 11 7 -20 38 -21 21 -31 25 -35
16z"/>
<path d="M1020 1506 c7 -7 13 -7 20 0 6 6 3 10 -10 10 -13 0 -16 -4 -10 -10z"/>
<path d="M469 1492 c10 -19 219 -142 241 -142 26 0 2 23 -90 84 -56 37 -115
69 -132 73 -28 6 -30 5 -19 -15z"/>
<path d="M570 1500 c0 -11 75 -68 132 -100 65 -37 50 -4 -25 54 -69 53 -107
69 -107 46z"/>
<path d="M950 1500 c-8 -5 -12 -12 -9 -15 4 -3 12 1 19 10 14 17 11 19 -10 5z"/>
<path d="M1474 1479 c-33 -35 -14 -39 27 -5 20 17 24 26 15 29 -8 3 -26 -8
-42 -24z"/>
<path d="M1580 1459 c-58 -46 -86 -80 -63 -79 14 1 156 105 161 118 8 27 -36
9 -98 -39z"/>
<path d="M1642 1439 c-102 -64 -130 -89 -101 -89 21 0 230 122 240 141 19 37
-25 20 -139 -52z"/>
<path d="M700 1460 c43 -38 70 -50 70 -31 0 17 -71 71 -93 71 -19 -1 -16 -6
23 -40z"/>
<path d="M1516 1467 c-24 -21 -36 -38 -32 -45 5 -9 22 -1 56 25 27 21 49 41
50 46 1 18 -38 4 -74 -26z"/>
<path d="M1190 1480 c-11 -8 -7 -9 15 -4 37 8 45 14 19 14 -10 0 -26 -5 -34
-10z"/>
<path d="M1360 1410 c0 -5 5 -10 11 -10 5 0 7 5 4 10 -3 6 -8 10 -11 10 -2 0
-4 -4 -4 -10z"/>
<path d="M516 1396 c3 -8 43 -30 89 -50 92 -40 95 -40 95 -26 0 11 -152 90
-174 90 -9 0 -13 -6 -10 -14z"/>
<path d="M830 1390 c55 -46 68 -52 89 -40 33 17 25 30 -11 19 -26 -7 -36 -5
-52 10 -12 10 -28 21 -36 25 -8 4 -4 -2 10 -14z"/>
<path d="M880 1399 c0 -5 5 -7 10 -4 6 3 10 8 10 11 0 2 -4 4 -10 4 -5 0 -10
-5 -10 -11z"/>
<path d="M1628 1369 c-68 -34 -97 -59 -70 -59 22 0 166 70 174 84 15 27 -20
19 -104 -25z"/>
<path d="M1333 1388 c4 -10 2 -18 -3 -18 -6 0 -10 5 -10 12 0 6 -3 8 -6 5 -4
-4 -1 -14 6 -23 12 -13 11 -17 -1 -25 -10 -6 -10 -9 -1 -9 19 0 36 51 21 64
-9 8 -10 7 -6 -6z"/>
<path d="M1386 1367 c3 -10 9 -15 12 -12 3 3 0 11 -7 18 -10 9 -11 8 -5 -6z"/>
<path d="M966 1337 c-7 -27 -5 -28 16 -6 13 14 14 19 3 23 -7 2 -15 -4 -19
-17z"/>
<path d="M1440 1350 c0 -5 -6 -10 -14 -10 -8 0 -18 -5 -21 -10 -8 -13 16 -44
25 -33 10 10 22 63 15 63 -3 0 -5 -4 -5 -10z m-10 -30 c0 -5 -2 -10 -4 -10 -3
0 -8 5 -11 10 -3 6 -1 10 4 10 6 0 11 -4 11 -10z"/>
<path d="M825 1340 c-3 -6 1 -7 9 -4 18 7 21 14 7 14 -6 0 -13 -4 -16 -10z"/>
<path d="M562 1319 c6 -18 109 -52 121 -40 10 10 -46 38 -97 48 -22 5 -28 3
-24 -8z"/>
<path d="M896 1315 c-3 -8 -1 -15 4 -15 6 0 10 7 10 15 0 8 -2 15 -4 15 -2 0
-6 -7 -10 -15z"/>
<path d="M1635 1319 c-11 -5 -33 -13 -49 -19 -51 -19 -16 -31 41 -14 59 17 91
44 52 43 -13 0 -33 -4 -44 -10z"/>
<path d="M1041 1292 c-109 -55 -135 -202 -52 -296 57 -65 180 -75 248 -20 49
39 73 87 73 146 0 113 -74 188 -187 188 -26 0 -63 -8 -82 -18z m68 -25 c-2 -1
-13 -9 -24 -17 -19 -14 -19 -14 -6 3 7 9 18 17 24 17 6 0 8 -1 6 -3z m65 -11
c-51 -22 -82 -27 -39 -6 22 11 47 19 55 19 8 0 1 -6 -16 -13z m56 -19 c0 -8
-12 -19 -26 -25 -25 -12 -25 -36 1 -26 18 7 57 -14 49 -27 -3 -6 -25 -19 -48
-29 l-41 -19 63 0 c72 -1 82 -20 18 -33 -20 -4 -47 -13 -58 -19 -21 -11 -21
-12 -3 -25 24 -18 13 -28 -20 -20 -27 7 -55 55 -55 96 0 11 -8 23 -17 27 -10
3 -25 12 -34 20 -15 12 -18 10 -28 -17 -11 -34 -34 -36 -38 -4 -2 10 0 13 3 7
8 -18 24 -16 24 1 0 8 7 22 16 31 15 15 18 15 37 -2 19 -18 19 -17 13 5 -9 26
2 29 19 5 12 -15 16 -16 39 -4 14 8 38 27 54 42 31 33 32 33 32 16z m-172 -18
c-4 -13 -58 -22 -58 -10 0 12 7 16 35 19 16 1 25 -3 23 -9z m92 -11 c0 -4 -7
-8 -15 -8 -8 0 -15 4 -15 8 0 5 7 9 15 9 8 0 15 -4 15 -9z m-60 -113 c-1 -12
-50 -17 -50 -5 0 9 28 19 43 16 5 -1 8 -6 7 -11z m-1 -51 c-21 -22 -21 -24 -4
-19 15 5 16 4 5 -3 -8 -5 -33 -9 -55 -8 -37 1 -40 3 -42 31 -3 28 -2 28 7 7 9
-22 10 -22 47 -7 21 9 42 20 47 25 22 22 17 -2 -5 -26z m28 -34 c-1 -11 -5
-20 -9 -20 -10 0 -10 4 -2 24 8 22 13 20 11 -4z"/>
<path d="M1166 1163 c-10 -10 -15 -12 -11 -5 6 11 3 11 -14 0 -23 -14 -24 -18
-13 -34 5 -8 22 -2 52 18 25 17 37 27 28 24 -9 -2 -18 -1 -20 5 -2 5 -12 2
-22 -8z"/>
<path d="M1140 1059 c7 -11 13 -19 14 -17 1 1 8 11 15 21 12 15 11 17 -13 17
-24 0 -26 -2 -16 -21z"/>
<path d="M947 1281 c-4 -17 -3 -21 5 -13 5 5 8 16 6 23 -3 8 -7 3 -11 -10z"/>
<path d="M889 1268 c-12 -23 -12 -23 10 -4 23 21 26 26 11 26 -5 0 -15 -10
-21 -22z"/>
<path d="M590 1265 c0 -13 31 -25 68 -25 38 0 24 16 -23 27 -35 8 -45 7 -45
-2z"/>
<path d="M1598 1263 c-21 -5 -24 -23 -4 -23 32 0 75 13 70 21 -5 9 -36 10 -66
2z"/>
<path d="M1380 1250 c0 -8 4 -21 9 -29 7 -11 11 -10 20 7 7 14 8 23 1 27 -5 3
-10 0 -10 -7 0 -9 -3 -9 -10 2 -9 13 -10 13 -10 0z"/>
<path d="M540 1230 c-25 -17 7 -30 73 -30 67 0 76 15 15 25 -24 3 -50 8 -58
11 -8 2 -22 -1 -30 -6z"/>
<path d="M888 1215 c-3 -14 -1 -25 3 -25 5 0 9 11 9 25 0 14 -2 25 -4 25 -2 0
-6 -11 -8 -25z"/>
<path d="M1633 1228 c-70 -13 -67 -28 5 -28 65 0 97 13 72 30 -8 5 -17 9 -20
9 -3 -1 -29 -6 -57 -11z"/>
<path d="M462 1183 c-6 -2 -10 -9 -6 -14 7 -11 204 -12 204 0 0 14 -167 27
-198 14z"/>
<path d="M1633 1183 c-25 -2 -43 -9 -43 -16 0 -9 26 -11 92 -9 107 3 130 8
108 22 -15 9 -72 10 -157 3z"/>
<path d="M381 1126 c-45 -25 -1 -32 143 -22 103 7 136 12 136 23 0 19 -245 18
-279 -1z"/>
<path d="M1590 1127 c0 -11 33 -16 136 -23 142 -9 181 -4 147 22 -26 19 -283
20 -283 1z"/>
<path d="M561 1085 c-86 -9 -123 -25 -89 -38 13 -4 179 20 186 28 16 15 -17
19 -97 10z"/>
<path d="M1590 1084 c0 -7 30 -17 73 -24 39 -6 79 -13 87 -16 19 -5 47 12 36
23 -4 4 -50 13 -102 18 -72 8 -94 8 -94 -1z"/>
<path d="M583 1038 c-44 -9 -55 -21 -29 -31 17 -7 116 23 116 35 0 10 -32 9
-87 -4z"/>
<path d="M1580 1042 c0 -11 108 -45 120 -37 20 12 9 23 -34 34 -53 13 -86 14
-86 3z"/>
<path d="M1378 998 c-13 -13 -27 -23 -33 -23 -5 0 -10 -4 -10 -10 0 -5 -5 -17
-10 -25 -15 -24 -14 -38 3 -52 15 -11 15 -11 5 3 -11 13 -7 21 22 49 19 19 35
40 35 48 0 7 5 10 10 7 6 -4 7 -11 4 -17 -4 -7 -2 -8 4 -4 7 4 12 2 12 -5 0
-7 3 -9 7 -6 3 4 -1 15 -10 25 -10 10 -14 22 -10 25 3 4 3 7 0 7 -4 0 -17 -10
-29 -22z m2 -21 c0 -2 -15 -16 -32 -33 -18 -16 -25 -20 -15 -8 9 11 14 24 10
29 -5 4 -3 5 4 1 6 -3 14 -2 18 4 6 9 15 14 15 7z"/>
<path d="M625 1001 c-16 -3 -29 -11 -27 -16 2 -12 7 -12 50 -1 17 4 32 12 32
17 0 10 -10 10 -55 0z"/>
<path d="M826 988 c-9 -12 -16 -32 -15 -43 0 -12 3 -15 6 -7 4 10 11 8 29 -9
13 -12 24 -19 24 -14 0 4 9 0 19 -9 10 -10 22 -13 25 -8 3 5 -3 17 -14 27 -11
10 -20 14 -20 10 0 -4 -8 -1 -17 8 -10 8 -21 16 -25 16 -5 1 -8 3 -8 6 0 3 0
9 0 14 0 16 28 6 57 -19 19 -17 16 -12 -6 13 -19 20 -36 37 -37 37 -2 0 -10
-10 -18 -22z m35 -55 c13 -16 12 -17 -3 -4 -10 7 -18 15 -18 17 0 8 8 3 21
-13z m40 -20 c13 -16 12 -17 -3 -4 -10 7 -18 15 -18 17 0 8 8 3 21 -13z"/>
<path d="M1576 1002 c-3 -5 13 -15 35 -21 41 -12 61 -8 43 8 -14 14 -71 23
-78 13z"/>
<path d="M615 956 c-23 -7 -40 -18 -40 -26 0 -17 12 -16 73 7 74 28 47 44 -33
19z"/>
<path d="M1560 961 c0 -11 111 -52 122 -45 16 10 -12 32 -57 43 -53 13 -65 14
-65 2z"/>
<path d="M1385 908 l-40 -43 43 40 c39 36 47 45 39 45 -2 0 -21 -19 -42 -42z"/>
<path d="M615 906 c-80 -30 -118 -58 -90 -64 12 -3 169 61 184 75 3 2 0 7 -5
12 -5 4 -45 -6 -89 -23z"/>
<path d="M1547 926 c-4 -11 147 -86 176 -86 14 0 15 3 6 18 -15 23 -177 84
-182 68z"/>
<path d="M605 848 c-107 -49 -145 -72 -145 -90 0 -4 9 -8 20 -8 28 0 252 129
244 141 -6 11 10 17 -119 -43z"/>
<path d="M1241 873 c-19 -13 -47 -23 -62 -23 -15 0 -31 -5 -35 -12 -4 -6 -3
-8 3 -5 6 4 48 8 94 9 57 1 76 4 61 9 -19 7 -21 12 -13 27 14 26 -6 24 -48 -5z"/>
<path d="M1525 891 c-3 -5 47 -39 111 -75 109 -61 154 -78 154 -58 0 17 -36
41 -115 77 -131 61 -144 65 -150 56z"/>
<path d="M876 880 c5 -8 9 -18 9 -22 0 -3 4 -10 9 -15 5 -4 6 -3 2 4 -3 6 2
17 11 23 14 9 15 10 2 7 -9 -3 -22 0 -29 6 -10 9 -11 9 -4 -3z"/>
<path d="M950 873 c-13 -15 -12 -16 4 -10 10 4 24 1 32 -8 10 -10 33 -15 67
-14 48 1 49 2 17 8 -19 4 -50 15 -69 24 -19 9 -35 17 -35 17 -1 -1 -8 -8 -16
-17z"/>
<path d="M651 812 c-74 -47 -97 -72 -66 -72 19 0 165 99 165 112 0 16 -27 6
-99 -40z"/>
<path d="M1349 843 c-13 -16 -12 -17 4 -4 16 13 21 21 13 21 -2 0 -10 -8 -17
-17z"/>
<path d="M1500 852 c0 -14 149 -112 170 -112 35 0 12 24 -69 73 -77 46 -101
55 -101 39z"/>
<path d="M710 794 c-48 -38 -66 -70 -32 -56 28 11 103 78 95 85 -10 11 -15 8
-63 -29z"/>
<path d="M1389 813 c-13 -16 -12 -17 4 -4 16 13 21 21 13 21 -2 0 -10 -8 -17
-17z"/>
<path d="M1480 822 c0 -12 72 -78 93 -85 34 -12 17 19 -32 56 -49 38 -61 43
-61 29z"/>
<path d="M752 774 c-25 -20 -30 -29 -20 -35 8 -5 22 1 40 18 49 47 33 59 -20
17z"/>
<path d="M1470 770 c26 -36 33 -41 49 -31 9 6 4 15 -19 35 -42 35 -56 33 -30
-4z"/>
<path d="M778 742 c-39 -41 -58 -88 -29 -73 23 13 83 99 73 105 -5 3 -25 -12
-44 -32z"/>
<path d="M1428 774 c-8 -7 55 -94 78 -107 9 -5 14 -3 14 8 0 20 -83 109 -92
99z"/>
<path d="M786 679 c-54 -68 -73 -115 -42 -103 14 5 116 153 116 167 0 21 -25
-1 -74 -64z"/>
<path d="M1390 746 c0 -3 23 -41 51 -85 52 -82 79 -106 79 -71 0 23 -100 159
-117 159 -7 1 -13 -1 -13 -3z"/>
<path d="M810 628 c-59 -92 -85 -146 -76 -155 2 -2 10 -1 19 3 16 6 137 221
137 243 0 26 -19 4 -80 -91z"/>
<path d="M1360 720 c0 -15 109 -218 127 -235 8 -8 19 -15 24 -15 23 0 3 46
-63 149 -68 103 -88 126 -88 101z"/>
<path d="M870 630 c-39 -78 -48 -110 -31 -110 14 0 27 21 60 99 33 79 36 91
21 91 -5 0 -28 -36 -50 -80z"/>
<path d="M1326 701 c-5 -8 46 -136 67 -168 11 -18 27 -16 27 2 0 16 -77 175
-85 175 -2 0 -6 -4 -9 -9z"/>
<path d="M934 654 c-24 -57 -30 -98 -13 -92 13 4 28 39 43 101 9 40 -12 34
-30 -9z"/>
<path d="M1284 674 c4 -9 11 -36 17 -60 11 -42 39 -69 39 -38 0 32 -35 114
-48 114 -9 0 -12 -6 -8 -16z"/>
<path d="M982 643 c-9 -29 -9 -39 1 -45 12 -7 23 21 26 65 2 31 -15 18 -27
-20z"/>
<path d="M1244 658 c3 -13 6 -31 6 -40 0 -10 7 -18 16 -18 11 0 14 5 10 16 -3
9 -9 27 -12 40 -3 13 -11 24 -16 24 -6 0 -8 -10 -4 -22z"/>
<path d="M1027 656 c-14 -36 -18 -104 -7 -111 16 -10 18 -7 26 63 4 40 3 62
-4 62 -5 0 -12 -6 -15 -14z"/>
<path d="M1205 614 c8 -62 20 -88 30 -62 9 23 -9 111 -23 116 -11 3 -12 -8 -7
-54z"/>
<path d="M1066 623 c-16 -109 -18 -151 -6 -158 21 -13 30 17 30 108 0 89 -14
117 -24 50z"/>
<path d="M1108 528 c-2 -90 1 -139 8 -151 12 -18 13 -18 22 0 16 29 3 283 -14
283 -9 0 -13 -34 -16 -132z"/>
<path d="M1160 598 c0 -84 10 -140 24 -135 11 4 12 102 1 165 -10 54 -25 36
-25 -30z"/>
<path d="M387 1843 c-13 -12 -7 -21 53 -73 81 -70 99 -55 24 21 -59 60 -66 64
-77 52z"/>
<path d="M312 1757 c-24 -26 -29 -66 -10 -85 18 -18 35 -15 76 13 24 17 40 21
46 15 14 -14 -4 -42 -39 -59 -25 -12 -26 -15 -10 -23 22 -13 65 17 78 56 7 21
5 32 -9 47 -22 25 -32 24 -76 -6 -29 -20 -38 -22 -47 -11 -13 16 5 43 33 48
11 1 21 9 24 16 7 21 -43 13 -66 -11z"/>
<path d="M1878 1704 l-68 -43 21 -36 c24 -41 46 -55 84 -55 30 0 85 49 85 75
0 17 -35 91 -47 98 -5 3 -38 -15 -75 -39z m92 -46 c0 -22 -49 -60 -73 -56 -11
2 -26 13 -34 24 -13 20 -11 23 34 52 43 28 48 29 60 14 7 -9 13 -25 13 -34z"/>
<path d="M223 1618 c-6 -7 -18 -28 -27 -45 l-16 -33 71 -36 c55 -27 74 -33 83
-24 8 9 8 14 0 17 -6 2 -20 10 -30 17 -16 12 -16 16 -4 31 9 11 23 15 41 11
17 -3 32 0 39 9 9 11 5 15 -25 21 -20 3 -39 4 -42 0 -3 -3 -11 4 -17 17 -13
25 -57 35 -73 15z m52 -28 c9 -14 -4 -50 -18 -50 -28 1 -39 17 -28 39 12 22
36 28 46 11z"/>
<path d="M1980 1543 c-25 -2 -55 -6 -67 -8 -30 -7 -19 -33 11 -28 32 7 54 -42
30 -68 -10 -12 -13 -23 -7 -33 7 -13 20 -4 71 47 45 45 61 68 56 80 -3 10 -15
16 -28 15 -11 -1 -41 -3 -66 -5z m39 -49 c-22 -23 -24 -24 -36 -8 -16 21 -2
34 36 34 l24 0 -24 -26z"/>
<path d="M141 1430 c-7 -28 -11 -53 -8 -56 4 -4 141 -44 151 -44 4 0 26 83 26
99 0 24 -19 9 -30 -25 -17 -49 -46 -43 -43 9 3 45 -11 48 -26 6 -13 -38 -48
-37 -43 1 7 49 7 53 -4 57 -5 2 -16 -19 -23 -47z"/>
<path d="M2050 1389 c-79 -15 -90 -19 -90 -34 0 -12 8 -14 40 -9 38 6 40 5 40
-19 0 -14 3 -32 6 -41 4 -11 0 -16 -14 -16 -31 0 -52 -11 -52 -27 0 -11 8 -13
28 -9 137 26 141 27 135 42 -4 11 -14 13 -39 8 -29 -5 -34 -3 -34 12 0 11 -3
29 -6 40 -5 18 0 22 30 28 25 5 34 11 29 21 -6 16 -8 17 -73 4z"/>
<path d="M110 1311 c0 -13 19 -27 63 -47 l62 -28 -67 -9 c-51 -8 -68 -14 -71
-28 -6 -23 -11 -23 91 -3 72 15 82 19 82 38 -1 16 -18 29 -80 58 -71 33 -80
35 -80 19z"/>
<path d="M1990 1145 c0 -42 4 -55 15 -55 10 0 14 10 12 38 l-2 37 68 3 c51 2
67 6 67 17 0 12 -17 15 -80 15 l-80 0 0 -55z"/>
<path d="M100 1115 c0 -12 16 -15 80 -15 64 0 80 3 80 15 0 12 -16 15 -80 15
-64 0 -80 -3 -80 -15z"/>
<path d="M210 1064 c-8 -1 -36 -6 -62 -9 -32 -4 -48 -11 -48 -21 0 -11 11 -13
56 -8 l56 7 -51 -48 c-63 -59 -67 -79 -13 -71 20 3 58 8 85 12 32 4 47 11 47
21 0 13 -10 14 -57 9 l-58 -7 48 45 c63 59 62 84 -3 70z"/>
<path d="M1990 1055 c0 -7 7 -18 16 -23 25 -14 15 -66 -13 -70 -15 -2 -23 -10
-23 -22 0 -19 -6 -20 146 15 12 3 24 13 26 23 4 15 -9 26 -69 55 -84 42 -83
42 -83 22z m99 -59 l23 -13 -23 -6 c-39 -11 -49 -8 -49 13 0 23 15 25 49 6z"/>
<path d="M1957 886 c-4 -9 3 -16 18 -20 13 -3 37 -11 52 -17 28 -11 27 -12
-37 -34 -36 -12 -65 -28 -65 -35 0 -7 30 -23 69 -37 82 -27 86 -27 86 -9 0 8
-17 20 -37 27 -61 19 -60 22 8 44 35 12 64 28 64 35 0 7 -30 23 -69 37 -82 27
-82 27 -89 9z"/>
<path d="M194 868 c-69 -23 -65 -20 -55 -37 7 -10 19 -10 64 5 66 21 90 15 85
-23 -3 -23 -11 -29 -60 -46 -34 -11 -58 -24 -58 -33 0 -8 4 -14 8 -14 20 0
109 34 125 48 33 29 13 103 -32 115 -10 2 -45 -4 -77 -15z"/>
<path d="M457 530 c63 -86 149 -171 218 -216 62 -41 71 -53 23 -28 -64 33
-124 79 -218 169 -52 50 -80 72 -63 50 34 -44 171 -178 218 -213 l30 -23 -32
16 c-43 20 -131 91 -222 179 l-75 71 51 -60 c72 -86 151 -158 223 -204 66 -43
74 -57 11 -19 -59 36 -152 108 -221 173 l-64 60 42 -51 c47 -58 121 -123 202
-178 72 -49 77 -56 15 -21 -46 26 -137 94 -255 192 l-45 37 50 -53 c154 -164
360 -276 473 -256 32 5 41 13 68 63 17 31 29 63 27 70 -3 8 -28 12 -77 12
-127 0 -206 51 -396 260 -18 19 -10 6 17 -30z"/>
<path d="M1732 480 c-84 -89 -116 -116 -174 -145 -62 -30 -80 -35 -144 -35
-49 0 -74 -4 -77 -12 -2 -7 10 -39 27 -70 27 -50 36 -58 68 -63 110 -19 308
86 463 244 66 68 51 65 -27 -5 -66 -59 -157 -127 -220 -164 -52 -30 -48 -19 5
15 75 49 176 136 219 189 41 49 39 48 -33 -19 -75 -70 -210 -169 -246 -181
-10 -4 11 12 46 35 73 48 151 120 224 206 l52 60 -81 -76 c-96 -90 -176 -155
-218 -175 l-31 -15 30 23 c47 35 184 169 218 213 17 22 -11 0 -63 -50 -94 -90
-154 -136 -217 -169 -49 -25 -40 -13 22 28 67 44 152 128 218 214 27 34 47 62
45 62 -2 -1 -49 -50 -106 -110z"/>
<path d="M1177 285 c-3 -6 -1 -18 4 -26 12 -19 11 -76 -1 -84 -6 -4 -10 6 -10
24 0 51 -17 83 -42 79 -22 -3 -30 -18 -43 -80 -3 -16 -9 -27 -13 -27 -19 3
-23 -2 -12 -16 14 -17 6 -33 -24 -45 -27 -10 -56 5 -56 31 0 11 23 41 50 68
28 27 50 54 50 60 0 6 -22 -1 -50 -17 -51 -28 -67 -49 -28 -36 21 6 20 5 -6
-26 -34 -41 -34 -98 2 -111 17 -7 29 -2 55 20 21 19 46 30 74 32 36 4 44 1 55
-19 26 -49 73 -49 99 1 12 21 11 21 -8 5 -27 -24 -45 -23 -72 6 -19 20 -21 28
-12 44 6 12 11 37 11 56 0 20 3 36 6 36 21 0 49 -29 70 -73 22 -46 24 -48 18
-17 -7 36 -36 86 -64 107 -23 18 -48 22 -53 8z m-40 -33 c7 -4 16 -27 22 -50
10 -49 1 -59 -44 -48 -23 6 -25 10 -20 44 11 65 16 71 42 54z"/>
<path d="M1164 72 c1 -17 19 -17 24 0 3 10 1 10 -6 -1 -9 -12 -11 -12 -14 0
-3 9 -5 10 -4 1z"/>
</g>
</svg>
