<?xml version="1.0" standalone="no"?>
<!DOCTYPE svg PUBLIC "-//W3C//DTD SVG 20010904//EN"
 "http://www.w3.org/TR/2001/REC-SVG-20010904/DTD/svg10.dtd">
<svg version="1.0" xmlns="http://www.w3.org/2000/svg"
 width="1236.000000pt" height="1254.000000pt" viewBox="0 0 1236.000000 1254.000000"
 preserveAspectRatio="xMidYMid meet">

<g transform="translate(0.000000,1254.000000) scale(0.100000,-0.100000)"
fill="#000000" stroke="none">
<path d="M6147 12045 c-9 -20 -17 -41 -17 -48 0 -7 -13 -46 -29 -87 -35 -91
-103 -169 -210 -241 -177 -121 -385 -168 -993 -225 -86 -8 -194 -23 -240 -33
-142 -33 -339 -99 -411 -138 -31 -17 -180 -105 -222 -131 -11 -7 -31 -18 -45
-24 -45 -22 -158 -117 -177 -148 -9 -16 -21 -30 -25 -30 -14 0 -163 -232 -179
-280 -7 -19 -20 -48 -30 -65 -11 -16 -19 -40 -19 -53 0 -37 -23 -36 -101 5
-77 40 -212 96 -314 131 -107 36 -130 45 -159 60 -17 9 -59 15 -105 16 l-76 1
-5 -64 c-3 -36 0 -119 7 -185 7 -67 17 -168 22 -226 9 -94 29 -217 47 -277 8
-30 -22 -44 -99 -45 -154 -1 -348 -64 -527 -172 -103 -61 -118 -72 -199 -144
-99 -88 -159 -150 -188 -193 -14 -21 -29 -39 -32 -39 -4 0 -15 -15 -26 -32
-10 -18 -28 -45 -39 -59 -12 -15 -30 -42 -41 -60 -11 -18 -32 -54 -47 -79 -39
-66 -148 -288 -148 -302 0 -7 -12 -35 -25 -63 -14 -27 -25 -60 -25 -71 0 -12
-7 -27 -15 -34 -8 -7 -15 -18 -15 -24 -1 -23 -136 -272 -190 -350 -8 -12 -25
-38 -38 -58 -29 -46 -123 -126 -189 -161 -70 -38 -186 -64 -333 -78 -69 -6
-129 -14 -133 -19 -5 -4 17 -28 49 -51 134 -101 195 -165 240 -251 l38 -73 4
-165 c5 -197 -19 -427 -68 -665 -10 -49 -24 -125 -30 -168 -6 -43 -18 -97 -25
-120 -30 -92 -46 -408 -26 -512 5 -27 7 -53 5 -57 -8 -13 40 -214 63 -260 12
-26 23 -58 23 -72 0 -32 54 -165 86 -214 64 -96 196 -235 306 -321 38 -29 68
-57 68 -61 0 -5 -12 -18 -28 -30 -78 -61 -339 -313 -363 -351 -10 -14 -39 -50
-67 -80 -55 -61 -102 -126 -102 -143 0 -24 69 -49 270 -98 47 -11 119 -28 160
-38 67 -16 109 -23 272 -46 68 -9 78 -20 68 -74 -4 -25 -15 -72 -25 -105 -23
-79 -23 -334 0 -415 9 -30 24 -87 35 -127 10 -39 31 -94 45 -122 14 -28 25
-56 25 -63 0 -18 106 -205 137 -243 14 -16 51 -65 82 -107 65 -86 141 -160
346 -338 302 -262 486 -452 538 -555 8 -16 28 -70 45 -120 27 -81 30 -104 32
-223 1 -107 -3 -149 -21 -218 -12 -46 -19 -88 -15 -91 3 -4 19 3 34 14 151
111 333 170 494 160 88 -6 195 -32 283 -69 103 -43 122 -51 190 -83 157 -73
254 -121 315 -156 8 -5 31 -17 50 -26 19 -9 69 -33 110 -53 41 -21 93 -43 115
-50 40 -12 141 -50 202 -76 18 -7 90 -26 160 -41 119 -26 144 -28 353 -28
l225 0 94 33 c51 17 102 32 112 32 10 0 21 4 24 10 3 5 24 14 46 20 44 12 167
91 211 135 35 35 54 27 68 -27 62 -245 307 -663 392 -668 15 0 93 92 153 183
36 53 65 99 65 102 0 2 13 23 29 47 29 45 92 160 161 298 37 71 44 80 69 80
17 0 45 -14 72 -35 24 -19 48 -35 52 -35 4 0 45 -18 90 -40 47 -23 109 -45
147 -51 36 -6 98 -17 139 -26 58 -12 110 -14 250 -9 159 5 192 9 317 41 149
39 277 95 398 174 38 25 76 51 84 56 68 45 183 115 188 115 3 0 23 13 43 29
65 51 138 99 187 124 27 14 83 46 124 71 41 25 77 46 81 46 3 0 47 22 97 50
181 100 286 119 474 86 70 -12 98 -23 154 -59 38 -24 80 -56 93 -71 27 -28 61
-35 61 -11 0 8 -9 38 -20 67 -48 131 -55 300 -15 393 9 22 18 50 20 63 1 12
10 31 19 41 9 9 16 22 16 28 0 13 65 111 94 140 11 12 32 38 46 58 14 20 49
61 78 93 29 31 56 60 60 65 18 20 201 195 318 304 72 66 146 142 165 168 19
26 48 63 65 83 41 49 123 172 163 247 18 33 37 65 43 72 5 6 18 33 28 60 10
26 31 80 47 118 34 80 47 143 64 302 11 103 11 121 -10 240 -12 70 -25 143
-28 161 -4 23 -2 32 8 32 8 0 73 10 144 21 72 11 150 22 174 24 23 2 71 13
105 24 33 11 90 23 126 26 36 4 74 10 85 15 97 40 145 65 145 75 0 16 -86 157
-133 220 -114 152 -193 241 -316 356 -61 57 -111 107 -111 111 0 4 17 25 38
46 84 84 201 252 237 337 10 22 23 54 31 70 21 46 73 228 94 329 33 163 28
401 -13 566 -9 36 -24 108 -33 160 -9 52 -21 104 -27 114 -5 11 -15 58 -22
105 -7 47 -21 122 -31 166 -13 61 -18 129 -18 280 -1 180 1 206 20 260 33 91
81 192 97 202 16 9 147 182 147 193 0 4 18 14 41 23 50 20 43 37 -14 37 -64 1
-236 27 -292 45 -63 20 -146 75 -202 133 -39 41 -153 197 -209 286 -26 40
-124 252 -124 267 0 5 -11 31 -24 57 -13 26 -27 63 -31 82 -4 19 -20 58 -36
86 -16 28 -29 58 -29 66 0 7 -23 52 -51 98 -62 105 -57 97 -99 155 -19 26 -52
71 -72 99 -66 93 -91 120 -154 173 -56 47 -234 163 -250 163 -4 0 -34 13 -68
28 -129 60 -216 77 -422 81 -22 1 -48 7 -57 14 -16 11 -16 17 4 82 21 70 24
82 54 225 8 41 22 161 30 265 7 105 16 199 20 210 3 11 1 27 -4 35 -9 12 -21
11 -93 -9 -46 -12 -105 -28 -133 -35 -27 -7 -70 -22 -95 -34 -25 -11 -63 -26
-85 -33 -22 -6 -78 -28 -125 -47 -47 -19 -98 -40 -115 -46 -16 -6 -46 -21 -65
-33 -51 -31 -118 -56 -134 -50 -12 5 -86 144 -86 161 0 10 -77 117 -132 185
-60 71 -197 189 -288 246 -25 15 -74 47 -110 70 -75 48 -232 125 -255 125 -9
0 -35 10 -58 21 -23 12 -96 35 -162 50 -112 27 -137 29 -386 34 -341 6 -461
18 -608 62 -254 75 -396 207 -471 438 -16 49 -47 95 -64 95 -7 0 -20 -16 -29
-35z m142 -452 c49 -45 103 -86 118 -89 15 -4 37 -13 48 -20 23 -15 156 -58
230 -74 150 -34 318 -56 500 -65 226 -12 415 -36 530 -70 257 -74 529 -237
676 -405 80 -90 156 -213 174 -278 6 -27 18 -58 25 -71 19 -37 51 -229 51
-316 0 -78 -34 -302 -50 -334 -5 -9 -12 -37 -16 -64 -4 -26 -16 -58 -26 -71
-11 -13 -19 -27 -19 -31 0 -13 -152 -278 -188 -330 -20 -27 -59 -84 -87 -125
-60 -89 -140 -193 -175 -229 -14 -14 -52 -59 -83 -99 -32 -40 -76 -91 -98
-114 -21 -23 -58 -67 -81 -97 -58 -78 -106 -127 -114 -118 -4 4 -10 24 -13 44
l-7 38 -52 -3 c-42 -2 -52 0 -52 13 0 22 27 72 62 117 44 56 92 125 150 217
29 45 89 138 133 205 44 67 89 139 100 161 11 22 32 58 46 80 71 109 168 353
186 465 23 147 17 347 -14 450 -56 187 -197 355 -376 449 -124 64 -318 114
-517 131 -69 5 -138 12 -155 15 -251 39 -397 70 -510 108 -80 28 -254 118
-302 157 -35 28 -158 172 -175 205 -6 11 -16 23 -22 27 -11 7 -46 -18 -46 -34
0 -18 -79 -115 -125 -152 -49 -41 -191 -136 -202 -136 -3 0 -31 -12 -61 -26
-68 -32 -191 -71 -297 -94 -44 -10 -98 -23 -120 -29 -22 -6 -114 -20 -205 -31
-327 -39 -611 -114 -775 -206 -63 -35 -184 -156 -209 -209 -11 -22 -29 -60
-41 -85 -71 -142 -90 -374 -49 -560 36 -158 110 -333 274 -645 52 -100 68
-123 126 -193 17 -20 41 -54 53 -75 13 -21 48 -68 79 -106 93 -113 152 -190
158 -206 5 -12 -2 -15 -33 -15 -40 0 -63 -16 -76 -52 -15 -41 -47 -16 -192
146 -38 44 -92 102 -118 130 -26 28 -73 86 -105 130 -31 43 -86 117 -121 165
-148 199 -341 510 -341 549 0 7 -7 27 -16 43 -44 86 -72 402 -47 539 7 36 16
92 22 125 9 55 22 88 87 218 51 101 167 235 274 317 25 19 50 38 55 42 151
120 384 218 620 262 172 31 184 33 265 41 36 3 133 15 215 26 83 11 193 24
245 30 52 5 113 15 135 20 89 23 212 62 252 80 24 10 46 19 51 19 8 0 92 58
102 70 3 4 36 34 74 69 80 71 60 76 195 -46z m-71 -367 c15 -8 33 -25 41 -38
7 -12 29 -35 49 -50 20 -14 60 -44 87 -65 53 -41 144 -83 179 -83 11 0 44 -9
72 -20 29 -10 83 -26 120 -35 38 -9 78 -19 89 -21 11 -3 76 -14 145 -25 69
-11 141 -24 160 -29 19 -6 67 -10 107 -10 43 0 96 -8 135 -20 34 -11 75 -20
91 -20 15 0 49 -9 75 -21 26 -11 62 -27 81 -35 38 -17 221 -161 221 -174 0 -5
13 -25 30 -43 16 -19 52 -78 79 -133 101 -203 107 -444 17 -694 -59 -165 -67
-183 -87 -211 -10 -15 -19 -30 -19 -34 0 -12 -100 -184 -155 -265 -27 -41 -56
-86 -63 -100 -25 -51 -129 -212 -160 -251 -28 -34 -38 -36 -45 -9 -7 29 -31
34 -68 16 -38 -19 -49 -10 -49 42 0 33 -24 92 -38 92 -4 0 -20 -7 -36 -15 -15
-8 -31 -13 -36 -10 -4 2 -10 36 -13 76 -3 39 -11 77 -17 84 -6 8 -28 15 -48
17 l-37 3 -17 73 c-24 106 -39 117 -112 87 -41 -17 -40 -19 -50 92 -6 65 -37
162 -57 174 -14 9 -65 -8 -101 -33 -14 -10 -31 -18 -36 -18 -5 0 -13 33 -17
73 -9 88 -52 247 -87 315 -17 33 -31 28 -81 -28 -25 -28 -48 -46 -51 -42 -3 5
-5 60 -5 122 0 116 -9 177 -41 265 -10 28 -27 79 -38 115 -34 108 -150 352
-200 418 -36 47 -34 49 -112 -93 -44 -79 -57 -106 -80 -165 -22 -55 -36 -86
-57 -125 -54 -98 -103 -293 -111 -437 -4 -82 -11 -91 -48 -63 -34 26 -62 18
-89 -25 -14 -22 -25 -44 -25 -50 0 -6 -10 -41 -23 -78 -13 -37 -30 -102 -37
-145 -15 -90 -28 -102 -69 -63 -63 61 -107 10 -124 -146 l-10 -97 -46 34 c-60
43 -96 53 -106 28 -4 -10 -10 -66 -13 -125 -3 -73 -8 -108 -16 -108 -7 0 -29
9 -51 20 -25 13 -42 16 -50 10 -11 -9 -28 -57 -40 -112 -5 -24 -10 -27 -53
-30 l-47 -3 -14 -68 -14 -69 -31 7 c-56 13 -71 11 -81 -12 -5 -13 -16 -23 -23
-23 -25 0 -149 140 -219 247 -58 88 -104 154 -124 178 -9 11 -37 59 -61 107
-25 47 -55 98 -67 113 -11 15 -21 35 -21 44 0 9 -14 39 -30 66 -16 28 -30 57
-30 65 0 9 -9 34 -20 55 -24 46 -52 156 -70 270 -11 70 -10 91 5 165 32 159
26 145 122 322 27 51 167 182 238 224 39 22 99 48 135 58 36 9 85 24 110 32
55 17 264 63 340 74 30 4 94 13 143 19 48 7 100 16 115 22 15 6 61 17 102 26
229 46 495 174 605 290 45 48 46 48 83 29z m3268 -588 c-13 -149 -29 -259 -37
-264 -5 -3 -9 -20 -9 -39 0 -18 -4 -55 -10 -82 -5 -26 -15 -74 -21 -106 -16
-85 -38 -105 -127 -116 -40 -5 -78 -14 -85 -19 -7 -6 -39 -18 -72 -27 -33 -10
-72 -26 -86 -36 -15 -10 -60 -36 -100 -57 -41 -21 -101 -58 -134 -81 -33 -23
-61 -38 -63 -32 -2 5 11 51 28 103 54 160 72 275 68 426 l-3 134 70 36 c125
63 139 70 235 106 52 20 118 48 147 61 28 14 57 25 63 25 7 0 26 6 43 14 44
20 59 24 81 25 17 1 18 -5 12 -71z m-6444 -62 c98 -33 254 -102 438 -196 12
-6 16 -42 21 -191 6 -154 11 -198 32 -269 52 -176 49 -183 -53 -121 -33 21
-166 81 -177 81 -7 0 -27 7 -45 14 -32 14 -125 43 -215 66 -44 11 -49 20 -58
103 -9 77 -27 185 -36 215 -6 18 -13 98 -16 177 -7 169 -14 162 109 121z
m3197 -34 c37 -74 90 -210 106 -276 7 -28 24 -89 38 -136 30 -104 40 -232 27
-365 -6 -55 -15 -183 -20 -285 -5 -102 -15 -221 -20 -265 -6 -44 -14 -156 -19
-249 -6 -93 -14 -173 -19 -178 -11 -11 -241 -11 -268 -1 -11 4 -14 31 -14 132
0 143 -26 503 -56 786 -2 17 -6 91 -10 165 -6 139 -6 140 40 295 23 77 61 182
101 275 20 47 40 97 45 112 20 65 32 63 69 -10z m3585 -698 c168 -55 311 -137
473 -272 64 -54 134 -139 147 -179 4 -12 13 -24 21 -27 8 -3 15 -12 15 -20 0
-8 8 -21 18 -28 10 -7 32 -38 49 -68 48 -86 150 -292 158 -320 13 -48 199
-414 225 -444 15 -17 39 -50 54 -74 26 -41 58 -75 168 -175 40 -36 120 -83
206 -121 12 -5 22 -13 22 -18 0 -5 -17 -39 -38 -76 -82 -144 -112 -296 -105
-522 5 -123 31 -297 93 -626 62 -322 53 -601 -26 -834 -8 -25 -20 -62 -25 -82
-5 -21 -27 -73 -49 -115 -22 -43 -40 -81 -40 -85 0 -7 -42 -73 -111 -174 -8
-13 -31 -36 -50 -51 -19 -16 -56 -50 -84 -76 -45 -43 -214 -146 -268 -163 -12
-4 -50 -20 -84 -35 -59 -28 -68 -29 -225 -31 -125 -1 -179 3 -233 16 -38 9
-104 23 -145 31 -41 7 -88 18 -103 24 -16 6 -33 8 -38 5 -6 -3 -15 -2 -22 4
-7 5 -34 15 -62 22 -62 16 -223 67 -250 79 -11 4 -54 18 -95 30 -75 22 -129
41 -310 108 -159 59 -200 76 -200 82 0 3 7 15 15 25 8 11 15 37 15 57 0 54 22
73 80 66 25 -3 66 -13 90 -22 47 -18 239 -68 400 -104 323 -72 720 -99 900
-61 222 47 371 142 486 307 96 136 134 269 134 469 0 154 -17 363 -35 434 -14
55 -42 238 -43 275 0 11 0 124 -1 250 -2 180 1 246 14 305 9 41 22 102 28 135
17 79 80 189 127 222 28 20 25 41 -7 49 -43 10 -115 44 -150 70 -17 13 -36 24
-40 24 -5 0 -18 8 -29 19 -11 10 -30 24 -42 30 -12 6 -22 20 -22 31 0 13 -14
27 -39 40 -48 24 -71 46 -139 131 -82 103 -136 192 -217 359 -41 85 -80 162
-85 170 -5 8 -27 52 -49 97 -22 45 -59 107 -83 137 -24 29 -63 79 -87 110 -24
31 -50 56 -57 56 -8 0 -14 6 -14 14 0 14 -140 126 -158 126 -5 0 -26 11 -46
25 -21 14 -58 30 -83 35 -25 6 -58 17 -73 25 -34 17 -190 21 -265 6 -142 -28
-345 -130 -504 -254 -58 -45 -176 -152 -264 -237 -87 -85 -162 -156 -168 -158
-5 -2 -9 -9 -9 -16 0 -7 -16 -28 -36 -47 -20 -18 -50 -54 -67 -79 -17 -25 -60
-79 -97 -120 -36 -41 -92 -114 -125 -162 -66 -95 -76 -103 -128 -113 -41 -8
-44 -3 -66 89 -11 47 -11 51 17 90 16 23 32 48 35 56 4 8 45 69 92 135 47 66
105 150 130 186 25 37 52 72 61 80 9 7 20 23 24 35 5 12 37 61 72 109 35 48
71 101 80 116 10 16 43 60 75 97 31 37 62 73 67 81 6 7 49 51 96 98 90 90 231
197 290 220 19 8 51 22 70 32 37 20 104 41 230 72 105 26 117 27 284 23 128
-3 160 -7 230 -30z m-6730 -84 c120 -25 182 -48 296 -110 135 -74 262 -181
343 -290 22 -30 66 -85 96 -122 31 -36 72 -88 91 -115 19 -26 37 -50 41 -53 3
-3 21 -27 40 -54 50 -70 67 -94 134 -181 33 -43 73 -96 89 -118 16 -22 38 -49
47 -58 10 -10 27 -36 38 -57 11 -21 27 -45 37 -53 9 -7 28 -31 41 -52 l25 -39
-21 -22 c-11 -11 -25 -34 -31 -50 -10 -27 -13 -28 -56 -23 -54 6 -80 28 -217
187 -50 58 -105 119 -121 135 -17 17 -67 71 -111 120 -135 152 -356 365 -429
414 -137 92 -152 101 -186 112 -19 6 -45 17 -56 25 -21 13 -134 46 -224 65
-25 5 -99 8 -166 5 -103 -4 -131 -9 -196 -35 -96 -38 -180 -83 -243 -131 -49
-36 -143 -143 -180 -205 -10 -16 -35 -54 -54 -84 -48 -71 -42 -60 -104 -191
-103 -215 -128 -265 -180 -350 -79 -129 -105 -168 -117 -175 -6 -3 -20 -25
-31 -47 -11 -22 -61 -80 -110 -128 -73 -71 -109 -98 -188 -138 -61 -31 -117
-52 -152 -57 -55 -7 -89 -20 -89 -33 0 -4 24 -32 52 -63 63 -68 112 -179 130
-297 7 -45 12 -179 12 -322 -1 -209 -4 -261 -22 -356 -12 -61 -29 -164 -38
-230 -8 -65 -20 -153 -26 -194 -6 -41 -10 -146 -9 -232 l2 -157 43 -124 c24
-68 51 -133 60 -143 9 -10 37 -44 61 -75 73 -93 179 -167 295 -206 193 -65
244 -74 420 -78 136 -3 187 3 395 44 197 39 239 48 340 76 55 15 134 35 175
45 71 17 175 50 285 91 88 33 125 21 125 -41 0 -21 7 -45 15 -54 8 -8 15 -19
15 -25 0 -10 -300 -161 -320 -161 -5 0 -33 -11 -62 -24 -89 -41 -325 -131
-473 -180 -319 -107 -445 -130 -625 -115 -171 14 -253 28 -320 54 -35 14 -68
25 -73 25 -18 0 -151 63 -202 96 -128 81 -314 289 -359 401 -14 32 -31 72 -40
88 -9 17 -16 37 -16 46 0 9 -14 59 -30 110 -35 108 -40 153 -44 419 -4 252 14
407 79 685 20 86 37 204 50 335 17 181 17 199 1 299 -9 57 -23 116 -31 132 -8
15 -15 34 -15 42 0 8 -22 44 -50 80 -46 62 -48 68 -30 77 10 5 25 10 33 10 24
0 145 66 200 109 141 108 292 305 359 466 16 39 46 104 67 145 21 41 42 86 46
100 14 47 166 324 218 398 82 116 104 142 187 227 130 131 255 233 311 250 12
4 40 20 62 36 22 16 49 29 59 29 10 0 36 9 56 19 86 44 300 83 411 75 41 -3
115 -14 165 -24z m2753 -22 c18 -18 36 -45 42 -61 12 -31 31 -245 36 -406 2
-58 8 -153 13 -211 6 -58 13 -146 16 -197 l6 -91 -28 -6 c-93 -18 -100 -18
-110 1 -10 18 -26 110 -42 248 -5 39 -21 138 -35 220 -29 165 -30 289 -2 375
8 25 22 71 31 103 9 31 23 57 30 57 6 0 26 -15 43 -32z m766 0 c20 -45 38
-134 37 -194 0 -96 -2 -118 -30 -344 -5 -47 -12 -112 -15 -145 -3 -33 -14
-109 -25 -170 -10 -60 -20 -111 -20 -112 -1 -8 -130 -2 -134 6 -3 5 1 67 9
138 8 70 17 199 20 285 3 86 9 190 14 230 6 40 13 105 16 145 6 61 13 81 46
132 22 34 46 61 53 61 8 0 21 -15 29 -32z m238 -309 c28 -53 -2 -312 -55 -479
-8 -25 -20 -73 -26 -108 -19 -108 -39 -130 -91 -102 -29 16 -27 61 15 354 9
60 16 135 16 165 0 69 26 129 71 164 41 32 55 34 70 6z m-1256 -33 c28 -28 38
-62 60 -199 9 -56 25 -140 35 -187 10 -47 24 -123 31 -169 12 -78 12 -84 -6
-97 -23 -17 -71 -18 -81 -3 -3 6 -10 36 -14 67 -4 32 -16 95 -28 142 -50 204
-62 271 -62 349 0 80 10 121 31 121 5 0 21 -11 34 -24z m4125 -86 c47 -11 97
-29 112 -40 15 -11 37 -20 48 -20 25 0 35 -9 203 -181 20 -21 37 -43 37 -48 0
-5 14 -25 31 -43 36 -39 75 -103 149 -247 146 -279 184 -348 205 -371 12 -14
30 -38 38 -55 22 -44 194 -223 233 -243 56 -29 144 -92 145 -105 3 -26 -4 -52
-17 -73 -23 -35 -62 -190 -74 -294 -14 -120 -14 -420 0 -525 6 -44 14 -136 20
-205 5 -69 14 -177 20 -240 9 -94 9 -141 -4 -253 -14 -132 -17 -142 -60 -220
-50 -92 -146 -217 -176 -231 -11 -5 -20 -12 -20 -16 0 -14 -120 -99 -167 -119
-125 -52 -368 -73 -577 -51 -109 11 -346 55 -441 81 -38 10 -79 19 -89 19 -22
0 -200 55 -234 72 -22 11 -52 55 -52 76 0 4 18 21 40 38 37 27 40 32 38 73 -2
36 2 47 21 60 12 9 36 28 53 42 29 24 30 28 20 59 -15 41 -9 49 72 97 34 19
64 40 68 47 14 21 8 63 -11 80 -10 10 -21 26 -24 36 -5 21 25 54 60 64 44 14
163 120 163 147 0 9 -16 30 -37 46 -41 34 -38 46 14 64 71 23 285 179 291 212
4 18 -48 54 -103 72 -36 12 -35 27 3 38 70 20 104 33 197 78 55 27 123 63 150
81 28 19 72 46 98 62 51 29 118 92 178 166 60 75 131 190 127 208 -2 12 -25
23 -73 36 -39 10 -98 27 -131 37 -120 36 -366 45 -494 17 -30 -6 -95 -29 -145
-51 -49 -21 -96 -41 -103 -44 -10 -4 -13 9 -11 59 1 36 -1 70 -5 76 -7 12
-274 6 -340 -8 -48 -11 -59 -5 -45 21 5 11 9 34 7 51 -4 43 -48 55 -121 35
-29 -8 -80 -18 -114 -21 l-63 -7 0 61 c0 73 -7 78 -94 61 -127 -26 -116 -28
-116 13 0 29 -4 37 -24 42 -14 3 -40 1 -58 -4 -18 -6 -50 -13 -70 -17 l-37 -6
-3 53 -3 53 -70 0 c-79 0 -95 7 -95 39 0 27 -18 46 -42 46 -34 0 -31 6 95 165
26 33 56 69 67 80 11 12 20 24 20 29 0 13 97 124 164 189 190 183 251 239 274
254 15 10 34 24 43 32 129 122 259 207 376 247 127 44 335 54 463 24z m-6731
-85 c81 -9 137 -21 163 -35 21 -11 45 -20 54 -20 34 0 147 -69 257 -157 212
-169 446 -423 625 -676 43 -61 44 -72 7 -79 -15 -2 -21 -12 -23 -42 -3 -37 -4
-38 -38 -32 -19 3 -50 9 -69 12 -49 9 -85 -2 -85 -26 0 -10 5 -22 10 -25 6 -3
10 -12 10 -19 0 -9 -24 -15 -79 -19 -100 -6 -125 -19 -117 -58 3 -15 1 -31 -3
-34 -5 -3 -35 -2 -68 3 -78 10 -102 5 -115 -23 -8 -18 -7 -32 2 -55 19 -46 4
-54 -65 -30 -66 23 -223 28 -242 9 -9 -9 -7 -24 8 -61 22 -56 24 -88 7 -88 -7
0 -51 7 -98 15 -112 19 -305 26 -319 12 -18 -18 -13 -41 19 -88 52 -77 39 -93
-56 -65 -27 8 -85 22 -129 31 -44 10 -100 22 -125 27 -64 15 -406 11 -531 -6
-109 -14 -149 -27 -149 -49 0 -33 403 -417 437 -417 4 0 23 -11 42 -24 58 -38
172 -99 226 -121 73 -30 125 -58 125 -66 0 -4 -22 -20 -50 -35 -27 -15 -50
-32 -50 -39 0 -17 35 -45 120 -100 41 -26 78 -52 81 -58 4 -5 26 -20 50 -32
55 -27 60 -49 20 -86 -17 -15 -31 -34 -31 -42 0 -17 60 -72 88 -82 11 -3 57
-28 102 -54 l81 -49 -31 -26 c-17 -14 -36 -26 -41 -26 -5 0 -9 -9 -9 -20 0
-21 45 -69 65 -70 6 0 39 -14 74 -30 63 -30 63 -31 56 -63 -14 -61 -11 -70 31
-101 23 -17 49 -36 59 -41 16 -10 16 -13 -5 -49 -19 -34 -20 -43 -9 -64 8 -13
31 -33 52 -43 32 -17 37 -24 31 -42 -18 -59 -34 -86 -56 -92 -12 -3 -48 -16
-78 -29 -57 -25 -161 -57 -265 -82 -33 -8 -89 -23 -125 -34 -36 -10 -96 -26
-135 -35 -38 -8 -95 -22 -125 -31 -59 -16 -186 -31 -340 -41 -115 -7 -245 10
-321 43 -31 13 -64 24 -74 24 -33 0 -166 94 -229 161 -82 87 -108 133 -151
264 -55 169 -57 352 -5 660 6 33 19 141 31 240 32 283 17 619 -36 773 -14 41
-25 78 -25 82 0 4 19 19 43 33 23 14 54 36 68 48 14 13 56 51 93 83 37 33 78
75 92 95 13 20 48 68 79 106 60 76 158 218 185 269 197 362 228 417 290 504
106 148 222 241 358 288 33 12 174 38 227 43 6 0 66 -6 134 -14z m2448 -53
c21 -29 30 -58 64 -222 11 -52 26 -117 34 -144 23 -75 20 -104 -10 -112 -36
-9 -53 1 -69 38 -7 18 -21 50 -30 71 -9 21 -16 48 -16 61 0 13 -7 43 -16 67
-37 104 -55 264 -33 286 15 15 46 -4 76 -45z m1597 42 c18 -46 2 -141 -48
-284 -22 -63 -45 -137 -59 -190 -13 -49 -32 -59 -80 -41 -33 13 -34 30 -6 118
21 64 48 172 72 283 18 81 103 162 121 114z m131 -214 c9 -42 -10 -123 -57
-242 -49 -126 -56 -136 -88 -110 -23 19 -23 21 -11 78 7 33 26 96 42 142 16
46 29 91 29 102 0 20 57 73 70 65 5 -3 11 -19 15 -35z m-1906 -7 c24 -21 94
-204 118 -312 6 -26 -9 -41 -43 -41 -18 0 -27 14 -52 78 -48 122 -75 233 -65
271 7 26 14 26 42 4z m-123 -155 c41 -65 106 -217 100 -234 -3 -8 -18 -14 -34
-14 -24 0 -32 6 -42 33 -6 17 -25 59 -41 91 -21 43 -29 73 -29 112 0 30 4 54
10 54 5 0 22 -19 36 -42z m2144 -9 c0 -58 -70 -238 -96 -246 -6 -2 -21 5 -34
15 l-22 18 26 52 c14 28 26 57 26 64 0 17 60 131 73 140 19 12 27 -2 27 -43z
m135 -59 c12 -20 -111 -229 -130 -220 -17 8 -5 70 21 107 13 20 24 44 24 53 0
42 67 90 85 60z m-2418 -22 c11 -13 31 -43 43 -68 12 -25 28 -52 35 -60 32
-39 21 -100 -16 -85 -20 8 -109 170 -109 198 0 42 17 47 47 15z m2513 -83 c0
-46 -83 -185 -111 -185 -11 0 -22 6 -25 13 -12 31 96 207 128 207 4 0 8 -16 8
-35z m-2630 -12 c18 -20 38 -51 46 -68 7 -17 20 -37 28 -45 20 -16 20 -44 1
-60 -13 -10 -19 -9 -36 6 -32 28 -95 125 -103 157 -14 58 18 63 64 10z m1560
-24 c36 -5 114 -16 173 -25 60 -8 125 -21 144 -29 20 -8 44 -15 55 -15 27 0
317 -98 346 -116 13 -9 45 -22 72 -30 26 -8 53 -21 60 -29 7 -8 17 -15 22 -15
5 0 28 -13 51 -29 23 -16 85 -55 137 -87 52 -32 138 -92 190 -133 91 -71 317
-293 370 -362 14 -18 36 -45 50 -59 42 -46 90 -108 90 -119 0 -5 6 -16 14 -23
8 -8 23 -32 33 -54 32 -63 125 -238 133 -249 11 -14 70 -169 86 -224 7 -25 22
-71 33 -101 31 -83 79 -345 90 -483 11 -151 6 -429 -9 -503 -6 -30 -10 -69 -9
-87 2 -18 -1 -39 -6 -47 -5 -8 -26 -78 -45 -155 -20 -77 -43 -156 -51 -175 -8
-19 -21 -55 -29 -80 -8 -25 -25 -63 -37 -85 -13 -22 -31 -58 -42 -80 -10 -22
-42 -78 -70 -125 -28 -47 -51 -89 -51 -93 0 -20 -161 -239 -239 -325 -93 -103
-295 -286 -363 -328 -24 -15 -61 -42 -84 -60 -68 -56 -393 -234 -426 -234 -5
0 -46 -16 -91 -36 -100 -44 -219 -84 -252 -84 -13 0 -27 -4 -30 -10 -3 -5 -17
-10 -30 -10 -13 0 -50 -6 -82 -14 -117 -28 -357 -49 -471 -41 -59 4 -152 9
-207 10 -131 4 -279 31 -420 75 -38 13 -88 25 -110 27 -22 3 -47 11 -56 19 -8
8 -35 20 -60 28 -24 7 -71 26 -104 41 -493 229 -806 488 -1097 909 -70 101
-208 355 -208 382 0 6 -11 37 -25 67 -64 146 -118 358 -145 567 -15 118 -12
431 6 545 8 55 19 127 24 160 21 141 127 463 180 550 11 18 20 39 20 47 0 8
14 34 30 56 17 23 30 45 30 48 0 9 50 88 83 131 15 20 27 41 27 48 0 7 7 18
16 26 8 7 32 38 52 68 62 94 256 292 392 398 83 65 236 173 245 173 3 0 49 26
103 59 53 32 108 62 122 66 14 4 34 13 45 19 22 14 199 86 210 86 3 0 34 11
68 24 292 111 758 167 1047 125z m-1667 -78 c23 -19 77 -98 77 -112 0 -5 -10
-9 -22 -9 -28 0 -123 112 -114 135 6 17 31 11 59 -14z m2841 2 c-4 -16 -18
-43 -33 -62 -60 -78 -59 -77 -78 -65 -27 18 -19 59 23 109 28 35 43 45 65 45
27 0 29 -2 23 -27z m-2947 -67 c40 -33 86 -102 78 -115 -14 -24 -44 -8 -88 47
-47 57 -59 92 -33 92 8 0 28 -11 43 -24z m3053 13 c0 -15 -19 -49 -54 -94 -36
-47 -47 -56 -59 -48 -17 10 3 64 39 109 33 40 74 59 74 33z m112 -35 c18 -17
-89 -174 -119 -174 -7 0 -16 7 -19 15 -7 16 14 75 26 75 3 0 13 12 21 27 8 14
28 35 44 45 32 19 39 21 47 12z m-3243 -69 c51 -58 65 -85 53 -97 -16 -16 -64
17 -95 67 -15 23 -27 47 -27 54 0 23 39 10 69 -24z m3335 -24 c19 -30 -79
-151 -121 -151 -13 0 -26 6 -29 14 -6 17 81 133 105 139 28 8 40 7 45 -2z
m-3419 -68 c49 -53 56 -78 24 -86 -36 -9 -99 67 -99 119 0 28 32 13 75 -33z
m-97 -97 c40 -37 42 -72 6 -88 -26 -12 -30 -10 -80 46 -48 54 -70 99 -57 118
6 11 91 -38 131 -76z m3652 58 c0 -18 -83 -97 -126 -120 -34 -19 -64 -14 -64
11 0 9 21 38 46 65 34 37 57 51 88 58 46 10 56 7 56 -14z m133 -56 c9 -25 -9
-49 -83 -113 -76 -66 -96 -75 -118 -53 -22 22 -13 43 41 95 75 73 147 105 160
71z m-3935 -83 c65 -63 75 -77 66 -92 -20 -32 -47 -25 -100 25 -53 52 -80 101
-70 127 10 26 26 17 104 -60z m4090 -17 c-3 -22 -118 -127 -185 -169 -26 -16
-36 -18 -53 -9 -41 22 -22 58 69 132 76 61 89 68 128 68 40 0 44 -2 41 -22z
m-4286 -14 c42 -22 162 -124 166 -142 4 -15 -25 -52 -41 -52 -5 0 -41 25 -78
55 -65 53 -88 81 -103 133 -9 27 11 29 56 6z m-147 -87 c83 -57 205 -163 205
-178 0 -9 -7 -22 -16 -30 -20 -17 -44 -4 -189 102 -103 76 -133 108 -119 130
8 14 86 -1 119 -24z m4618 27 c11 -11 -16 -40 -82 -91 -125 -95 -137 -104
-173 -128 -42 -28 -59 -25 -78 10 -12 22 -11 28 6 46 35 39 175 140 212 154
39 14 104 19 115 9z m220 -41 c13 -21 -44 -91 -104 -130 -35 -24 -68 -43 -72
-43 -5 0 -23 -11 -41 -25 -18 -14 -36 -25 -40 -25 -4 0 -19 -8 -34 -19 -75
-52 -124 -81 -137 -81 -8 0 -21 13 -30 30 l-15 29 52 42 c29 23 82 61 118 86
36 24 84 58 107 75 24 18 71 39 110 49 83 21 81 21 86 12z m-5037 -80 c61 -20
127 -56 176 -94 20 -16 40 -29 44 -29 9 0 77 -60 87 -77 10 -16 -21 -71 -45
-79 -19 -6 -138 58 -282 152 -45 29 -96 98 -96 130 0 19 54 18 116 -3z m5324
-20 c0 -18 -98 -102 -167 -142 -40 -24 -120 -63 -178 -88 -59 -25 -125 -57
-148 -73 -23 -15 -52 -30 -64 -34 -11 -4 -27 -13 -33 -21 -21 -26 -49 -17 -67
20 -15 32 -15 36 1 54 9 10 43 33 74 50 69 38 88 50 127 77 58 40 221 117 294
139 77 22 161 32 161 18z m-5638 -54 c59 -13 162 -60 194 -90 11 -10 25 -19
31 -19 5 0 48 -23 94 -51 46 -28 110 -64 143 -81 56 -28 58 -31 52 -61 -8 -40
-33 -67 -64 -67 -13 0 -63 22 -111 48 -47 27 -120 65 -162 85 -42 20 -82 43
-89 52 -7 8 -19 15 -26 15 -18 0 -118 101 -137 138 -22 46 -13 49 75 31z
m6010 -78 c-1 -19 -8 -41 -14 -49 -13 -15 -93 -53 -173 -82 -27 -10 -88 -34
-135 -55 -47 -20 -105 -45 -130 -55 -142 -57 -175 -71 -194 -84 -12 -7 -53
-26 -91 -41 -157 -60 -172 -62 -196 -19 -10 16 -20 41 -21 53 -3 27 -3 28 212
138 80 41 152 79 160 83 8 5 65 32 125 60 124 58 266 90 390 87 l70 -2 -3 -34z
m740 -11 c115 -16 172 -33 176 -51 7 -37 -62 -112 -196 -214 -29 -21 -52 -42
-52 -46 0 -4 -9 -11 -21 -14 -11 -4 -46 -24 -78 -45 -135 -90 -255 -130 -771
-261 -25 -7 -88 -24 -140 -40 -52 -16 -131 -38 -175 -49 -44 -11 -105 -27
-135 -35 -77 -22 -114 -17 -118 15 -2 14 -10 32 -17 40 -7 8 -24 47 -38 85
-14 39 -28 77 -32 86 -7 18 42 48 133 80 118 43 162 60 267 104 61 26 155 64
210 86 55 22 118 49 140 59 215 99 426 180 510 195 87 16 240 18 337 5z
m-6944 -64 c15 -7 43 -17 62 -21 19 -4 42 -13 50 -21 18 -15 131 -74 143 -74
4 0 35 -18 67 -39 63 -42 182 -106 215 -115 11 -3 32 -17 47 -31 27 -25 27
-25 11 -70 -8 -25 -20 -46 -26 -46 -24 -3 -53 3 -77 16 -48 24 -199 85 -212
85 -8 0 -18 4 -24 9 -5 5 -38 20 -74 33 -36 14 -74 29 -85 33 -50 20 -115 45
-179 68 -38 14 -83 40 -103 59 -43 40 -94 119 -86 132 9 14 238 -1 271 -18z
m-647 -92 c52 -9 105 -22 119 -29 14 -7 48 -15 76 -19 60 -7 137 -34 236 -80
40 -19 98 -41 128 -50 53 -15 160 -58 245 -97 22 -10 72 -30 110 -44 155 -58
255 -102 255 -114 0 -17 -30 -125 -54 -196 l-24 -70 -39 4 c-21 1 -105 19
-188 38 -229 52 -309 70 -440 98 -66 14 -147 37 -180 49 -33 13 -96 38 -140
56 -44 18 -94 37 -111 44 -18 6 -39 18 -48 25 -9 8 -45 28 -79 45 -74 38 -157
100 -292 219 -107 95 -124 115 -103 122 60 20 409 19 529 -1z m7043 -528 c33
-12 62 -28 64 -34 2 -6 -16 -23 -40 -38 -24 -15 -66 -43 -94 -61 -54 -36 -176
-69 -344 -92 -47 -7 -114 -18 -150 -26 -110 -24 -330 -56 -340 -50 -13 8 -33
84 -26 100 5 14 140 58 211 70 75 13 507 122 555 140 50 20 96 17 164 -9z
m-6588 -134 c72 -16 140 -35 152 -41 11 -6 37 -11 57 -11 20 0 60 -7 88 -15
29 -8 95 -21 147 -29 150 -23 165 -28 168 -57 2 -13 -4 -41 -13 -62 -17 -42
-21 -42 -125 -27 -36 6 -99 15 -140 20 -180 25 -280 44 -350 67 -75 24 -240
117 -247 140 -2 6 13 17 34 23 21 7 43 17 48 22 6 5 19 7 30 5 11 -3 79 -18
151 -35z m6384 -191 l35 -29 -20 -22 c-40 -44 -156 -86 -262 -95 -32 -3 -126
-11 -208 -18 -83 -8 -167 -12 -187 -9 -33 4 -39 8 -48 40 -16 58 3 69 154 92
71 11 148 20 171 20 23 0 55 5 72 10 42 15 171 38 218 39 30 0 49 -7 75 -28z
m-6215 -98 c50 -13 117 -26 150 -29 86 -6 232 -34 251 -48 25 -18 9 -84 -22
-92 -36 -9 -256 15 -340 37 -108 28 -274 107 -274 130 0 14 11 19 48 24 26 4
52 8 57 10 6 2 17 1 25 -2 8 -3 56 -16 105 -30z m6025 -148 c37 -19 56 -51 40
-70 -6 -7 -32 -22 -59 -34 -43 -18 -72 -21 -239 -23 -105 -2 -193 0 -197 4
-15 15 -17 84 -3 96 17 13 236 39 351 41 52 1 88 -4 107 -14z m-5760 -112
c112 -6 130 -13 130 -48 0 -40 -22 -48 -112 -40 -46 4 -114 8 -153 9 -59 2
-77 6 -112 31 -24 16 -43 32 -43 36 0 16 66 28 125 24 33 -3 107 -8 165 -12z
m5485 -94 c72 -1 140 -7 153 -12 29 -13 28 -42 -1 -62 -20 -13 -48 -14 -162
-9 -145 6 -175 13 -175 42 0 28 31 57 50 46 3 -1 64 -4 135 -5z m-5357 -121
c-3 -29 -7 -33 -43 -41 -57 -12 -134 -4 -180 19 -76 37 -43 51 123 53 l103 1
-3 -32z m5426 -48 c30 -11 33 -26 9 -52 -26 -29 -157 -22 -245 13 -27 11 -36
37 -20 54 9 10 223 -2 256 -15z m-5426 -92 c7 -7 12 -22 12 -35 0 -26 -13 -30
-108 -36 -51 -3 -65 0 -79 15 -24 27 -5 41 75 54 91 16 86 16 100 2z m5285
-37 c118 -20 139 -30 116 -57 -11 -13 -25 -15 -84 -9 -134 13 -176 31 -161 70
7 18 -3 18 129 -4z m-5259 -125 c9 -13 7 -20 -7 -31 -26 -19 -107 -28 -140
-16 -52 20 -28 45 58 59 72 11 76 11 89 -12z m5284 -11 c39 -17 40 -29 6 -52
-23 -15 -31 -15 -73 -3 -25 7 -58 15 -73 17 -28 5 -45 34 -32 54 8 14 125 3
172 -16z m-5261 -111 c12 -33 -52 -61 -112 -50 -50 10 -44 33 13 50 63 20 91
19 99 0z m5188 -3 c74 -26 74 -72 0 -70 -42 1 -130 33 -129 47 1 7 2 19 3 27
2 20 62 18 126 -4z m-65 -112 c59 -12 94 -58 55 -72 -20 -8 -117 4 -132 16
-14 10 -18 59 -6 71 4 3 14 4 22 0 9 -4 36 -10 61 -15z m-5090 -15 c0 -27
-109 -59 -124 -36 -8 14 20 40 49 45 61 9 75 7 75 -9z m30 -114 c0 -20 -19
-30 -60 -30 -57 0 -49 36 12 49 39 9 48 6 48 -19z m5032 0 c37 -11 56 -36 39
-53 -5 -5 -34 -6 -73 -1 -59 8 -63 11 -66 37 -3 25 0 27 30 27 18 0 49 -5 70
-10z m-4993 -94 c15 -18 -1 -31 -55 -45 -75 -20 -104 14 -36 42 47 20 76 21
91 3z m4934 -25 c59 -25 76 -71 27 -71 -21 0 -99 28 -113 40 -12 11 10 50 28
50 7 0 33 -9 58 -19z m305 -12 c64 -11 135 -26 157 -34 22 -8 101 -28 175 -46
129 -29 213 -53 380 -105 41 -12 92 -26 113 -30 20 -3 54 -15 74 -25 21 -11
45 -19 55 -19 33 0 230 -91 295 -137 26 -18 59 -41 73 -51 49 -33 235 -225
255 -262 144 -269 189 -489 154 -747 -40 -302 -196 -561 -563 -937 -60 -61
-176 -183 -258 -271 -129 -137 -170 -186 -210 -249 -4 -6 -25 -51 -48 -99 -50
-109 -70 -189 -70 -287 0 -105 -4 -109 -81 -80 -55 20 -81 22 -197 21 -115 0
-146 -4 -219 -27 -46 -14 -110 -44 -142 -65 -32 -21 -62 -39 -67 -39 -30 -1
-236 -120 -474 -275 -52 -34 -135 -83 -185 -110 -49 -26 -97 -54 -106 -61 -20
-18 -81 -39 -341 -120 -26 -7 -88 -16 -138 -19 -50 -3 -109 -9 -130 -14 -45
-10 -257 3 -335 20 -152 34 -233 68 -330 140 -22 16 -56 40 -75 53 -45 30
-145 136 -193 206 -21 30 -53 76 -71 101 -71 96 -137 325 -157 539 -12 124
-19 1032 -9 1120 4 36 9 45 25 46 37 2 44 4 60 20 15 15 19 15 51 -2 20 -11
39 -26 43 -34 5 -8 12 -62 16 -120 13 -189 23 -284 34 -325 6 -22 15 -98 21
-169 5 -70 22 -192 36 -270 25 -131 35 -175 62 -251 6 -16 20 -57 30 -90 78
-241 188 -424 309 -516 84 -63 256 -145 328 -155 33 -5 101 -8 150 -7 78 1
105 7 205 43 105 37 304 134 340 164 8 7 49 30 90 51 41 20 87 46 102 56 15
11 42 26 60 34 18 9 40 20 48 25 27 17 232 112 274 126 22 8 55 23 73 34 63
37 408 140 468 140 37 0 155 -28 169 -39 6 -5 25 -11 41 -13 l30 -3 0 90 c0
64 5 100 17 125 9 19 22 55 28 79 6 24 15 51 20 60 5 9 21 43 36 76 61 136
172 278 388 495 30 30 72 76 93 101 21 25 76 91 123 145 47 54 103 124 125
154 22 30 50 68 62 85 61 85 109 202 133 332 19 96 0 259 -40 348 -36 79 -121
210 -177 272 -78 85 -193 179 -259 213 -38 19 -76 40 -84 46 -22 16 -146 79
-215 109 -97 42 -136 60 -215 98 -41 20 -115 50 -165 67 -49 17 -99 34 -110
39 -11 5 -81 28 -155 52 -74 23 -147 48 -163 56 -26 13 -27 14 -11 38 14 21
14 30 4 55 -17 41 -7 64 26 56 13 -4 78 -16 142 -27z m-5200 -71 c22 -22 12
-39 -34 -58 -51 -22 -80 -25 -89 -10 -9 15 12 38 54 60 43 23 53 24 69 8z
m4928 -68 c53 -45 -50 -57 -123 -15 -47 28 -47 28 -33 54 9 18 12 18 75 -4 36
-13 73 -29 81 -35z m2320 5 c31 -15 147 -132 249 -250 101 -117 157 -179 181
-203 29 -27 31 -58 5 -71 -10 -6 -92 -28 -182 -50 -138 -33 -188 -40 -315 -46
l-152 -6 -36 66 c-54 96 -227 292 -311 352 -16 12 -27 24 -24 27 3 3 46 12 95
20 125 19 287 78 424 156 41 24 31 23 66 5z m-7482 -29 c3 -14 15 -27 25 -31
27 -8 33 -31 21 -75 -11 -39 -20 -45 -176 -100 -28 -10 -95 -39 -150 -65 -54
-26 -135 -62 -179 -80 -86 -35 -208 -93 -265 -124 -19 -11 -46 -24 -60 -31
-14 -6 -43 -22 -65 -35 -22 -14 -56 -33 -75 -43 -52 -27 -144 -88 -159 -106
-7 -9 -19 -16 -25 -16 -21 0 -184 -159 -237 -233 -77 -104 -135 -228 -153
-327 -41 -216 2 -425 122 -589 63 -86 328 -374 387 -422 27 -22 293 -300 327
-343 15 -18 41 -59 58 -90 16 -32 38 -70 48 -84 11 -15 25 -45 32 -67 7 -22
19 -50 27 -63 22 -35 43 -164 43 -263 0 -100 2 -102 65 -68 122 64 247 79 425
53 113 -17 300 -75 445 -139 17 -7 84 -37 150 -65 66 -29 152 -67 190 -86 39
-19 75 -34 80 -34 6 0 30 -10 55 -21 25 -12 59 -27 75 -34 17 -7 57 -24 90
-38 72 -31 208 -57 308 -61 244 -7 472 128 643 384 79 118 173 361 200 520 30
174 61 413 70 545 3 55 8 116 10 135 2 19 7 112 10 205 8 206 22 241 84 203
15 -10 24 -9 45 2 47 25 53 5 65 -195 6 -99 15 -234 19 -300 11 -146 5 -603
-9 -752 -6 -59 -17 -133 -24 -163 -36 -138 -57 -205 -70 -219 -7 -9 -21 -32
-31 -51 -57 -115 -185 -275 -299 -374 -158 -138 -303 -203 -561 -251 -109 -20
-248 -19 -407 5 -119 17 -305 68 -333 89 -5 5 -26 12 -45 16 -30 6 -214 95
-535 258 -292 149 -574 208 -783 166 -77 -15 -82 -11 -82 68 -1 88 -13 140
-57 238 -57 127 -209 316 -369 461 -48 43 -113 104 -145 134 -31 30 -81 75
-111 100 -104 87 -277 276 -346 379 -49 74 -89 153 -114 226 -11 33 -23 65
-28 70 -4 6 -24 61 -44 123 -36 111 -37 116 -37 275 0 89 5 178 10 197 6 19
19 67 30 105 38 137 79 218 175 345 55 73 168 188 212 216 16 10 58 41 94 69
55 44 170 105 195 105 4 0 35 13 69 29 112 54 154 72 218 91 34 10 110 33 168
51 58 17 134 39 170 49 36 10 88 27 115 38 28 12 91 33 140 47 50 14 115 33
145 44 80 27 106 26 114 -3z m304 -51 c3 -25 -25 -43 -93 -61 -66 -18 -75 -17
-75 4 0 56 160 110 168 57z m4741 -18 c98 -49 76 -89 -28 -51 -36 13 -67 24
-67 24 -6 0 -13 34 -8 41 9 15 57 9 103 -14z m351 -78 c202 -67 214 -71 280
-96 36 -13 81 -33 101 -43 20 -11 43 -20 50 -20 8 0 48 -16 89 -37 199 -97
260 -129 325 -172 39 -25 75 -48 80 -50 6 -2 17 -11 26 -20 9 -9 58 -54 108
-99 68 -63 97 -98 117 -140 14 -32 37 -81 51 -110 34 -74 49 -212 36 -340 -9
-90 -14 -107 -66 -211 -79 -158 -181 -302 -302 -425 -248 -253 -422 -479 -500
-651 -30 -66 -75 -198 -75 -220 0 -24 -20 -29 -130 -32 -184 -6 -379 -59 -610
-165 -102 -46 -196 -91 -210 -99 -8 -4 -56 -29 -107 -54 -51 -26 -108 -57
-128 -71 -20 -13 -41 -24 -48 -25 -7 0 -25 -9 -42 -19 -113 -70 -266 -133
-382 -156 -81 -16 -106 -17 -207 -7 -117 12 -184 36 -270 97 -29 20 -114 103
-160 156 -85 96 -188 340 -226 530 -49 245 -72 429 -85 695 -4 77 -9 143 -12
147 -9 17 10 58 28 58 10 0 31 19 49 45 17 25 34 45 37 45 3 0 25 -18 49 -40
51 -47 68 -44 104 17 l22 37 36 -44 c81 -98 111 -111 140 -60 9 16 22 30 27
30 6 0 29 -22 53 -50 59 -69 106 -103 131 -95 12 4 26 24 36 55 9 28 20 52 25
55 4 3 24 -14 44 -38 68 -79 99 -107 145 -133 46 -25 46 -25 62 -5 9 11 19 43
23 70 7 56 15 61 54 30 15 -11 61 -46 102 -78 41 -32 106 -79 144 -106 l70
-48 18 23 c12 15 18 39 18 76 0 29 5 56 11 60 7 4 37 -19 73 -54 161 -160 277
-246 441 -328 44 -22 126 -64 182 -93 57 -29 117 -54 135 -55 l33 -1 -3 85
c-2 47 -10 117 -18 155 -8 39 -19 95 -25 125 -14 80 -34 129 -116 300 -54 111
-74 146 -135 238 -35 52 -28 67 36 76 24 4 51 15 60 25 16 17 16 23 1 82 -23
91 -59 200 -67 206 -18 10 -7 54 15 62 48 18 52 34 32 122 -10 44 -24 88 -31
97 -11 14 -9 21 13 44 25 26 26 30 14 69 -7 22 -27 64 -46 93 l-34 53 32 32
32 32 -22 39 c-30 51 -29 78 2 90 30 11 33 50 10 107 -22 51 -19 63 16 70 39
8 57 42 41 78 -7 14 -12 28 -12 31 0 12 102 -11 210 -47z m-5029 -15 c11 -14
7 -20 -27 -49 -53 -45 -101 -59 -131 -39 -40 26 -27 42 64 79 71 28 77 29 94
9z m4587 -18 c47 -24 66 -42 90 -83 32 -58 3 -69 -63 -23 -24 17 -47 30 -52
30 -4 0 -21 10 -36 23 -25 20 -27 25 -18 50 13 33 19 33 79 3z m-7003 -86 c22
-5 58 -13 80 -19 22 -6 72 -17 110 -25 61 -13 96 -18 200 -32 11 -1 51 -3 88
-3 51 -1 68 -4 65 -14 -2 -7 -45 -50 -96 -96 -78 -70 -151 -151 -274 -304 -70
-88 -87 -100 -126 -93 -20 4 -82 11 -137 16 -55 5 -116 14 -135 20 -19 5 -62
15 -95 20 -55 10 -114 29 -157 51 -10 5 -24 9 -32 9 -22 0 -28 17 -15 42 11
21 135 153 274 291 66 65 174 147 194 147 9 -1 34 -5 56 -10z m2483 -25 c17
-38 16 -41 -34 -75 -76 -51 -124 -72 -150 -66 -29 8 -30 16 -3 50 23 29 146
116 165 116 6 0 16 -11 22 -25z m-323 -5 c10 -11 24 -20 32 -20 27 0 26 -33
-2 -85 -16 -28 -26 -59 -22 -68 3 -8 22 -23 42 -33 20 -9 34 -22 31 -28 -64
-151 -64 -158 -5 -171 43 -10 45 -27 11 -87 -55 -98 -51 -132 15 -144 19 -4
37 -12 39 -18 2 -6 -18 -56 -46 -110 -70 -137 -67 -157 22 -170 26 -4 50 -11
52 -15 3 -4 -3 -21 -13 -38 -10 -16 -22 -44 -26 -61 -3 -17 -15 -42 -25 -55
-20 -25 -28 -46 -86 -215 -46 -135 -40 -152 42 -113 60 29 104 36 104 17 0 -8
-4 -17 -10 -21 -10 -6 -89 -142 -123 -210 -18 -37 -27 -55 -71 -159 -15 -34
-39 -119 -53 -186 -3 -14 -11 -39 -19 -57 -20 -45 -66 -270 -62 -307 4 -40 32
-45 96 -16 154 71 282 139 315 167 20 18 43 33 50 34 13 0 68 42 164 124 59
51 150 145 214 224 40 49 55 48 65 -4 8 -43 36 -69 66 -62 27 7 96 72 217 201
92 99 94 99 125 14 27 -75 38 -78 98 -26 29 25 71 64 93 87 22 22 46 41 52 41
7 0 24 -18 38 -40 15 -24 33 -40 44 -40 11 0 49 29 85 65 36 36 69 65 73 65 5
0 17 -13 26 -30 25 -41 48 -38 91 13 53 61 79 87 89 87 4 0 17 -16 28 -35 12
-19 28 -35 37 -35 15 0 92 76 92 92 0 18 48 7 69 -16 13 -14 29 -22 36 -20 7
3 15 1 18 -3 8 -13 10 -316 3 -418 -17 -239 -66 -522 -112 -650 -10 -27 -31
-88 -48 -135 -16 -47 -35 -89 -40 -95 -6 -5 -28 -35 -49 -66 -44 -66 -178
-201 -227 -229 -155 -88 -205 -107 -335 -121 -77 -9 -122 -9 -195 1 -192 25
-260 48 -580 197 -30 14 -84 39 -120 55 -36 17 -76 36 -90 43 -35 18 -173 69
-245 91 -33 10 -64 21 -70 25 -5 3 -66 10 -133 13 -100 6 -138 4 -197 -10 -95
-22 -105 -18 -105 48 0 54 -13 127 -29 163 -50 117 -93 186 -184 300 -57 72
-124 149 -148 172 -282 268 -529 543 -529 589 0 7 -14 54 -32 106 -31 89 -32
99 -31 243 0 138 3 156 27 220 15 39 33 84 39 100 32 85 119 204 242 331 32
33 163 122 255 174 37 21 252 120 261 120 5 0 40 16 78 35 37 19 74 35 80 35
7 0 38 12 69 26 31 14 75 32 97 39 60 20 115 41 165 64 57 25 54 25 75 1z
m4812 -47 c67 -45 90 -66 104 -98 23 -49 24 -65 4 -65 -16 0 -136 80 -202 135
-39 32 -41 38 -31 60 6 14 17 25 25 25 8 0 53 -26 100 -57z m-4387 -82 c5 -11
10 -24 10 -29 0 -5 -49 -46 -109 -91 -110 -81 -155 -99 -167 -66 -12 31 68
119 136 147 19 9 44 25 54 37 24 26 62 27 76 2z m4252 -18 c160 -108 236 -174
273 -239 19 -34 15 -64 -8 -64 -8 0 -32 14 -53 31 -22 17 -73 56 -114 87 -101
74 -190 152 -190 165 0 13 30 47 42 47 5 0 27 -12 50 -27z m-4148 -118 c10
-14 14 -34 11 -43 -4 -9 -64 -64 -134 -122 -104 -85 -136 -106 -171 -112 -25
-4 -48 -4 -53 1 -25 25 30 100 123 169 25 18 74 55 110 82 36 27 72 49 81 50
9 0 24 -11 33 -25z m4085 -42 c42 -31 86 -66 98 -77 13 -12 38 -33 55 -49 18
-15 55 -46 83 -70 27 -23 65 -57 82 -75 53 -54 57 -112 8 -112 -44 0 -107 39
-200 127 -17 15 -60 51 -95 78 -75 59 -180 157 -180 168 0 16 44 67 58 67 9 0
49 -26 91 -57z m-3951 -97 l37 -34 -25 -27 c-14 -15 -68 -65 -120 -110 -52
-46 -129 -115 -170 -155 -81 -78 -120 -100 -175 -100 -95 0 -2 118 285 364 62
53 117 96 122 96 4 0 25 -15 46 -34z m3766 -11 c22 -17 44 -25 64 -23 41 3 65
-18 57 -50 -5 -21 4 -34 64 -89 39 -35 94 -82 123 -103 64 -48 198 -179 198
-194 0 -6 14 -40 30 -76 15 -35 26 -68 24 -72 -3 -4 -40 -8 -82 -8 l-77 0
-262 264 c-145 145 -263 270 -263 277 0 11 78 99 88 99 2 0 18 -11 36 -25z
m-3594 -160 c12 -23 9 -29 -61 -110 -41 -48 -95 -112 -121 -143 -26 -31 -62
-73 -81 -92 -18 -19 -68 -81 -111 -138 -53 -69 -96 -114 -130 -136 -141 -91
-196 -109 -196 -62 0 12 11 44 25 70 14 26 25 53 25 60 0 31 124 198 183 247
34 29 64 55 67 59 3 4 32 29 65 56 33 26 78 66 100 89 57 57 124 117 153 137
22 14 28 15 47 2 12 -8 28 -25 35 -39z m3511 -111 c284 -291 327 -334 369
-378 25 -26 71 -73 103 -104 55 -53 137 -154 137 -167 0 -3 11 -23 25 -43 14
-20 25 -43 25 -51 0 -8 22 -57 49 -110 27 -53 52 -112 56 -131 4 -19 14 -48
23 -65 19 -37 42 -148 42 -202 0 -62 -20 -58 -160 28 -8 5 -26 14 -39 19 -13
6 -37 20 -53 32 -16 11 -47 30 -69 42 -39 21 -68 42 -197 145 -119 95 -197
174 -247 251 -26 41 -78 120 -115 175 -73 109 -157 236 -256 386 -35 53 -64
101 -64 106 0 6 20 26 45 44 25 19 76 57 113 86 37 29 74 52 83 53 9 0 67 -52
130 -116z m-3372 12 c15 -8 34 -22 41 -31 8 -9 30 -25 49 -35 20 -10 49 -29
65 -42 l28 -24 -32 -59 c-18 -33 -41 -72 -51 -87 -11 -14 -19 -29 -19 -33 0
-4 -9 -20 -21 -36 -11 -16 -33 -53 -48 -82 -36 -70 -73 -134 -139 -242 -30
-49 -73 -124 -96 -166 -87 -161 -164 -260 -330 -423 -138 -134 -214 -191 -338
-251 -62 -30 -119 -55 -127 -55 -25 0 -9 74 65 295 32 97 108 265 164 365 21
36 136 187 205 269 22 26 74 90 115 141 41 51 84 103 95 115 11 12 38 44 60
73 21 29 43 52 47 52 4 0 19 19 34 41 31 49 188 229 200 229 3 0 17 -6 33 -14z
m2946 -172 c17 -26 41 -65 55 -88 14 -23 43 -66 66 -96 22 -30 57 -80 78 -110
20 -30 59 -86 87 -125 27 -38 49 -75 49 -81 0 -6 6 -17 14 -23 27 -23 48 -85
52 -153 4 -60 2 -68 -14 -68 -17 0 -54 21 -80 47 -7 7 -32 26 -57 44 -24 17
-58 50 -77 72 -30 38 -108 163 -108 174 0 2 -18 36 -40 73 -79 135 -166 318
-156 327 11 12 81 51 91 52 6 1 24 -20 40 -45z m-2598 -45 c24 -11 43 -26 43
-33 0 -7 -30 -67 -67 -135 -132 -239 -163 -296 -175 -321 -27 -55 -119 -188
-160 -230 -23 -25 -60 -67 -81 -93 -40 -49 -72 -60 -82 -28 -13 42 33 171 94
266 25 39 53 84 63 101 9 18 34 58 55 90 21 31 47 73 59 93 11 20 30 52 42 71
12 19 29 51 38 70 9 19 27 49 40 67 13 17 24 36 24 41 0 15 40 62 53 62 6 0
30 -9 54 -21z m2437 -122 c31 -61 56 -116 56 -121 0 -4 12 -27 28 -50 15 -22
42 -76 60 -119 28 -66 32 -85 26 -127 -4 -30 -12 -50 -19 -50 -18 0 -109 97
-146 155 -17 27 -42 74 -56 105 -14 30 -42 93 -64 140 -49 107 -49 124 -4 146
20 9 38 20 41 25 12 20 25 4 78 -104z m-2234 6 c0 -8 -9 -31 -20 -53 -11 -22
-20 -44 -20 -50 0 -23 -87 -231 -127 -305 -9 -16 -25 -47 -36 -67 -28 -56 -97
-124 -108 -107 -29 47 -10 156 39 226 22 32 99 174 153 284 48 98 62 112 94
97 14 -6 25 -17 25 -25z m2056 -141 c73 -169 80 -196 59 -246 -15 -36 -17 -37
-34 -22 -38 35 -171 333 -171 383 0 14 41 32 65 30 15 -2 33 -34 81 -145z
m-1882 87 c10 -9 -8 -83 -36 -144 -9 -22 -18 -48 -18 -59 0 -55 -144 -264
-166 -243 -18 18 -8 103 20 167 26 61 73 176 100 245 20 52 25 57 59 50 18 -4
36 -11 41 -16z m1677 -61 c48 -110 58 -153 43 -192 -12 -30 -32 -16 -72 52
-42 71 -68 151 -59 177 4 9 19 15 35 15 26 0 32 -7 53 -52z m-1531 -13 c0 -39
-21 -124 -43 -175 -15 -36 -96 -122 -98 -105 -4 41 6 95 27 138 13 29 24 58
24 65 0 7 10 36 21 63 17 39 26 49 45 49 21 0 24 -5 24 -35z m1365 -51 c7 -62
-1 -117 -18 -111 -19 5 -65 98 -69 137 -3 31 0 35 27 40 42 9 52 -2 60 -66z
m-1226 45 c30 -11 31 -13 31 -68 0 -51 -4 -63 -36 -104 -20 -26 -41 -47 -46
-47 -4 0 -13 11 -17 24 -16 39 12 206 34 206 1 0 16 -5 34 -11z m1055 -31 c10
-37 7 -73 -8 -109 -19 -45 -25 -50 -47 -39 -18 10 -23 27 -34 112 -6 43 -4 47
17 51 52 10 66 7 72 -15z m-898 -3 c8 -20 -17 -142 -33 -163 -11 -15 -14 -15
-23 -2 -12 17 -6 112 9 154 11 28 38 35 47 11z m122 -29 c6 -27 -7 -79 -24
-101 -13 -17 -16 -18 -24 -5 -11 18 -2 99 13 118 13 16 31 10 35 -12z m601 10
c7 -8 11 -37 9 -68 -3 -59 -24 -74 -57 -43 -19 16 -34 86 -24 111 7 18 57 18
72 0z m-493 -11 c9 -24 -6 -87 -19 -82 -13 4 -22 60 -13 83 7 18 25 18 32 -1z
m112 7 c15 -10 5 -97 -13 -112 -18 -15 -24 -1 -26 52 -3 61 9 79 39 60z m225
-35 c7 -27 6 -47 -3 -65 l-12 -27 -19 24 c-12 15 -19 39 -19 68 0 40 2 44 22
41 17 -2 25 -13 31 -41z m-129 17 c9 -24 7 -102 -3 -108 -21 -13 -36 38 -32
107 1 21 27 23 35 1z m26 -1777 c13 -40 31 -88 41 -107 9 -19 34 -69 54 -110
44 -87 67 -121 153 -226 69 -83 70 -88 33 -163 -10 -20 -35 -70 -56 -111 -21
-41 -51 -94 -67 -118 -16 -23 -57 -95 -92 -160 -58 -109 -65 -118 -99 -126
-42 -11 -66 5 -96 60 -9 17 -41 78 -71 135 -30 57 -59 115 -63 129 -5 14 -22
53 -38 88 -22 46 -31 86 -36 143 -6 75 -5 81 19 107 65 71 161 255 213 408 59
171 54 162 70 141 7 -10 23 -50 35 -90z"/>
<path d="M6122 8555 c-42 -19 -53 -49 -59 -170 -5 -111 6 -148 45 -153 33 -5
52 15 52 55 0 51 24 53 74 4 42 -42 72 -51 94 -29 18 18 15 40 -12 73 -20 25
-23 37 -19 90 3 48 0 66 -16 93 -33 51 -93 66 -159 37z m94 -79 c8 -21 -14
-56 -36 -56 -23 0 -36 36 -20 55 16 19 49 19 56 1z"/>
<path d="M5782 8528 c-17 -6 -49 -26 -70 -43 -36 -32 -37 -34 -36 -99 1 -71
15 -101 66 -139 35 -26 169 -30 194 -6 21 21 11 55 -19 63 -12 3 -41 6 -64 6
-51 0 -64 15 -21 24 41 8 58 23 58 52 0 30 -16 39 -63 35 -51 -4 -41 15 12 24
48 8 64 24 59 62 -3 25 -7 28 -43 30 -22 1 -55 -3 -73 -9z"/>
<path d="M6566 8519 c-22 -32 -20 -64 9 -134 14 -33 25 -61 25 -62 0 -9 -30
-1 -39 11 -29 35 -91 14 -91 -30 0 -26 54 -72 98 -83 50 -14 83 -7 117 25 33
30 32 70 -1 135 -14 28 -23 54 -19 57 3 3 20 0 38 -7 68 -27 67 -27 67 21 0
44 -1 46 -42 61 -24 8 -66 18 -94 22 -47 6 -53 4 -68 -16z"/>
<path d="M5490 8447 c-30 -15 -39 -50 -32 -133 3 -34 0 -64 -5 -67 -5 -3 -39
23 -76 60 -56 56 -69 65 -91 59 -32 -8 -50 -39 -37 -63 5 -10 50 -57 99 -106
102 -98 136 -114 170 -77 18 20 21 37 24 139 3 130 -2 193 -17 198 -5 1 -21
-3 -35 -10z"/>
<path d="M6920 8408 c-11 -18 -29 -58 -41 -88 -11 -30 -27 -62 -35 -71 -24
-26 -29 -83 -9 -102 9 -9 22 -17 29 -17 18 0 66 39 66 54 0 12 35 90 70 158
31 59 24 79 -32 93 -23 6 -30 2 -48 -27z"/>
<path d="M7156 8318 c-24 -34 -19 -56 14 -73 36 -19 37 -31 5 -79 -59 -87 -69
-128 -35 -146 33 -18 52 -5 100 67 48 72 76 86 120 63 38 -20 98 37 68 65 -18
18 -228 125 -244 125 -7 0 -20 -10 -28 -22z"/>
<path d="M5078 8269 c-10 -5 -18 -17 -18 -25 0 -18 120 -202 148 -227 23 -21
54 -11 72 24 15 27 -4 57 -136 222 -15 19 -40 22 -66 6z"/>
<path d="M4899 8167 c-35 -18 -34 -47 1 -96 42 -57 31 -69 -47 -54 -32 6 -79
17 -104 23 -40 11 -49 10 -72 -5 -15 -9 -27 -26 -27 -36 0 -24 155 -211 185
-223 31 -12 53 -2 61 29 5 20 -1 37 -24 70 -32 45 -32 61 -1 44 11 -5 62 -8
115 -7 86 3 98 5 111 25 13 19 12 24 -15 55 -16 18 -32 43 -36 56 -4 12 -11
22 -15 22 -4 0 -22 20 -40 45 -41 57 -60 67 -92 52z"/>
<path d="M6165 8152 c-269 -9 -454 -41 -660 -112 -169 -58 -402 -190 -582
-330 -97 -75 -269 -254 -334 -348 -55 -80 -146 -235 -165 -282 -3 -8 -19 -42
-35 -75 -62 -131 -122 -365 -138 -535 -12 -122 -5 -357 13 -485 28 -196 120
-455 221 -620 17 -27 37 -62 44 -77 23 -44 144 -188 244 -288 80 -81 146 -137
326 -277 16 -13 35 -23 43 -23 8 0 23 -9 33 -20 10 -11 23 -20 29 -20 6 0 45
-21 86 -46 41 -26 88 -51 105 -57 16 -5 37 -15 45 -22 8 -6 42 -17 75 -24 33
-7 96 -23 140 -36 188 -54 306 -70 515 -67 196 2 249 8 350 35 30 8 76 18 102
21 26 4 85 23 132 42 47 18 90 34 95 34 13 0 210 97 276 135 115 67 235 165
384 317 93 93 176 190 195 226 5 9 19 28 32 42 29 33 161 282 178 340 8 25 23
65 34 90 23 51 72 257 72 303 0 17 7 69 16 116 26 136 5 443 -43 611 -8 30
-22 80 -30 110 -17 63 -54 152 -124 296 -94 193 -238 395 -379 532 -70 68
-199 170 -240 190 -14 6 -50 30 -80 52 -123 90 -360 184 -525 210 -38 6 -97
17 -130 24 -33 8 -100 15 -149 15 -49 1 -92 3 -95 4 -3 1 -37 1 -76 -1z m535
-218 c173 -39 350 -203 350 -326 0 -36 -22 -96 -40 -108 -4 -3 -25 -32 -46
-65 -56 -85 -132 -188 -151 -202 -13 -10 -28 -5 -82 24 -36 19 -70 39 -76 43
-18 13 -188 67 -270 85 -44 10 -86 23 -92 29 -10 9 -14 66 -15 206 -2 168 1
200 15 228 50 94 213 129 407 86z m-654 -43 c97 -52 106 -79 101 -294 -3 -103
-9 -163 -16 -170 -7 -7 -44 -17 -84 -23 -134 -21 -270 -63 -381 -119 -60 -30
-117 -55 -127 -55 -18 0 -64 54 -168 195 -74 102 -101 155 -101 201 0 34 8 45
81 115 102 99 201 152 344 183 11 2 79 4 151 4 l131 0 69 -37z m-888 -426 c20
-13 65 -60 100 -103 34 -44 69 -85 77 -92 8 -7 33 -39 56 -72 l41 -60 -49 -50
c-26 -27 -60 -61 -75 -75 -40 -38 -142 -193 -163 -247 -16 -41 -21 -46 -48
-46 -17 0 -44 5 -61 10 -17 6 -71 22 -121 36 -49 14 -111 31 -137 39 -60 17
-135 64 -142 90 -15 53 -6 166 19 227 14 34 25 65 25 70 0 5 15 32 34 61 85
132 239 236 349 237 45 0 66 -5 95 -25z m2212 -12 c120 -55 222 -179 266 -321
32 -105 29 -165 -8 -214 -26 -33 -41 -41 -248 -123 -52 -20 -112 -44 -133 -53
-23 -9 -41 -12 -46 -6 -5 5 -29 46 -54 91 -25 46 -62 103 -81 127 -20 23 -36
47 -36 52 0 4 -28 34 -62 66 l-62 58 24 42 c13 24 48 75 77 113 30 39 77 101
106 138 l52 69 70 -5 c49 -3 90 -14 135 -34z m-965 -174 c191 -47 345 -137
498 -290 53 -54 97 -104 97 -112 0 -8 7 -20 16 -28 65 -53 159 -368 165 -546
3 -99 -17 -251 -43 -327 -19 -60 -74 -168 -109 -218 -11 -14 -19 -29 -19 -32
0 -23 -81 -119 -171 -201 -65 -61 -203 -155 -226 -155 -4 0 -21 -7 -38 -16
-73 -39 -177 -67 -310 -84 -86 -11 -150 -8 -230 10 -27 6 -63 13 -80 14 -45 5
-99 18 -110 26 -5 4 -28 13 -50 20 -134 43 -309 171 -417 303 -102 126 -137
191 -195 363 -36 106 -36 113 -37 259 0 217 39 381 130 534 121 206 355 387
591 457 119 35 165 41 323 42 103 1 154 -4 215 -19z m1311 -560 c25 -12 52
-31 60 -43 40 -57 64 -98 64 -109 0 -7 9 -36 20 -66 69 -179 3 -504 -112 -552
-35 -14 -114 -15 -161 0 -46 14 -186 49 -227 57 -19 4 -50 14 -68 23 -32 15
-33 18 -26 51 4 19 9 105 10 192 2 146 -1 172 -32 310 -5 22 -2 29 17 37 28
11 140 48 184 60 17 5 66 21 110 34 99 32 105 32 161 6z m-2890 -79 c109 -28
206 -53 215 -56 23 -7 28 -66 12 -142 -16 -76 -18 -247 -4 -283 5 -15 8 -29 5
-31 -4 -4 12 -105 22 -140 6 -20 -34 -40 -136 -68 -36 -10 -92 -28 -125 -40
-81 -30 -163 -37 -201 -17 -92 48 -169 179 -185 314 -11 100 -10 126 7 223 15
90 43 158 86 213 28 35 82 77 99 77 3 0 95 -23 205 -50z m2476 -751 c29 -6 62
-18 73 -25 11 -8 29 -14 42 -14 12 0 48 -11 80 -24 32 -13 79 -31 104 -40 71
-25 80 -62 59 -235 -7 -51 -20 -102 -35 -132 -14 -27 -25 -55 -25 -62 0 -8 -7
-21 -16 -28 -9 -8 -27 -30 -39 -49 -13 -20 -44 -51 -70 -70 -25 -19 -61 -47
-78 -61 -69 -57 -155 -76 -204 -44 -13 9 -48 48 -78 88 -30 40 -84 110 -120
157 -35 47 -65 91 -65 98 0 7 28 44 63 81 112 123 145 176 210 334 18 41 22
42 99 26z m-2127 -134 c79 -139 119 -191 201 -268 46 -44 87 -90 90 -103 5
-19 -5 -41 -42 -96 -27 -39 -53 -78 -59 -87 -5 -9 -20 -31 -32 -48 -13 -17
-23 -36 -23 -41 0 -5 -15 -23 -34 -40 -25 -22 -48 -31 -90 -36 -67 -9 -104 -2
-171 31 -98 49 -295 240 -295 286 0 9 -4 18 -9 22 -5 3 -19 35 -31 71 -22 64
-31 189 -16 213 10 15 81 51 103 51 10 0 27 7 37 15 11 8 27 15 36 15 9 0 33
9 53 19 21 11 59 24 86 31 26 6 65 18 87 25 21 8 46 13 54 12 8 -1 33 -34 55
-72z m1666 -447 c76 -94 155 -204 181 -252 20 -36 23 -117 7 -149 -30 -56
-194 -206 -227 -207 -7 0 -41 -15 -75 -32 -61 -32 -65 -33 -194 -33 -130 0
-132 0 -175 30 -39 28 -45 38 -61 100 -13 51 -18 114 -20 230 l-2 160 70 18
c39 10 95 24 125 31 70 17 211 77 270 115 25 16 50 30 56 30 6 1 26 -18 45
-41z m-1157 -37 c58 -35 258 -94 435 -127 l23 -5 -6 -197 c-3 -108 -9 -212
-12 -230 -17 -91 -181 -133 -396 -102 -77 11 -239 84 -294 132 -69 61 -91 140
-57 209 17 36 112 181 169 260 19 26 34 51 34 57 0 26 63 28 104 3z"/>
<path d="M6498 7838 c-48 -74 -69 -133 -77 -216 -9 -95 -4 -106 48 -119 40
-10 56 8 61 73 6 72 20 77 101 40 30 -13 66 -27 81 -31 47 -12 51 -28 18 -76
-43 -64 -37 -109 17 -109 38 0 67 20 102 70 43 65 62 121 64 194 2 54 0 61
-22 72 -29 15 -61 2 -61 -24 0 -39 -14 -45 -73 -32 -56 11 -177 64 -177 77 0
3 6 22 12 41 11 30 11 35 -7 48 -29 21 -70 17 -87 -8z"/>
<path d="M5677 7825 c-106 -29 -187 -114 -187 -196 0 -78 81 -209 129 -209 35
0 67 59 41 75 -30 19 27 65 80 65 9 0 39 11 65 26 56 29 71 27 80 -15 10 -45
28 -55 63 -37 16 8 32 23 36 32 6 16 -28 216 -40 236 -23 37 -171 49 -267 23z
m163 -91 c22 -21 -1 -38 -105 -74 -134 -47 -135 -47 -135 -17 0 15 13 38 31
56 27 27 53 38 124 54 28 6 67 -3 85 -19z"/>
<path d="M4932 7288 c-50 -69 -82 -125 -82 -144 0 -15 56 -44 84 -44 8 0 25
18 37 40 30 52 45 56 88 22 31 -25 36 -35 36 -72 l0 -43 -70 -30 c-38 -16 -74
-33 -79 -37 -12 -12 1 -57 24 -80 19 -19 20 -19 77 1 94 32 143 103 143 206 0
84 -47 155 -137 208 -61 36 -77 33 -121 -27z"/>
<path d="M7195 7399 c-44 -39 -95 -111 -95 -136 0 -10 -7 -27 -15 -37 -34 -45
-3 -126 42 -112 16 5 73 107 73 130 0 19 52 76 69 76 60 0 50 -91 -22 -192 -9
-13 -9 -23 -1 -35 9 -15 27 -18 95 -20 66 -2 86 -6 96 -19 7 -10 13 -21 13
-26 0 -19 -50 -30 -143 -31 -101 -2 -102 -2 -105 -27 -2 -14 4 -34 12 -45 12
-17 28 -20 114 -23 117 -4 164 13 207 75 39 58 34 88 -24 144 -27 26 -60 49
-73 51 -22 3 -23 8 -28 88 -3 47 -9 91 -13 97 -13 21 -89 60 -129 67 -32 6
-41 2 -73 -25z"/>
<path d="M6060 7210 c-41 -4 -100 -16 -130 -27 -30 -12 -74 -28 -98 -37 -55
-21 -134 -61 -187 -94 -56 -37 -205 -172 -205 -187 0 -6 -9 -20 -19 -30 -11
-9 -30 -36 -41 -59 -120 -230 -140 -303 -140 -513 0 -122 3 -147 26 -218 95
-291 241 -461 523 -611 57 -30 122 -53 212 -75 80 -19 299 -5 401 25 156 47
271 109 368 200 116 109 238 282 258 367 6 24 18 69 26 99 9 30 19 107 24 170
16 205 -32 415 -126 554 -17 24 -33 53 -36 64 -9 26 -165 174 -236 222 -107
73 -283 139 -385 146 -131 9 -163 10 -235 4z m369 -148 c45 -17 90 -37 100
-45 9 -8 23 -16 32 -20 83 -29 235 -167 294 -268 34 -58 45 -84 96 -214 26
-65 36 -260 20 -364 -32 -205 -134 -374 -308 -511 -42 -33 -80 -60 -84 -60 -5
0 -31 -13 -57 -30 -27 -16 -57 -30 -66 -30 -9 0 -30 -7 -46 -15 -53 -27 -188
-47 -275 -41 -170 13 -307 57 -390 129 -18 15 -41 27 -50 27 -37 0 -193 165
-246 260 -17 30 -37 75 -44 100 -8 25 -21 64 -29 88 -24 63 -30 270 -12 352
25 111 42 163 75 228 76 150 192 272 316 332 17 8 37 20 46 27 27 22 180 74
244 83 33 5 114 7 180 5 103 -3 132 -7 204 -33z"/>
<path d="M6079 6996 c-209 -32 -386 -140 -505 -311 -32 -46 -53 -90 -79 -168
-27 -79 -31 -117 -14 -134 8 -8 5 -14 -11 -23 -22 -12 -23 -16 -17 -119 6
-100 13 -135 52 -241 34 -91 164 -247 258 -308 70 -45 143 -81 183 -91 22 -6
66 -17 99 -25 201 -52 466 33 632 202 193 197 249 437 171 737 -20 80 -107
216 -189 297 -63 62 -95 86 -165 118 -142 67 -270 87 -415 66z m312 -147 c41
-17 93 -48 117 -68 24 -20 54 -42 68 -49 13 -7 31 -23 39 -35 117 -166 145
-250 145 -428 0 -170 -60 -304 -191 -427 -71 -68 -104 -87 -224 -134 -110 -42
-314 -26 -420 34 -11 7 -37 20 -57 30 -53 26 -164 132 -205 197 -61 96 -85
173 -90 291 -4 96 -2 113 24 190 66 197 169 310 352 390 97 42 145 50 267 45
85 -4 113 -10 175 -36z"/>
<path d="M6095 6596 c-152 -44 -246 -202 -215 -364 17 -93 49 -145 115 -190
78 -53 103 -62 178 -62 51 0 76 7 132 34 73 35 106 65 146 131 20 34 23 52 23
135 0 118 -20 168 -99 245 -48 47 -62 55 -124 69 -79 18 -99 18 -156 2z m202
-120 c50 -33 103 -129 103 -185 0 -42 -43 -122 -90 -168 -61 -60 -179 -59
-259 2 -133 102 -106 300 51 370 53 24 144 15 195 -19z"/>
<path d="M7424 6537 c-70 -20 -89 -50 -63 -98 9 -17 19 -20 57 -18 l47 3 7
-99 c4 -54 5 -101 3 -104 -3 -2 -31 -3 -62 -2 -61 2 -73 -6 -73 -51 0 -50 35
-65 174 -73 141 -8 175 1 212 58 26 38 47 144 38 184 -26 115 -35 134 -86 173
-49 39 -51 40 -131 39 -45 -1 -101 -6 -123 -12z m214 -148 c32 -46 27 -119
-11 -156 -14 -14 -30 -22 -36 -19 -12 8 -16 198 -4 210 12 11 27 1 51 -35z"/>
<path d="M4675 6460 c-36 -24 -63 -75 -66 -126 -8 -172 6 -289 38 -315 17 -15
265 22 290 42 13 11 15 30 11 114 -8 145 -33 238 -75 276 -30 26 -40 29 -101
28 -48 0 -76 -6 -97 -19z m164 -172 c6 -27 11 -67 11 -88 0 -44 -11 -54 -72
-63 -58 -9 -72 8 -76 95 -5 93 7 124 50 136 44 12 73 -14 87 -80z"/>
<path d="M7264 5742 c-27 -29 -98 -167 -118 -230 -20 -60 -15 -119 15 -168 22
-37 51 -53 104 -55 97 -6 114 -1 163 45 43 41 59 68 138 229 26 54 19 69 -49
104 -185 93 -225 105 -253 75z m126 -127 c30 -15 50 -32 50 -42 0 -25 -35 -93
-70 -135 -48 -58 -104 -48 -125 20 -9 32 61 182 87 182 5 0 31 -11 58 -25z"/>
<path d="M4985 5660 c-105 -50 -154 -93 -166 -147 -11 -51 3 -133 31 -178 23
-37 88 -93 137 -118 43 -23 133 -32 175 -18 59 20 186 171 174 208 -4 10 -18
27 -33 37 -25 18 -27 18 -59 1 -18 -10 -39 -15 -47 -12 -15 6 -97 121 -97 137
0 5 11 17 25 26 30 20 32 43 4 78 -27 34 -47 32 -144 -14z m59 -192 c25 -35
54 -75 65 -90 25 -31 27 -54 5 -62 -63 -24 -155 24 -173 91 -6 21 -11 45 -11
54 0 22 38 69 56 69 7 0 34 -28 58 -62z"/>
<path d="M6676 5209 c-30 -23 -32 -36 -12 -74 8 -15 12 -33 10 -40 -6 -15
-162 -87 -174 -80 -4 3 -11 22 -15 43 -10 61 -17 67 -63 54 -26 -8 -42 -19
-45 -33 -14 -51 30 -214 63 -234 6 -4 17 -22 24 -40 34 -80 195 -100 301 -38
28 17 63 49 83 78 32 47 34 54 29 110 -5 60 -40 147 -87 217 -44 63 -70 72
-114 37z m84 -252 c0 -39 -4 -45 -40 -69 -53 -34 -127 -46 -149 -24 -12 13
-13 21 -5 34 11 17 159 100 182 101 8 1 12 -14 12 -42z"/>
<path d="M5692 5117 c-42 -16 -112 -84 -112 -109 0 -25 39 -60 86 -77 22 -7
57 -22 78 -32 55 -26 73 -24 92 12 21 41 6 79 -30 79 -25 0 -51 22 -39 33 15
16 58 5 94 -24 33 -26 39 -37 39 -68 0 -40 -11 -59 -50 -85 -54 -35 -139 -8
-207 68 -37 40 -47 46 -83 46 -50 0 -58 -16 -36 -73 19 -52 117 -150 165 -166
49 -16 155 -14 199 5 84 35 128 117 120 223 -5 72 -41 121 -113 153 -59 25
-156 33 -203 15z"/>
<path d="M7465 8063 c-73 -38 -153 -143 -140 -184 7 -22 57 -39 63 -21 2 7 12
22 22 34 l18 22 42 -29 c52 -36 56 -46 34 -84 -15 -25 -16 -35 -6 -55 14 -31
51 -35 75 -8 57 63 127 191 127 233 0 26 -45 76 -87 98 -31 16 -113 13 -148
-6z m130 -87 c18 -27 11 -56 -14 -56 -27 0 -75 45 -68 63 10 26 63 22 82 -7z"/>
<path d="M4440 7830 c-7 -16 -10 -36 -7 -44 3 -8 38 -33 76 -56 74 -44 95 -76
74 -109 -15 -24 -40 -25 -88 -2 -25 12 -53 21 -63 21 -10 0 -33 11 -52 25 -45
33 -58 32 -76 -11 -19 -44 -14 -59 22 -68 15 -4 39 -15 53 -25 55 -37 134 -63
176 -58 80 9 142 81 128 150 -9 43 -31 97 -41 97 -5 0 -26 16 -48 36 -88 80
-133 94 -154 44z"/>
<path d="M7860 7761 c-20 -4 -41 -10 -47 -14 -15 -10 -33 -71 -33 -114 0 -43
-15 -50 -30 -14 -6 16 -20 38 -31 50 l-20 21 -30 -20 c-36 -26 -36 -37 -3
-106 29 -61 51 -79 107 -87 53 -8 84 26 92 102 11 97 21 103 60 41 14 -22 32
-40 40 -40 17 0 55 35 55 51 0 28 -102 144 -122 138 -1 -1 -19 -4 -38 -8z"/>
<path d="M7768 5139 c-63 -33 -90 -102 -65 -172 16 -48 109 -143 164 -168 54
-25 55 -24 82 12 l22 30 -37 34 c-40 37 -40 41 6 104 l32 43 27 -26 c42 -41
91 -30 91 20 0 49 -166 145 -249 144 -20 -1 -53 -10 -73 -21z m110 -82 c4 -19
-42 -87 -59 -87 -14 0 -38 61 -31 79 8 24 24 31 57 29 19 -2 31 -9 33 -21z"/>
<path d="M4551 5056 c-8 -10 -11 -28 -7 -48 5 -29 2 -35 -25 -50 -17 -10 -38
-18 -47 -18 -29 1 -61 33 -74 75 -14 44 -40 55 -79 35 -19 -11 -21 -18 -15
-56 8 -60 29 -98 72 -131 31 -23 46 -28 93 -27 53 1 78 8 126 37 89 53 101 85
53 148 -36 47 -75 61 -97 35z"/>
<path d="M7472 4802 c-67 -64 -122 -122 -122 -128 0 -15 44 -54 61 -54 9 0 28
14 44 30 16 17 34 30 39 30 6 0 40 -32 76 -71 57 -62 69 -71 90 -66 32 9 64
52 53 71 -4 8 -34 42 -65 75 -32 34 -58 66 -58 72 0 7 16 29 35 50 19 22 35
44 35 50 0 10 -48 59 -59 59 -3 0 -61 -53 -129 -118z"/>
<path d="M4733 4774 c-52 -19 -80 -56 -92 -120 -11 -59 8 -103 65 -153 64 -57
74 -58 156 -18 41 19 79 41 85 49 6 7 17 40 24 73 10 52 10 64 -4 91 -38 73
-147 110 -234 78z m112 -100 c29 -19 32 -50 8 -76 -36 -40 -122 -6 -110 44 6
23 37 46 65 47 7 1 24 -6 37 -15z"/>
<path d="M7104 4554 c-33 -16 -84 -96 -84 -131 0 -26 38 -135 64 -185 31 -58
49 -67 83 -42 36 27 40 56 14 93 -12 16 -21 31 -21 34 0 14 61 15 108 3 51
-14 54 -13 79 8 36 32 25 62 -30 77 -54 15 -77 42 -77 89 0 63 -66 89 -136 54z
m64 -101 c4 -25 -31 -69 -46 -59 -17 10 -15 52 4 71 20 20 38 15 42 -12z"/>
<path d="M5085 4539 c-35 -20 -66 -58 -80 -100 -44 -125 19 -222 146 -223 56
0 88 19 129 76 23 31 27 44 19 54 -6 8 -17 14 -24 14 -7 0 -32 16 -55 35 -57
48 -92 46 -105 -6 -4 -18 -1 -31 10 -43 13 -13 14 -16 2 -16 -25 0 -37 25 -31
61 4 19 11 40 17 47 13 16 57 15 76 -2 9 -8 27 -17 41 -20 14 -3 40 -11 58
-18 28 -11 34 -10 42 2 11 18 -18 76 -59 115 -28 26 -40 30 -99 32 -38 2 -76
-1 -87 -8z"/>
<path d="M6715 4381 c-11 -5 -34 -23 -51 -40 -49 -50 -57 -138 -23 -239 23
-67 47 -84 88 -62 17 9 21 20 21 66 0 53 1 55 35 70 49 20 61 18 75 -17 21
-49 36 -60 68 -48 37 14 43 27 36 74 -8 50 -56 155 -83 179 -23 21 -133 32
-166 17z m70 -90 c5 -9 -31 -41 -47 -41 -15 0 -8 29 10 39 22 13 29 13 37 2z"/>
<path d="M5490 4346 c-12 -33 3 -76 30 -83 31 -8 26 -55 -8 -75 -27 -16 -30
-16 -90 14 -51 26 -68 30 -90 22 -44 -15 -38 -43 19 -102 l52 -53 76 4 c42 3
83 7 92 11 31 14 81 106 94 174 18 97 18 97 -94 108 -70 6 -71 6 -81 -20z"/>
<path d="M6210 4313 c-35 -12 -40 -35 -40 -175 0 -125 2 -140 20 -158 38 -38
90 -18 90 33 0 18 6 41 13 51 11 16 18 13 75 -33 35 -28 70 -51 78 -51 41 0
27 91 -22 133 -39 35 -43 56 -15 81 21 19 35 77 26 106 -10 32 -38 23 -90 -30
-27 -27 -53 -50 -57 -50 -4 0 -8 18 -8 40 0 49 -26 69 -70 53z"/>
<path d="M5828 4275 c-21 -18 -38 -40 -38 -48 0 -8 -6 -20 -13 -26 -22 -18
-43 -146 -29 -177 11 -22 17 -25 54 -22 34 2 44 8 58 33 13 24 24 30 51 31 47
1 59 -5 59 -28 0 -40 19 -58 60 -58 49 0 60 18 60 97 0 118 -10 160 -47 198
-33 34 -37 35 -106 35 -68 0 -74 -2 -109 -35z m126 -81 c21 -21 20 -31 -4 -39
-23 -7 -90 4 -90 15 0 17 32 40 55 40 13 0 31 -7 39 -16z"/>
</g>
</svg>
