<?xml version="1.0" standalone="no"?>
<!DOCTYPE svg PUBLIC "-//W3C//DTD SVG 20010904//EN"
 "http://www.w3.org/TR/2001/REC-SVG-20010904/DTD/svg10.dtd">
<svg version="1.0" xmlns="http://www.w3.org/2000/svg"
 width="328.000000pt" height="426.000000pt" viewBox="0 0 328.000000 426.000000"
 preserveAspectRatio="xMidYMid meet">

<g transform="translate(0.000000,426.000000) scale(0.100000,-0.100000)"
fill="#000000" stroke="none">
<path d="M711 4044 c-95 -28 -150 -57 -236 -125 -131 -103 -189 -181 -231
-306 l-25 -78 5 -825 c3 -454 9 -1065 12 -1357 l6 -533 52 -1 c28 0 303 -1
611 -1 l560 -1 50 25 c28 15 60 37 72 50 77 81 84 83 132 46 88 -71 115 -87
184 -110 72 -23 72 -23 647 -23 l575 0 7 60 c11 100 -2 2645 -14 2690 -24 94
-70 180 -140 263 -64 75 -90 97 -173 149 -82 52 -154 76 -250 86 -55 5 -473
11 -930 13 l-830 3 -84 -25z m1799 -63 c157 -20 267 -76 381 -191 69 -69 113
-134 125 -185 4 -16 14 -40 22 -53 12 -18 17 -76 22 -260 10 -317 7 -2384 -3
-2399 -6 -10 -100 -13 -415 -13 -224 0 -424 4 -445 9 -49 12 -111 54 -136 95
-11 17 -28 41 -37 54 -43 58 -45 104 -44 733 l0 146 106 54 c101 51 132 77
189 154 11 15 31 38 43 52 29 31 74 146 66 168 -9 21 -19 19 -33 -9 -23 -42
-96 -72 -221 -90 -63 -10 -146 -22 -185 -28 -100 -15 -175 -45 -212 -84 -18
-19 -36 -34 -42 -34 -5 0 -24 17 -43 38 -44 51 -86 67 -278 102 -58 11 -127
20 -154 20 -66 0 -154 34 -198 76 -43 40 -48 41 -48 14 0 -23 42 -132 59 -152
6 -7 31 -38 55 -68 68 -85 145 -147 230 -185 29 -13 63 -36 76 -52 22 -28 22
-28 18 -398 l-4 -370 -26 -50 c-32 -62 -100 -126 -168 -159 l-52 -25 -419 0
c-399 -1 -419 0 -429 18 -12 23 -11 459 2 483 4 10 4 19 -1 23 -6 3 -10 398
-11 1040 -1 1172 -3 1125 74 1238 60 87 164 187 227 219 102 50 148 69 191 78
52 11 1624 3 1718 -9z m-865 -2347 c10 -361 3 -470 -35 -550 -38 -80 -92 -135
-157 -162 -52 -22 -93 -28 -93 -14 0 4 22 30 49 58 27 28 52 62 56 75 4 13 13
31 19 39 33 40 36 92 30 467 -7 397 -7 394 41 413 16 7 27 2 51 -24 l32 -33 7
-269z m192 321 c18 -9 34 -26 37 -41 4 -15 7 -181 6 -369 0 -326 8 -463 31
-507 5 -10 19 -29 32 -42 62 -69 68 -79 52 -88 -20 -12 -81 0 -96 18 -6 8 -17
14 -23 14 -16 0 -106 98 -117 129 -15 37 -22 836 -9 861 6 12 21 25 33 30 12
5 22 9 23 9 0 1 15 -6 31 -14z"/>
<path d="M949 3943 c-12 -14 -15 -41 -13 -126 2 -117 13 -148 41 -112 12 16
14 39 9 123 -7 119 -14 142 -37 115z"/>
<path d="M1103 3933 c-20 -4 -23 -11 -23 -46 0 -23 4 -48 8 -54 5 -7 37 -22
73 -34 76 -25 96 -38 77 -50 -19 -12 -64 -11 -110 3 -32 9 -41 9 -48 -2 -39
-63 180 -99 222 -36 13 19 9 74 -6 89 -8 7 -46 24 -86 36 -88 28 -87 45 3 49
57 2 67 6 67 21 0 11 -10 21 -22 25 -25 6 -120 6 -155 -1z"/>
<path d="M1396 3903 c-3 -21 -6 -75 -6 -120 0 -99 4 -103 115 -103 69 0 76 2
84 23 5 12 7 25 4 30 -2 4 -38 7 -79 7 l-74 0 0 100 c0 91 -2 100 -19 100 -14
0 -20 -10 -25 -37z"/>
<path d="M1768 3903 c-30 -32 -98 -148 -98 -168 0 -7 -5 -15 -12 -17 -20 -7 2
-28 29 -28 17 0 27 7 30 20 7 25 33 32 103 28 49 -3 56 -6 68 -30 13 -28 36
-37 47 -19 12 21 -69 200 -103 229 -23 18 -35 15 -64 -15z m62 -107 c-28 -35
-62 -7 -40 34 l12 22 21 -20 c17 -17 18 -23 7 -36z"/>
<path d="M2032 3917 c-16 -19 -29 -222 -14 -231 26 -16 42 6 42 60 0 71 16 71
85 -2 42 -44 58 -54 74 -49 12 3 21 10 21 15 0 18 62 80 80 80 17 0 31 -38 34
-90 1 -8 11 -16 24 -18 20 -3 22 0 21 45 -1 79 -15 153 -31 169 -13 13 -19 14
-37 2 -12 -7 -24 -21 -27 -32 -9 -28 -74 -96 -92 -96 -9 0 -51 36 -92 81 -64
68 -78 78 -88 66z"/>
<path d="M2824 3720 c-31 -33 -127 -110 -137 -110 -13 0 -4 -53 10 -57 6 -3
27 10 45 28 18 17 49 42 68 54 54 35 76 63 64 82 -16 25 -28 26 -50 3z"/>
<path d="M416 3641 c-21 -23 -56 -113 -56 -144 0 -66 83 -94 117 -39 34 54 77
102 90 102 23 0 14 -44 -18 -83 -33 -40 -36 -79 -7 -85 52 -10 111 147 78 209
-8 14 -21 19 -55 19 -42 0 -45 -2 -71 -47 -29 -52 -50 -73 -71 -73 -19 0 -16
21 12 76 14 27 25 57 25 67 0 23 -23 22 -44 -2z"/>
<path d="M2880 3534 c-25 -8 -54 -18 -65 -23 -11 -6 -31 -11 -45 -13 -19 -2
-26 -10 -28 -30 -4 -32 5 -34 74 -17 65 17 73 4 39 -65 -15 -30 -38 -67 -51
-81 -46 -50 -36 -56 84 -53 102 3 107 4 110 26 3 21 0 22 -57 22 -33 0 -62 4
-65 9 -6 9 21 71 34 81 16 11 41 73 47 115 7 52 2 53 -77 29z"/>
<path d="M1509 3268 c-74 -73 -152 -147 -173 -163 -39 -30 -39 -31 -27 -68 11
-32 10 -41 -3 -62 -22 -33 -60 -42 -92 -20 -33 22 -46 16 -83 -39 -32 -45 -43
-117 -21 -131 6 -3 10 -13 10 -21 0 -18 47 -59 102 -91 37 -21 115 -40 188
-45 28 -3 36 -8 40 -28 9 -43 23 -56 100 -94 41 -20 88 -46 103 -58 l28 -23
17 22 c9 13 46 34 82 49 76 30 108 56 112 92 3 23 8 26 49 29 68 4 130 26 191
66 89 60 103 79 103 147 0 52 -3 62 -30 88 -49 47 -71 55 -99 37 -38 -25 -74
-11 -86 35 -7 28 -7 46 1 64 11 23 9 28 -15 48 -16 13 -89 83 -164 156 -75 72
-140 132 -145 132 -6 0 -7 -91 -2 -245 7 -242 7 -246 31 -270 50 -50 14 -125
-61 -125 -38 0 -65 26 -70 69 -4 32 2 42 54 84 15 12 20 24 16 38 -4 11 -7
119 -7 240 0 120 -4 219 -7 219 -4 0 -68 -60 -142 -132z"/>
<path d="M500 3311 c-101 -39 -161 -86 -144 -112 3 -6 21 -17 38 -25 17 -8 49
-26 71 -39 48 -30 81 -45 101 -45 21 0 17 33 -6 48 -29 17 -29 124 -1 149 20
16 18 44 -3 42 -6 0 -31 -9 -56 -18z m-12 -73 c15 -15 16 -54 2 -63 -35 -22
-77 38 -44 62 22 16 27 16 42 1z"/>
<path d="M2764 3145 c-10 -39 1 -137 20 -173 23 -45 70 -74 118 -74 43 1 71
20 94 64 18 35 19 184 2 195 -7 4 -61 9 -120 11 l-107 4 -7 -27z m196 -50 c26
-48 -6 -155 -47 -155 -48 0 -93 68 -93 140 l0 40 63 0 c57 0 65 -2 77 -25z"/>
<path d="M356 3098 c-7 -29 -8 -193 0 -200 3 -3 14 -4 25 -1 14 4 19 14 19 39
0 39 -3 38 105 38 79 1 80 1 80 26 0 24 -3 25 -60 27 -114 5 -123 9 -127 51
-4 43 -32 57 -42 20z"/>
<path d="M359 2834 c-5 -6 -4 -17 4 -28 10 -14 28 -16 117 -14 99 3 105 4 108
25 3 21 0 22 -108 25 -72 2 -115 -1 -121 -8z"/>
<path d="M2813 2822 c-42 -22 -63 -67 -63 -134 0 -66 24 -107 78 -136 44 -23
102 -21 123 4 6 8 17 14 23 14 18 0 36 60 36 117 0 98 -34 141 -118 148 -33 3
-57 0 -79 -13z m128 -65 c19 -23 30 -86 22 -117 -7 -24 -51 -50 -88 -50 -28 0
-61 28 -75 65 -24 63 34 142 94 130 17 -4 38 -16 47 -28z"/>
<path d="M479 2733 c-25 -30 -38 -66 -41 -108 -2 -32 -7 -40 -23 -40 -18 0
-20 6 -17 68 3 55 0 68 -13 74 -25 9 -35 -14 -35 -82 0 -68 13 -99 53 -129
l27 -20 21 20 c13 13 23 42 28 78 8 60 38 105 61 91 12 -7 10 -64 -6 -127 -5
-20 -1 -29 15 -37 30 -17 45 19 45 112 1 71 -1 81 -23 98 -29 24 -73 25 -92 2z"/>
<path d="M983 2723 c-14 -21 -18 -48 -18 -128 0 -88 3 -106 26 -150 14 -27 35
-55 46 -60 12 -6 27 -16 34 -22 8 -6 43 -18 79 -27 36 -10 80 -22 99 -28 19
-6 64 -12 100 -14 99 -7 169 -21 206 -44 18 -11 39 -20 47 -20 7 0 29 -13 48
-29 l35 -29 35 32 c43 39 111 62 209 70 40 4 92 10 115 15 22 5 72 15 110 22
108 19 160 53 203 133 23 43 27 63 28 131 0 91 -26 178 -51 168 -8 -3 -14 -13
-14 -22 0 -45 -23 -88 -63 -117 -38 -29 -61 -37 -182 -64 -51 -11 -115 -32
-185 -60 -30 -12 -65 -24 -77 -27 -13 -3 -23 -9 -23 -14 0 -5 -5 -9 -12 -9 -7
0 -29 -17 -50 -37 l-38 -37 -32 30 c-18 17 -65 51 -103 77 -70 45 -72 46 -194
57 -204 19 -302 73 -330 181 -7 27 -17 49 -22 49 -5 0 -17 -12 -26 -27z"/>
<path d="M2762 2441 c3 -25 5 -26 81 -29 89 -3 95 -11 49 -71 -16 -20 -38 -52
-50 -71 -11 -19 -30 -41 -41 -48 -28 -17 -26 -46 4 -62 18 -10 28 -10 38 -2 7
6 46 12 87 14 67 3 75 5 75 23 0 18 -8 20 -62 23 -35 2 -63 7 -63 13 0 11 29
59 44 74 24 23 90 145 82 152 -2 3 -59 6 -126 8 l-121 3 3 -27z"/>
<path d="M404 2450 c-30 -12 -45 -65 -47 -161 0 -60 3 -83 14 -90 8 -5 60 -9
117 -9 95 0 102 1 102 20 0 15 -7 20 -29 20 -36 0 -42 8 -43 60 0 34 6 48 41
85 58 63 53 96 -9 60 -32 -18 -70 -19 -70 -1 0 24 -37 32 -76 16z m64 -154
c-3 -49 -4 -51 -33 -51 -30 0 -30 0 -30 56 0 34 6 63 15 74 13 16 15 16 33 -6
13 -16 17 -36 15 -73z"/>
<path d="M369 2113 c-2 -92 4 -189 12 -198 11 -11 162 -19 197 -10 21 5 22 9
22 121 0 103 -2 115 -17 112 -20 -4 -27 -77 -12 -117 18 -45 -16 -86 -48 -59
-12 9 -13 27 -8 90 4 45 3 78 -2 78 -21 0 -33 -27 -33 -76 0 -62 -14 -104 -34
-104 -23 0 -28 16 -27 88 1 83 -5 102 -30 102 -14 0 -19 -7 -20 -27z"/>
<path d="M2780 2084 c0 -11 -3 -72 -7 -137 l-6 -119 24 4 c23 3 24 5 21 81 -4
91 8 119 39 91 22 -20 25 -79 8 -118 -7 -14 -9 -33 -5 -42 6 -16 9 -16 29 4
17 18 22 36 25 97 4 71 5 75 28 75 25 0 31 -18 25 -80 -1 -14 0 -44 4 -67 5
-34 10 -43 26 -43 18 0 19 8 19 130 l0 130 -77 0 c-43 0 -95 3 -115 6 -33 6
-38 4 -38 -12z"/>
<path d="M377 1850 c-4 -14 4 -25 28 -40 18 -11 36 -20 41 -20 5 0 20 -9 33
-19 20 -15 22 -21 12 -39 -6 -11 -21 -24 -33 -27 -72 -21 -94 -39 -78 -65 7
-11 15 -11 51 0 23 8 47 19 53 25 7 5 30 20 51 31 57 31 66 50 35 76 -25 20
-120 71 -165 88 -19 7 -24 5 -28 -10z"/>
<path d="M2786 1694 c-3 -9 -6 -58 -6 -109 0 -90 1 -95 28 -120 15 -14 36 -24
47 -23 26 4 64 80 71 144 7 65 11 74 29 74 18 0 21 -73 5 -116 -12 -31 -5 -64
15 -64 19 0 35 54 35 119 0 94 -29 126 -90 101 -28 -11 -40 -41 -40 -95 0 -12
-7 -39 -15 -60 -14 -32 -18 -35 -32 -23 -13 10 -15 27 -9 100 5 82 4 88 -13
88 -10 0 -22 -7 -25 -16z"/>
<path d="M408 1586 c-20 -7 -28 -17 -28 -34 0 -20 4 -23 23 -18 12 3 59 6 105
6 80 0 82 1 82 24 0 23 -2 24 -58 19 -32 -3 -67 -1 -78 4 -12 6 -29 6 -46 -1z"/>
<path d="M377 1494 c-3 -3 -3 -12 0 -20 3 -9 21 -14 53 -14 35 0 50 -4 54 -16
6 -15 1 -26 -31 -64 -7 -8 -26 -32 -43 -52 -61 -72 -31 -98 108 -95 75 2 77 3
77 27 0 24 -3 25 -62 25 -34 0 -65 3 -69 8 -11 11 15 54 61 101 39 40 65 79
65 97 0 10 -203 13 -213 3z"/>
<path d="M2832 1362 c-44 -3 -53 -6 -50 -20 3 -15 19 -17 116 -20 105 -2 112
-1 112 17 0 17 -8 20 -62 23 -35 1 -87 2 -116 0z"/>
<path d="M2777 1243 c-12 -11 -8 -20 24 -50 28 -28 30 -34 27 -94 -3 -55 -6
-65 -25 -74 -14 -6 -23 -19 -23 -32 0 -24 22 -43 28 -25 2 7 7 12 12 12 5 0
47 23 94 51 104 62 109 79 39 130 -103 75 -158 101 -176 82z m138 -119 c30
-20 31 -30 5 -44 -42 -23 -80 16 -48 48 15 15 14 15 43 -4z"/>
<path d="M390 1170 c-40 -40 -20 -52 62 -37 54 10 59 9 92 -16 40 -31 42 -65
5 -97 -21 -18 -33 -19 -101 -14 -66 6 -78 4 -78 -9 0 -43 9 -47 97 -47 85 0
86 0 119 36 41 43 45 94 13 149 -26 44 -52 55 -130 55 -46 0 -63 -4 -79 -20z"/>
<path d="M903 723 c-7 -2 -13 -14 -13 -25 0 -14 6 -19 23 -16 14 2 22 10 22
22 0 21 -12 28 -32 19z"/>
<path d="M2217 707 c-28 -23 -43 -90 -53 -237 -5 -79 -35 -144 -72 -158 -15
-6 -49 -13 -75 -17 -48 -6 -49 -6 -42 17 4 13 11 25 16 28 10 7 24 69 45 200
8 58 22 117 30 132 17 32 17 38 1 38 -31 0 -49 -28 -61 -90 -12 -70 -36 -94
-36 -38 0 48 -9 53 -39 22 -14 -14 -43 -36 -63 -49 -33 -21 -39 -22 -52 -10
-12 13 -18 12 -44 0 -16 -8 -54 -20 -84 -26 -72 -15 -125 5 -134 50 -4 17 -15
38 -25 47 -34 31 -24 46 28 43 40 -3 48 0 51 15 3 13 -2 17 -20 16 -43 -4 -57
0 -60 18 -3 13 -11 6 -32 -26 -16 -23 -26 -45 -22 -49 7 -7 -33 -53 -46 -53
-5 0 -18 -9 -30 -20 -30 -28 -48 -25 -48 8 0 35 25 105 39 110 12 4 15 32 4
32 -13 -1 -37 -23 -55 -51 -12 -19 -17 -60 -22 -165 -7 -168 -13 -203 -40
-226 -17 -14 -18 -17 -5 -18 9 0 33 7 52 15 20 8 49 15 65 15 18 0 40 11 57
26 l29 27 21 -25 c12 -14 36 -30 55 -36 41 -15 125 -15 151 -1 11 6 55 11 97
12 76 2 77 2 80 30 4 29 -12 37 -22 11 -3 -8 -11 -12 -16 -9 -6 4 -17 1 -25
-5 -12 -10 -15 -9 -15 5 0 9 -3 15 -7 13 -71 -36 -112 -48 -158 -48 -49 0 -58
4 -89 35 -40 40 -49 79 -44 195 3 78 17 95 31 38 11 -40 31 -55 85 -64 32 -5
57 -1 96 14 33 13 58 17 67 11 19 -11 58 0 95 27 30 23 30 23 47 3 14 -16 21
-17 37 -9 30 16 36 -10 20 -89 -20 -101 -32 -128 -69 -156 -41 -29 -40 -29 98
-15 76 8 101 15 128 36 37 28 63 81 63 129 0 62 30 228 45 251 30 46 14 58
-28 21z m-762 -214 c-2 -43 -4 -94 -5 -113 -1 -44 -28 -66 -96 -75 l-49 -8 20
23 c15 16 21 40 24 98 2 42 8 81 15 86 31 30 79 66 86 66 5 0 8 -35 5 -77z"/>
<path d="M2989 707 c-22 -18 -27 -33 -31 -80 -5 -63 -22 -93 -38 -67 -5 8 -10
30 -10 48 0 38 -17 42 -30 7 -11 -28 -16 -31 -77 -39 -33 -5 -43 -3 -43 7 0
36 -71 62 -141 51 -33 -6 -39 -10 -39 -30 0 -21 5 -24 39 -24 21 0 44 -6 50
-14 14 -16 11 -19 -42 -35 -58 -19 -91 -7 -132 51 -43 59 -38 71 32 72 36 1
48 5 48 16 0 11 -10 14 -38 13 -32 -2 -40 1 -44 17 -6 22 -24 25 -54 10 -15
-8 -19 -21 -19 -60 0 -41 -5 -54 -27 -75 -15 -14 -31 -25 -35 -25 -5 0 -8 -9
-8 -19 0 -18 2 -19 28 -6 l27 15 8 -91 c6 -74 12 -97 33 -124 32 -42 108 -75
174 -75 60 0 244 36 281 56 15 7 45 16 68 20 57 9 51 22 -10 22 -67 0 -81 14
-46 46 33 31 77 128 77 170 0 29 19 110 35 149 10 23 -4 21 -36 -6z m-109
-161 c6 -8 21 -16 33 -18 18 -2 21 -8 18 -33 -7 -62 -62 -121 -115 -123 -42
-2 -86 -18 -86 -32 0 -8 15 -9 45 -4 49 7 103 -2 89 -15 -18 -17 -162 -43
-205 -38 -137 16 -201 58 -213 140 -7 47 0 127 11 127 3 0 16 -11 29 -25 19
-20 33 -25 72 -25 27 0 69 7 92 15 23 8 61 15 84 15 23 0 51 7 62 15 25 19 68
19 84 1z"/>
<path d="M2816 484 c-9 -23 -7 -64 2 -64 7 0 32 57 32 73 0 14 -28 6 -34 -9z"/>
<path d="M555 713 c-11 -3 -23 -10 -27 -16 -4 -7 -11 -7 -22 2 -13 11 -17 11
-22 -3 -8 -21 2 -46 19 -46 34 0 87 31 87 50 0 21 -1 21 -35 13z"/>
<path d="M1863 714 c-20 -9 -16 -37 4 -30 9 4 20 2 23 -5 10 -15 53 7 47 24
-4 13 -53 20 -74 11z"/>
<path d="M2290 683 c-23 -34 -25 -47 -30 -192 -4 -121 -9 -164 -23 -190 -9
-19 -15 -36 -13 -39 8 -8 55 33 56 48 0 9 5 21 11 27 7 7 12 66 13 161 1 139
3 153 24 181 27 36 27 41 5 41 -10 0 -29 -17 -43 -37z"/>
<path d="M3071 691 c-14 -20 -21 -45 -21 -78 0 -27 -4 -53 -9 -59 -5 -5 -11
-59 -13 -120 -2 -85 -7 -116 -21 -138 -24 -36 -15 -43 21 -17 36 25 40 43 48
206 4 77 12 141 20 157 16 31 19 78 5 78 -5 0 -19 -13 -30 -29z"/>
<path d="M1049 701 c-22 -8 -66 -61 -70 -85 -2 -11 -16 -23 -32 -27 -16 -4
-35 -16 -42 -26 -11 -15 -15 -15 -29 -4 -9 7 -16 22 -16 32 0 26 -15 24 -37
-5 -22 -27 -58 -42 -68 -26 -9 14 -48 13 -64 -2 -11 -11 -15 -10 -24 4 -9 14
-14 14 -31 3 -12 -8 -51 -21 -88 -31 -80 -21 -115 -12 -124 35 -4 20 -11 28
-23 26 -9 -2 -21 -4 -27 -4 -9 -1 -104 -124 -104 -136 0 -3 6 -5 13 -4 6 0 31
27 55 60 24 32 47 59 52 59 5 0 10 -15 12 -32 4 -45 39 -57 110 -38 54 15 69
16 288 19 68 1 130 7 137 12 23 20 33 -2 33 -75 0 -120 -9 -166 -35 -176 -37
-14 -43 -33 -9 -26 16 3 61 11 99 17 109 18 126 50 140 254 7 103 12 131 33
163 12 19 12 22 0 22 -20 0 -55 -40 -62 -70 -3 -14 -8 -77 -11 -140 -8 -174
-22 -200 -104 -200 l-41 0 15 36 c10 24 15 70 15 138 0 113 12 168 41 197 23
23 22 39 -2 30z"/>
<path d="M1268 687 c-35 -30 -39 -46 -43 -197 -2 -105 -7 -137 -23 -170 -18
-37 -13 -51 13 -32 32 23 38 48 45 185 8 133 14 164 48 230 7 14 -14 6 -40
-16z"/>
<path d="M1650 679 c0 -9 6 -19 14 -22 18 -7 85 8 99 22 13 13 10 13 -60 15
-43 1 -53 -2 -53 -15z"/>
<path d="M360 669 c0 -17 6 -20 42 -17 30 2 44 8 46 19 2 12 -7 16 -43 17 -38
0 -45 -3 -45 -19z"/>
<path d="M635 654 c-16 -9 -46 -20 -65 -23 -26 -5 -35 -11 -35 -26 0 -26 34
-31 74 -11 16 9 41 16 55 16 31 0 40 14 26 40 -13 24 -17 24 -55 4z"/>
<path d="M927 653 c-13 -12 -7 -23 13 -23 11 0 20 7 20 15 0 15 -21 21 -33 8z"/>
<path d="M1668 633 c-10 -2 -18 -11 -18 -19 0 -22 44 -14 48 9 4 17 1 18 -30
10z"/>
<path d="M820 484 c0 -10 13 -14 45 -14 32 0 45 4 45 14 0 10 -13 14 -45 14
-32 0 -45 -4 -45 -14z"/>
<path d="M415 460 c-11 -18 5 -30 38 -30 33 1 72 22 60 33 -10 11 -91 8 -98
-3z"/>
<path d="M1903 458 c-6 -7 -13 -28 -16 -45 -5 -25 -3 -33 8 -33 10 0 15 10 15
29 0 16 6 31 15 35 8 3 15 10 15 16 0 14 -26 13 -37 -2z"/>
<path d="M552 430 c-28 -17 -32 -23 -22 -35 7 -8 19 -15 27 -15 8 0 13 -6 11
-12 -6 -21 -108 -65 -180 -78 -38 -7 -68 -17 -68 -22 0 -11 14 -10 86 3 145
27 273 132 205 169 -25 13 -20 13 -59 -10z"/>
<path d="M2344 435 c-8 -20 2 -45 19 -45 9 0 14 11 14 30 0 32 -23 42 -33 15z"/>
<path d="M1625 430 c-10 -16 21 -27 63 -22 62 6 56 30 -8 30 -28 0 -52 -4 -55
-8z"/>
<path d="M802 413 c4 -21 33 -25 33 -3 0 8 -8 16 -18 18 -14 3 -18 -1 -15 -15z"/>
<path d="M707 403 c-2 -5 -7 -19 -10 -33 -8 -31 -52 -58 -136 -82 l-66 -18 76
4 c42 2 86 10 98 18 15 9 24 10 29 2 34 -52 151 -39 172 20 15 43 4 44 -34 3
-61 -67 -115 -41 -101 49 5 35 3 44 -9 44 -8 0 -17 -3 -19 -7z"/>
<path d="M2916 291 c-7 -11 22 -23 35 -15 5 3 7 10 4 15 -8 12 -32 12 -39 0z"/>
</g>
</svg>
