<?xml version="1.0" encoding="UTF-8"?>
<svg version="1.1" xmlns="http://www.w3.org/2000/svg" width="225" height="225">
<path d="M0 0 C74.25 0 148.5 0 225 0 C225 74.25 225 148.5 225 225 C150.75 225 76.5 225 0 225 C0 150.75 0 76.5 0 0 Z " fill="#FEFEFE" transform="translate(0,0)"/>
<path d="M0 0 C3.3 0 6.6 0 10 0 C10.01981934 1.34223633 10.03963867 2.68447266 10.06005859 4.06738281 C10.13613032 9.04722862 10.22484558 14.02678283 10.31738281 19.00634766 C10.35566602 21.16156253 10.39052004 23.31684116 10.421875 25.47216797 C10.4675395 28.57021876 10.52553212 31.66783091 10.5859375 34.765625 C10.59748871 35.72929993 10.60903992 36.69297485 10.62094116 37.68585205 C10.64081085 38.58648376 10.66068054 39.48711548 10.68115234 40.41503906 C10.69447601 41.20557678 10.70779968 41.9961145 10.7215271 42.81060791 C11.03482451 45.27379504 11.69148962 46.89711819 13 49 C15.70238298 50.35119149 17.86014446 50.13237128 20.875 50.125 C21.92429687 50.12757813 22.97359375 50.13015625 24.0546875 50.1328125 C27.62067662 49.98443384 27.62067662 49.98443384 31 49 C31.93789698 46.18630906 32.14931982 44.356895 32.20532227 41.43676758 C32.22526749 40.51603958 32.24521271 39.59531158 32.26576233 38.64668274 C32.28247482 37.65597275 32.29918732 36.66526276 32.31640625 35.64453125 C32.33718735 34.62775803 32.35796844 33.6109848 32.37937927 32.56340027 C32.44480048 29.31316937 32.50372537 26.06285723 32.5625 22.8125 C32.60569227 20.61001762 32.64930679 18.40754347 32.69335938 16.20507812 C32.80047432 10.80346883 32.90176289 5.40177775 33 0 C36.3 0 39.6 0 43 0 C43.09933715 5.83491118 43.17168936 11.66932337 43.21972656 17.50488281 C43.23976497 19.48739199 43.26700353 21.46984263 43.30175781 23.45214844 C43.35061954 26.31199641 43.37304673 29.17105881 43.390625 32.03125 C43.41127014 32.90865845 43.43191528 33.78606689 43.45318604 34.69006348 C43.4555305 41.21048209 42.11423667 46.63287208 37.58770752 51.52697754 C31.18605878 57.1849396 24.90996918 57.52272389 16.68359375 57.32421875 C11.17340221 56.8392284 7.75719145 55.20438822 3.421875 51.73828125 C-0.804331 46.57162831 -0.26507829 40.08452342 -0.1953125 33.7890625 C-0.1924826 32.82092621 -0.18965271 31.85278992 -0.18673706 30.85531616 C-0.17558696 27.77841572 -0.1504918 24.70181172 -0.125 21.625 C-0.11496352 19.5325563 -0.10583884 17.44010802 -0.09765625 15.34765625 C-0.07566453 10.23165749 -0.04117025 5.11587892 0 0 Z " fill="#1F1B1C" transform="translate(7,85)"/>
<path d="M0 0 C24.8974359 0 24.8974359 0 31.5 6.4375 C34.00152472 12.37862121 34.21412233 19.05751288 32.3046875 25.2578125 C29.63986919 30.4306951 25.3905352 33.20315493 20 35 C18.60560336 35.06665376 17.20830125 35.08538199 15.8125 35.0625 C14.554375 35.041875 13.29625 35.02125 12 35 C12 33.68 12 32.36 12 31 C12.55429688 30.76925781 13.10859375 30.53851563 13.6796875 30.30078125 C18.16931927 28.32809011 18.16931927 28.32809011 21.5 24.875 C22.51655018 19.02983649 23.36714213 14.02999893 19.9375 8.9375 C16.59680348 6.43405966 16.59680348 6.43405966 10 6 C10 22.83 10 39.66 10 57 C6.7 57 3.4 57 0 57 C0 38.19 0 19.38 0 0 Z " fill="#ED6B25" transform="translate(123,84)"/>
<path d="M0 0 C2.90407132 2.7852684 3.91927479 4.39321547 4.45410156 8.41333008 C4.4331543 9.68587646 4.41220703 10.95842285 4.390625 12.26953125 C4.38496521 12.95053391 4.37930542 13.63153656 4.37347412 14.33317566 C4.35120481 16.49368645 4.30103318 18.65249646 4.25 20.8125 C4.22992247 22.28317905 4.21167389 23.75388429 4.1953125 25.22460938 C4.15137326 28.8169525 4.08241456 32.40831006 4 36 C0.7 36 -2.6 36 -6 36 C-6.33 26.43 -6.66 16.86 -7 7 C-12.09104463 5.508359 -12.09104463 5.508359 -17 8 C-17.33 17.24 -17.66 26.48 -18 36 C-21.63 36 -25.26 36 -29 36 C-29 24.12 -29 12.24 -29 0 C-25.7 0 -22.4 0 -19 0 C-18.67 0.99 -18.34 1.98 -18 3 C-17.3709375 2.69964844 -16.741875 2.39929688 -16.09375 2.08984375 C-10.1928849 -0.53177553 -6.29239552 -1.84432283 0 0 Z " fill="#ED6B23" transform="translate(211,105)"/>
<path d="M0 0 C3.38732939 2.6807965 4.84946641 4.09479137 5.56762695 8.41333008 C5.54144287 9.68587646 5.51525879 10.95842285 5.48828125 12.26953125 C5.48120651 12.95053391 5.47413177 13.63153656 5.46684265 14.33317566 C5.43900069 16.49409995 5.37629527 18.65236822 5.3125 20.8125 C5.28740332 22.28316552 5.26459253 23.75387193 5.24414062 25.22460938 C5.18921188 28.81725957 5.10301647 32.40837028 5 36 C1.7 36 -1.6 36 -5 36 C-5.01981934 35.16227051 -5.03963867 34.32454102 -5.06005859 33.46142578 C-5.13810612 30.35634166 -5.22479635 27.25165461 -5.31738281 24.14697266 C-5.37454036 22.14113029 -5.42168596 20.13501082 -5.46875 18.12890625 C-5.50742188 16.87207031 -5.54609375 15.61523438 -5.5859375 14.3203125 C-5.6173584 13.15773926 -5.6487793 11.99516602 -5.68115234 10.79736328 C-5.72157869 7.86343518 -5.72157869 7.86343518 -8 6 C-11.44242296 6.37417641 -14.63738948 7.15934737 -18 8 C-18 17.24 -18 26.48 -18 36 C-21.3 36 -24.6 36 -28 36 C-28 24.12 -28 12.24 -28 0 C-25.03 0 -22.06 0 -19 0 C-18.34 0.99 -17.68 1.98 -17 3 C-16.35933594 2.69964844 -15.71867187 2.39929688 -15.05859375 2.08984375 C-9.70675525 -0.26305097 -5.80528817 -1.93509606 0 0 Z " fill="#1F1C1D" transform="translate(88,105)"/>
<path d="M0 0 C3.3 0 6.6 0 10 0 C10.33 0.99 10.66 1.98 11 3 C11.99 2.67 12.98 2.34 14 2 C13.67854004 2.85158691 13.35708008 3.70317383 13.02587891 4.58056641 C11.96802313 8.10658449 11.6869781 11.03979577 11.5859375 14.7109375 C11.54726562 15.95488281 11.50859375 17.19882813 11.46875 18.48046875 C11.42234375 20.40826172 11.42234375 20.40826172 11.375 22.375 C11.31699219 24.33759766 11.31699219 24.33759766 11.2578125 26.33984375 C11.16380043 29.55975716 11.07814179 32.7796688 11 36 C7.37 36 3.74 36 0 36 C0 24.12 0 12.24 0 0 Z " fill="#ED7331" transform="translate(182,105)"/>
<path d="M0 0 C3.3 0 6.6 0 10 0 C10 11.88 10 23.76 10 36 C6.7 36 3.4 36 0 36 C0 24.12 0 12.24 0 0 Z " fill="#EC691F" transform="translate(163,105)"/>
<path d="M0 0 C3.3 0 6.6 0 10 0 C10 11.88 10 23.76 10 36 C6.7 36 3.4 36 0 36 C0 24.12 0 12.24 0 0 Z " fill="#1E1B1C" transform="translate(102,105)"/>
<path d="M0 0 C2.3125 1.625 2.3125 1.625 4 4 C4.61195145 7.6717087 4.48706506 9.28813568 2.375 12.375 C0 14 0 14 -3 14.5625 C-6 14 -6 14 -8.4375 11.875 C-10 9 -10 9 -10 5.875 C-8.2672175 0.89325032 -5.23199164 -0.91559854 0 0 Z " fill="#EE7633" transform="translate(211,84)"/>
<path d="M0 0 C2.88437779 1.29299694 4.87219421 2.65941363 7 5 C5.70700306 7.88437779 4.34058637 9.87219421 2 12 C-0.88437779 10.70700306 -2.87219421 9.34058637 -5 7 C-3.70700306 4.11562221 -2.34058637 2.12780579 0 0 Z " fill="#EC6921" transform="translate(167,85)"/>
<path d="M0 0 C2.88437779 1.29299694 4.87219421 2.65941363 7 5 C5.70700306 7.88437779 4.34058637 9.87219421 2 12 C-0.88437779 10.70700306 -2.87219421 9.34058637 -5 7 C-3.70700306 4.11562221 -2.34058637 2.12780579 0 0 Z " fill="#1D191A" transform="translate(106,85)"/>
<path d="M0 0 C4.75 0.75 4.75 0.75 7 3 C6.8125 6 6.8125 6 6 9 C3 11 3 11 0.4375 10.75 C-2 10 -2 10 -4 8 C-4.125 5.375 -4.125 5.375 -4 3 C-3.34 2.67 -2.68 2.34 -2 2 C-1.67 3.98 -1.34 5.96 -1 8 C-0.67 7.34 -0.34 6.68 0 6 C0.99 6 1.98 6 3 6 C3 4.68 3 3.36 3 2 C2.01 1.34 1.02 0.68 0 0 Z " fill="#FCEAE3" transform="translate(207,86)"/>
<path d="M0 0 C1.98 0.66 3.96 1.32 6 2 C6 4.31 6 6.62 6 9 C4.68 8.01 3.36 7.02 2 6 C1.67 6.99 1.34 7.98 1 9 C-1.125 2.25 -1.125 2.25 0 0 Z " fill="#F39D6F" transform="translate(205,86)"/>
</svg>
