<?xml version="1.0" standalone="no"?>
<!DOCTYPE svg PUBLIC "-//W3C//DTD SVG 20010904//EN"
 "http://www.w3.org/TR/2001/REC-SVG-20010904/DTD/svg10.dtd">
<svg version="1.0" xmlns="http://www.w3.org/2000/svg"
 width="222.000000pt" height="227.000000pt" viewBox="0 0 222.000000 227.000000"
 preserveAspectRatio="xMidYMid meet">

<g transform="translate(0.000000,227.000000) scale(0.100000,-0.100000)"
fill="#000000" stroke="none">
<path d="M1083 2236 c-16 -16 -49 -28 -110 -40 -261 -51 -466 -139 -479 -206
-5 -23 -12 -29 -47 -34 -74 -12 -228 -191 -343 -400 -22 -42 -47 -72 -65 -82
-29 -14 -29 -15 -14 -45 13 -25 14 -42 6 -102 -18 -131 -23 -290 -12 -374 10
-81 39 -157 62 -165 8 -3 13 -26 14 -59 2 -93 82 -226 252 -417 41 -46 76 -96
79 -112 6 -25 10 -28 48 -28 28 0 71 -14 136 -45 208 -97 398 -139 470 -102
25 13 33 13 67 -1 81 -34 217 -5 457 98 93 40 146 58 161 54 20 -5 24 -1 30
24 4 17 37 65 73 106 155 176 266 359 261 432 -2 28 3 45 18 61 37 40 48 111
48 311 0 102 -2 215 -5 252 -3 45 0 72 8 80 16 16 15 28 -2 28 -20 0 -62 54
-126 160 -110 184 -248 330 -311 330 -22 0 -29 5 -29 19 0 32 -76 87 -173 126
-87 35 -338 105 -376 105 -10 0 -30 11 -45 25 -15 14 -28 25 -29 24 -1 -1 -12
-11 -24 -23z m55 -45 c15 -11 54 -25 87 -31 239 -46 465 -143 481 -205 4 -17
13 -25 29 -25 64 0 212 -164 330 -368 30 -51 59 -89 76 -98 26 -13 27 -15 13
-42 -11 -23 -12 -44 -3 -118 13 -104 6 -370 -11 -431 -7 -23 -21 -52 -33 -64
-15 -16 -20 -33 -18 -60 5 -68 -103 -246 -251 -414 -44 -50 -68 -85 -68 -101
0 -21 -4 -24 -39 -24 -24 0 -72 -16 -132 -44 -150 -70 -281 -109 -370 -110
-50 -1 -81 4 -92 12 -14 12 -23 11 -61 -3 -79 -30 -233 3 -442 96 -79 36 -123
50 -144 47 -26 -4 -30 -1 -36 24 -3 16 -31 57 -61 91 -168 187 -266 347 -262
423 2 32 -3 48 -23 72 -14 17 -32 55 -39 84 -17 65 -17 288 0 405 10 69 10 87
-3 110 -13 26 -13 28 14 44 15 9 48 54 75 100 119 208 264 369 332 369 13 0
23 6 23 14 0 65 173 147 434 205 70 16 135 36 144 45 20 20 17 20 50 -3z"/>
<path d="M1089 2144 c-9 -8 -65 -26 -125 -39 -261 -57 -424 -132 -424 -196 0
-14 -7 -19 -26 -19 -65 0 -197 -143 -306 -332 -30 -52 -64 -98 -79 -107 -25
-14 -26 -17 -14 -45 10 -23 10 -47 3 -96 -6 -36 -11 -132 -11 -215 -2 -167 9
-223 51 -265 22 -21 25 -31 19 -51 -20 -57 66 -208 216 -381 47 -53 87 -108
91 -122 5 -21 12 -26 38 -26 17 0 84 -23 149 -50 117 -51 286 -100 341 -100
16 0 44 6 62 14 30 12 40 12 79 -2 39 -14 56 -15 114 -5 86 15 204 54 312 104
51 24 99 39 122 39 35 0 39 3 39 24 0 16 22 50 61 94 80 90 181 232 216 302
15 30 27 73 28 96 1 25 9 51 22 67 36 47 47 141 40 367 -4 116 -2 211 3 220 6
10 1 19 -20 32 -16 9 -39 37 -51 60 -45 87 -145 225 -219 301 -63 64 -81 77
-108 77 -25 0 -32 4 -32 19 0 58 -178 140 -424 195 -59 14 -116 32 -125 41
-22 19 -23 19 -42 -1z m1 -197 c0 -16 -2 -17 -21 -3 -36 25 -69 3 -69 -47 0
-42 17 -67 46 -67 22 0 25 4 22 28 -2 21 1 28 18 30 18 3 21 -1 16 -25 -6 -34
-18 -43 -60 -43 -37 0 -82 37 -82 67 0 25 28 63 53 72 38 14 77 8 77 -12z
m131 13 c33 0 39 -3 39 -22 0 -20 -1 -20 -18 -5 -28 25 -52 22 -52 -8 0 -26 9
-32 26 -15 7 7 9 1 6 -20 -4 -27 -6 -29 -17 -13 -12 15 -13 15 -19 -5 -13 -41
21 -57 55 -26 16 15 17 14 12 -5 -6 -22 -42 -28 -89 -15 -19 5 -20 9 -12 56 5
28 7 60 4 70 -3 14 -1 18 11 14 8 -3 32 -6 54 -6z m-314 -36 c2 -6 -9 -9 -27
-6 -24 3 -30 1 -30 -14 0 -11 4 -25 9 -33 7 -11 11 -10 20 5 6 11 11 14 11 7
0 -6 3 -19 6 -27 5 -12 2 -15 -10 -10 -17 6 -20 -4 -10 -30 8 -22 30 -20 47 4
8 11 17 17 20 13 13 -12 7 -21 -20 -31 -70 -27 -70 -27 -88 30 -10 29 -22 58
-27 65 -6 8 4 16 34 26 46 16 60 17 65 1z m491 -10 c27 -18 28 -28 2 -54 -16
-16 -18 -24 -10 -46 6 -15 8 -29 6 -32 -12 -11 -33 9 -43 41 -9 32 -9 36 9 40
14 4 19 12 16 29 -6 42 -30 25 -45 -31 -16 -63 -17 -65 -37 -58 -13 5 -12 14
4 66 10 33 15 63 11 67 -11 11 63 -7 87 -22z m-621 -95 c35 -68 36 -67 -55
-30 -33 13 -51 16 -46 9 4 -7 18 -29 30 -50 20 -31 21 -37 8 -42 -8 -3 -12 -1
-9 4 6 10 -41 100 -59 112 -22 15 42 18 76 3 51 -21 53 -20 29 20 -11 19 -17
35 -13 35 4 0 21 -28 39 -61z m731 53 c9 -6 5 -21 -17 -62 -16 -30 -27 -58
-25 -62 8 -13 -11 -9 -32 7 -10 8 -14 15 -8 15 6 0 22 25 35 55 25 58 27 59
47 47z m132 -102 c-5 -10 -10 -28 -10 -39 0 -18 3 -19 27 -10 15 6 30 15 34
21 4 7 9 7 13 0 3 -6 -14 -18 -39 -28 -26 -9 -51 -27 -58 -40 l-12 -23 -25 20
c-14 12 -20 18 -13 15 17 -9 40 30 48 81 6 38 9 42 26 32 15 -8 17 -14 9 -29z
m-534 -56 c-8 -27 -20 -67 -25 -89 l-10 -40 5 45 c6 48 34 143 40 137 3 -2 -2
-26 -10 -53z m-537 22 c10 -12 8 -13 -8 -9 -24 6 -54 -14 -45 -29 4 -5 22 -7
41 -3 51 9 73 -1 73 -35 0 -39 -43 -71 -65 -49 -12 12 -10 14 18 14 25 0 32 4
32 20 0 18 -6 20 -51 17 -32 -2 -55 1 -59 8 -12 19 3 56 27 68 13 6 24 11 24
11 1 1 7 -5 13 -13z m1206 -72 c22 -9 47 -61 40 -84 -8 -25 -53 -60 -77 -60
-28 0 -68 45 -68 76 0 52 54 87 105 68z m-876 -81 c-132 -124 -137 -194 -24
-328 23 -27 47 -60 53 -72 16 -29 15 -86 0 -102 -11 -10 -10 -11 4 -6 23 9 52
-48 44 -86 -3 -15 -21 -53 -41 -84 -35 -54 -36 -57 -20 -81 15 -23 63 -50 72
-40 2 2 -9 8 -26 14 -47 17 -54 41 -25 90 27 46 35 49 57 27 8 -8 17 -12 20
-8 3 3 6 -3 5 -13 0 -11 3 -27 7 -37 6 -13 4 -16 -9 -11 -9 3 -13 11 -9 17 4
6 1 7 -6 3 -7 -5 -22 0 -34 11 -20 17 -21 17 -8 0 17 -22 66 -49 74 -41 8 9
27 -32 19 -41 -4 -5 -2 -5 5 -1 7 4 18 -5 28 -23 18 -35 20 -55 2 -26 -7 11
-23 21 -37 23 -23 2 -22 0 10 -20 19 -12 39 -21 44 -19 5 1 12 -2 15 -6 3 -5
17 2 30 14 19 18 21 23 8 23 -9 0 -21 -8 -26 -17 -14 -24 -14 -7 0 18 5 11 15
16 21 13 7 -4 8 -3 4 4 -4 6 7 30 24 53 37 51 37 62 4 84 -21 13 -24 19 -13
26 9 5 -13 9 -57 9 -58 0 -73 -3 -78 -16 -6 -15 -4 -15 11 -3 17 12 17 12 1
-6 -16 -17 -18 -17 -43 -1 -25 16 -31 39 -10 37 6 -1 12 34 15 76 4 63 1 86
-14 120 -24 51 -18 61 21 37 15 -10 23 -12 18 -6 -8 8 -4 59 13 169 18 122 21
165 13 189 -14 40 -14 51 1 36 17 -17 38 -15 38 3 0 8 5 15 10 15 6 0 13 -7
16 -15 10 -24 33 -18 28 8 -5 22 -5 22 8 -1 9 -18 9 -28 0 -43 -9 -14 -7 -51
13 -176 14 -87 25 -164 25 -171 0 -9 5 -10 19 -3 29 16 32 1 9 -40 -13 -24
-30 -40 -42 -40 -19 -2 -19 -2 2 -6 20 -4 22 -10 22 -79 0 -54 3 -73 13 -72 6
2 12 -6 11 -18 0 -16 4 -20 18 -16 26 6 23 -26 -4 -56 -22 -24 -23 -24 -2 -14
12 6 25 19 29 29 5 15 10 12 26 -20 11 -20 22 -37 25 -37 3 0 -7 21 -22 48
-69 120 -73 139 -38 186 14 19 14 19 41 -5 l27 -24 -27 33 c-44 55 -34 104 37
184 121 134 112 222 -37 349 -54 46 -58 51 -32 45 102 -25 231 -119 261 -191
30 -74 8 -158 -61 -225 -20 -19 -40 -44 -47 -54 -18 -32 101 76 123 111 23 37
28 118 9 153 -19 35 -4 34 24 -2 83 -110 72 -207 -35 -302 l-54 -48 63 42 c71
47 102 88 103 140 l1 35 13 -35 c7 -19 14 -59 14 -89 1 -66 -19 -102 -89 -155
-28 -21 -56 -48 -62 -60 -7 -13 5 -6 34 19 24 22 59 48 77 57 17 10 38 32 46
50 l14 33 1 -58 c0 -87 -30 -132 -117 -176 -24 -12 -43 -23 -43 -25 0 -9 77
17 109 37 l33 20 -7 -24 c-14 -49 -72 -133 -120 -175 -169 -149 -476 -195
-718 -107 -154 55 -274 169 -312 293 l-7 25 24 -22 c13 -13 45 -29 71 -37 54
-16 53 -3 -1 20 -78 32 -112 89 -112 184 l1 45 17 -32 c10 -19 46 -52 87 -78
l70 -46 -72 68 c-82 77 -94 109 -74 197 16 70 26 82 27 32 1 -54 23 -87 90
-131 29 -20 58 -43 63 -53 6 -9 11 -13 11 -8 0 6 -28 37 -63 71 -60 58 -87
108 -87 161 0 26 43 113 74 149 l25 30 -14 -40 c-30 -86 -16 -143 52 -205 70
-65 89 -76 42 -24 -113 123 -115 219 -8 319 45 42 174 114 207 115 7 0 -20
-30 -59 -67z m-400 6 c63 -12 69 -17 50 -36 -8 -8 -23 -8 -55 2 -24 7 -44 12
-44 10 0 -2 3 -11 6 -19 5 -13 9 -14 20 -5 9 8 14 8 14 1 0 -6 -5 -14 -11 -17
-7 -5 -5 -13 6 -25 9 -10 13 -20 8 -23 -4 -3 -25 27 -46 65 -25 45 -33 69 -24
65 8 -3 42 -11 76 -18z m-121 -77 c-36 -7 -26 -30 25 -53 28 -13 55 -23 59
-21 11 3 10 -5 -3 -30 -6 -12 -14 -16 -18 -11 -5 9 -96 53 -108 53 -3 0 -3
-11 -1 -24 4 -17 1 -23 -9 -19 -16 6 -17 1 12 67 20 45 28 54 42 49 16 -7 16
-8 1 -11z m1509 -14 c27 -31 37 -74 18 -81 -9 -4 -12 -1 -8 9 3 8 2 25 -1 39
-5 19 -13 25 -35 25 -37 0 -83 -36 -79 -63 4 -26 22 -32 41 -13 13 13 16 12
25 -10 7 -13 8 -24 4 -24 -4 0 -17 -3 -29 -6 -17 -5 -26 1 -42 27 -26 43 -26
60 0 93 27 34 77 36 106 4z m-1466 -162 c7 4 3 -17 -7 -37 -2 -4 -29 2 -60 12
-31 10 -60 16 -65 13 -10 -6 -12 7 -3 29 4 12 14 12 66 -4 33 -11 64 -17 69
-13z m1531 9 c3 -13 2 -22 -2 -20 -4 2 -17 -7 -30 -20 l-23 -24 27 -11 c15 -5
32 -9 38 -7 6 1 13 -3 15 -10 3 -9 -8 -8 -41 3 -35 12 -53 13 -76 5 -17 -5
-30 -6 -30 -1 0 4 -2 14 -5 22 -4 9 4 14 22 15 18 1 38 14 58 36 36 43 41 44
47 12z m-1665 -83 c-18 -19 -23 -52 -9 -52 5 0 21 14 37 30 49 51 93 31 81
-35 -6 -28 -12 -35 -29 -34 l-22 0 23 16 c26 18 30 53 6 53 -9 0 -25 -11 -36
-26 -24 -30 -71 -30 -76 -1 -6 31 7 67 25 67 15 0 15 -1 0 -18z m1693 -113 c0
-5 -4 -9 -8 -9 -5 0 -34 -15 -65 -34 -57 -34 -57 -34 -57 -11 0 15 7 26 20 30
16 5 19 12 14 28 -10 34 -23 44 -34 27 -8 -12 -10 -11 -10 6 l0 21 70 -25 c39
-13 70 -29 70 -33z m-1590 -11 c0 -14 -12 -31 -30 -43 -38 -26 -38 -38 0 -33
25 4 30 1 30 -16 0 -19 -6 -21 -70 -21 l-71 0 3 49 c4 59 26 80 56 53 19 -17
21 -17 48 7 35 31 34 31 34 4z m1549 -111 c38 -1 50 -5 46 -15 -3 -8 -5 -18
-5 -23 0 -4 -14 -6 -31 -2 l-31 6 16 -31 c8 -16 21 -32 27 -34 6 -2 9 -13 7
-23 -3 -17 -7 -14 -22 15 -10 19 -20 37 -22 39 -2 2 -23 -8 -48 -22 l-46 -26
0 23 c0 16 9 25 35 35 43 15 46 35 5 29 -32 -5 -33 -4 -24 29 5 18 10 21 25
13 10 -6 41 -11 68 -13z m-1533 -95 c7 -28 8 -49 3 -47 -4 3 -35 -1 -68 -8
l-61 -14 -10 36 c-13 48 -13 61 3 61 9 0 12 -10 9 -30 -4 -30 3 -35 32 -24 21
8 20 24 -1 24 -22 0 -14 6 21 14 26 6 28 5 16 -9 -18 -21 -8 -28 23 -16 29 11
28 35 -2 59 -14 12 -14 13 4 10 15 -2 22 -16 31 -56z m1452 -154 c-39 -4 -73
-6 -76 -4 -2 3 -1 13 2 24 5 13 13 18 25 15 13 -3 23 2 31 16 13 25 4 45 -16
37 -16 -6 -16 -4 -8 17 3 10 21 -2 59 -42 l54 -56 -71 -7z m-712 100 c4 -6 0
-16 -9 -23 -11 -8 -18 -28 -19 -56 l-1 -44 -4 40 c-2 22 -11 45 -20 52 -8 7
-13 19 -10 28 7 18 52 20 63 3z m-708 -96 c-8 -9 -30 -36 -50 -58 -34 -39 -36
-41 -45 -21 -8 16 -3 26 26 53 l36 33 -52 1 c-29 0 -53 3 -53 8 0 4 34 6 76 4
69 -3 74 -5 62 -20z m1367 -67 c17 -10 40 -24 52 -30 l23 -12 -31 -42 c-33
-46 -58 -51 -74 -13 -7 16 -18 22 -43 22 -42 0 -39 24 4 28 54 5 60 11 32 30
-22 14 -24 21 -16 36 6 10 13 14 17 9 3 -4 20 -17 36 -28z m-1334 -58 c-25
-16 -51 -35 -58 -44 -10 -13 -13 -12 -24 8 -6 13 -8 24 -3 26 5 2 32 18 59 36
43 28 52 31 61 18 10 -12 3 -20 -35 -44z m60 -88 c-6 -29 -9 -54 -7 -57 3 -2
21 11 40 30 31 31 37 34 48 20 8 -10 9 -13 1 -9 -10 6 -88 -50 -104 -75 -13
-21 -26 25 -18 61 14 62 10 68 -21 34 -21 -23 -30 -28 -34 -17 -3 8 -1 14 3
14 5 0 29 16 52 36 24 20 45 31 47 25 2 -6 -1 -34 -7 -62z m1228 -45 c7 5 10
14 7 22 -3 8 -1 14 4 14 22 0 15 -18 -24 -63 -38 -44 -44 -47 -55 -33 -12 14
-12 16 2 11 8 -4 18 -1 23 6 4 8 -10 28 -38 55 -39 37 -43 44 -31 57 13 12 20
8 57 -31 27 -28 47 -42 55 -38z m-130 -121 c1 -7 -25 3 -58 22 -33 19 -65 35
-73 35 -7 0 -2 9 12 19 21 17 25 17 35 4 10 -13 15 -13 33 -2 23 15 30 39 11
39 -8 0 -7 5 2 16 12 14 15 7 25 -52 7 -38 13 -74 13 -81z m-938 107 c27 -15
24 -56 -6 -96 -14 -18 -25 -38 -25 -44 0 -8 -6 -8 -20 0 -20 11 -20 12 14 60
38 52 38 80 2 80 -14 0 -31 -15 -51 -45 -31 -46 -39 -52 -50 -35 -3 6 0 10 7
10 7 1 25 19 40 40 29 41 52 49 89 30z m484 -17 c6 -14 19 -23 31 -23 25 0 34
-17 34 -66 0 -19 5 -34 11 -34 8 0 10 17 7 50 -5 51 5 68 16 28 11 -41 6 -108
-9 -138 -14 -26 -14 -29 0 -24 15 6 45 -11 45 -26 0 -5 -8 -6 -17 -4 -12 3
-22 -3 -28 -17 -20 -44 -61 -64 -133 -64 -80 0 -135 24 -163 69 -24 40 -24 42
9 75 27 27 27 28 7 37 -15 7 -21 21 -25 62 -5 48 -4 52 16 52 29 0 42 -18 47
-65 3 -36 4 -35 5 13 2 55 16 67 33 30 9 -21 9 -20 4 5 -9 47 10 69 58 65 32
-2 44 -8 52 -25z m-315 -128 c17 -20 5 -45 -20 -45 -11 0 -23 7 -26 15 -6 15
11 45 26 45 4 0 13 -7 20 -15z m579 -4 c13 -23 -10 -47 -34 -37 -18 7 -20 42
-2 49 21 9 26 7 36 -12z"/>
<path d="M1721 1625 c-41 -36 -43 -75 -3 -75 39 0 91 54 76 78 -17 26 -38 25
-73 -3z"/>
<path d="M1111 1454 c0 -11 3 -14 6 -6 3 7 2 16 -1 19 -3 4 -6 -2 -5 -13z"/>
<path d="M1112 1370 c0 -14 2 -19 5 -12 2 6 2 18 0 25 -3 6 -5 1 -5 -13z"/>
<path d="M1111 1274 c0 -11 3 -14 6 -6 3 7 2 16 -1 19 -3 4 -6 -2 -5 -13z"/>
<path d="M1073 1113 c9 -2 25 -2 35 0 9 3 1 5 -18 5 -19 0 -27 -2 -17 -5z"/>
<path d="M1040 1020 l0 -60 70 0 70 0 0 60 c0 53 -12 79 -22 49 -3 -9 -10 -8
-25 2 -18 11 -24 11 -38 -1 -12 -10 -19 -10 -27 -2 -22 22 -28 12 -28 -48z"/>
<path d="M883 1025 c-3 -9 -3 -18 -1 -21 3 -3 8 4 11 16 6 23 -1 27 -10 5z"/>
<path d="M1320 985 c-7 -8 -17 -12 -23 -8 -13 8 -2 -11 33 -57 15 -19 34 -48
43 -65 9 -16 16 -26 17 -22 0 13 -21 49 -53 90 -28 36 -29 39 -12 57 10 11 16
20 13 20 -3 0 -11 -7 -18 -15z"/>
<path d="M903 976 c13 -9 11 -15 -12 -45 -66 -84 -89 -172 -56 -215 17 -22 65
-56 80 -56 6 0 -6 10 -25 21 -47 29 -59 48 -60 92 0 43 23 93 74 161 20 25 36
47 36 49 0 1 -12 2 -26 2 -20 0 -22 -2 -11 -9z"/>
<path d="M1192 919 c10 -5 22 -17 27 -27 6 -9 11 -12 11 -5 0 6 -7 19 -16 27
-8 9 -21 16 -27 16 -7 0 -4 -5 5 -11z"/>
<path d="M1195 840 c-3 -5 -2 -10 4 -10 5 0 13 5 16 10 3 6 2 10 -4 10 -5 0
-13 -4 -16 -10z"/>
<path d="M1290 816 c-6 -8 -27 -20 -46 -26 -20 -7 -33 -14 -31 -17 8 -8 97 35
97 46 0 15 -5 14 -20 -3z"/>
<path d="M1391 804 c0 -11 3 -14 6 -6 3 7 2 16 -1 19 -3 4 -6 -2 -5 -13z"/>
<path d="M882 780 c0 -19 2 -27 5 -17 2 9 2 25 0 35 -3 9 -5 1 -5 -18z"/>
<path d="M1321 737 c-13 -21 -12 -21 5 -5 10 10 16 20 13 22 -3 3 -11 -5 -18
-17z"/>
<path d="M1390 746 c0 -7 -9 -26 -21 -42 l-21 -29 26 28 c23 25 35 57 21 57
-3 0 -5 -6 -5 -14z"/>
<path d="M968 703 c7 -3 16 -2 19 1 4 3 -2 6 -13 5 -11 0 -14 -3 -6 -6z"/>
<path d="M1130 665 c-10 -12 -16 -13 -29 -3 -14 11 -14 11 -3 -4 12 -15 10
-17 -20 -21 -18 -2 -1 -4 37 -4 39 0 55 2 37 4 -33 4 -33 5 -16 24 9 10 15 19
12 19 -3 0 -11 -7 -18 -15z"/>
<path d="M978 643 c6 -2 18 -2 25 0 6 3 1 5 -13 5 -14 0 -19 -2 -12 -5z"/>
<path d="M1218 643 c6 -2 18 -2 25 0 6 3 1 5 -13 5 -14 0 -19 -2 -12 -5z"/>
<path d="M1890 1166 c0 -18 10 -25 26 -19 20 7 17 20 -6 26 -12 3 -20 0 -20
-7z"/>
<path d="M267 1094 c-17 -17 -5 -34 24 -34 24 0 30 4 27 18 -3 17 -38 29 -51
16z"/>
<path d="M1846 825 c-4 -11 2 -15 21 -15 21 0 24 2 13 15 -7 8 -16 15 -20 15
-4 0 -10 -7 -14 -15z"/>
<path d="M1793 665 c-3 -9 2 -24 11 -33 14 -15 17 -15 32 -1 14 14 13 18 -11
33 -23 15 -26 15 -32 1z"/>
<path d="M1581 471 c-11 -7 -9 -11 8 -20 18 -10 21 -9 21 9 0 22 -7 25 -29 11z"/>
<path d="M1090 422 l0 -78 53 -17 c71 -22 94 -21 108 4 9 18 8 20 -9 15 -38
-12 -52 3 -54 58 l-1 51 -6 -50 c-6 -47 -8 -50 -35 -50 l-29 0 2 73 c2 60 0
72 -13 72 -13 0 -16 -14 -16 -78z"/>
<path d="M1062 395 c0 -16 2 -22 5 -12 2 9 2 23 0 30 -3 6 -5 -1 -5 -18z"/>
<path d="M986 297 c-38 -28 14 -72 98 -83 52 -8 105 8 134 39 l21 22 -38 -3
c-21 -2 -68 6 -105 17 -80 25 -87 25 -110 8z"/>
</g>
</svg>
